<svg width="1024" height="525" viewBox="0 0 1024 525" xmlns="http://www.w3.org/2000/svg" xmlns:xlink="http://www.w3.org/1999/xlink">
    <title>
        chuan
    </title>
    <defs>
        <path id="a" d="M22.295 105.564c11.28 0 39.45 11.358 56.314 28.768 16.865 17.41 28.462 47.333 75.37 63.645 46.796 16.272 137.42 12.975 155.785 11.473 160.04-11.473 210.604-82.49 210.604-91.725C512.037 93.185 459.655.23 294.894.23 130.133.23.12 73.21.12 73.21l22.175 32.354z"/>
    </defs>
    <g fill="none" fill-rule="evenodd">
        <text font-family="Open Sans" font-size="16" font-weight="260" fill="#4A4A4A" transform="translate(224 4.151)">
            <tspan x="0" y="440">And Noah and his sons and his wife and his sons’ wives entered the </tspan> <tspan x="0" y="462">ark to escape the waters of the flood. - </tspan> <tspan x="280.039" y="462" font-weight="bold">Genesis 7:7</tspan>
        </text>
        <text font-family="Open Sans" font-size="36" font-weight="bold" fill="#4A4A4A" transform="translate(224 4.151)">
            <tspan x="41.5" y="410">boat</tspan>
        </text>
        <text font-family="Open Sans" font-size="36" font-weight="260" fill="#4A4A4A" transform="translate(224 4.151)">
            <tspan x="523" y="167">8 people</tspan>
        </text>
        <text font-family="Open Sans" font-size="36" font-weight="260" fill="#4A4A4A" transform="translate(224 4.151)">
            <tspan x="523" y="39">ark</tspan>
        </text>
        <path d="M227.346 355.5v10.554h281.308V355.5M475.483 160.65H736.5M736.5 29.65H269.365V52.91" stroke="#4A4A4A" stroke-linecap="round" stroke-linejoin="round" stroke-dasharray="1,4"/>
        <g fill="#000">
            <path d="M399.135 212.464c-.468 4.067-.903 7.862-1.247 10.843-.164 1.443-1.06 2.685-2.35 3.36-15.74 8.237-22.05-5.185-32.41-13.196-2.805-2.168-6.907-.087-6.94 3.46-.21 21.27-1.146 40.96.367 60.46 2.34 30.243 23.87 34.425 44.932 25.74 10.854-4.474 10.544-16.484 11.734-25.948 1.87-14.883 1.603-30.02 2.603-45.026.992-14.91-3.094-22.68-11.96-23.554-2.353-.232-4.457 1.515-4.728 3.862zm-1.747 72.106c-2.266 4.873-8.742 9.667-13.992 10.563-3.154.536-10.492-6.18-10.93-10.185-1.393-12.78-2.75-26.5.78-38.406 1.353-4.57 15.882-6.578 24.48-6.792 2.222-.055 4.667 9.034 6.863 14.497.327.813.368 1.722.165 2.576-2.474 10.422-3.622 19.69-7.367 27.747zM416.03 82.36c1.702-.214 3.3.87 3.712 2.533.922 3.732 2.146 7.526 1.456 10.933-3.91 19.278-7.958 38.216-2.69 58.104 5.72 21.596 18.536 37.044 37.284 48.252 1.638.982 3.45 1.935 4.625 3.36.013.015.023.03.036.047 2.21 2.73-.97 6.535-4.172 5.087-20.332-9.193-34.848-21.794-44.37-40.24-15-29.05-8.44-57.473.78-85.697.406-1.248 1.503-2.15 2.805-2.313.18-.02.357-.044.536-.068M363.94 81.844c1.568-.125 3.03.776 3.636 2.226 2.52 6.024 5.218 11.985 7.294 18.157 7.393 21.99-.44 41.695-9.815 61.052-.714 1.467-2.232 2.68-3.623 3.668-13.484 9.565-27.013 19.068-41.172 29.034-1.81 1.276-4.346.653-5.35-1.318l-2.08-4.083c-.906-1.778-.19-3.932 1.568-4.866 40.008-21.297 57.9-53.31 46.222-99.404-.547-2.162 1.028-4.287 3.25-4.46.023-.004.047-.006.07-.006M232.367 250.206c23.31-15.96 42.555-35.02 49.904-64.516.293-1.174-.442-2.38-1.614-2.682l-47.04-12.1c-.93.99-1.655 1.51-2.04 2.22-2.41 4.43-4.834 12.72-7.08 12.666-8.017-.192-9.53-7.075-8.887-14.164 1.723-19.08 3.817-38.135 5.07-57.247.666-10.185.23-20.443.146-31.948-.01-1.586 1.622-2.675 3.08-2.05 3.386 1.45 6.45 2.52 6.53 3.782 1.04 15.846 13.48 10.333 21.31 10.867 7.715.523 15.62-1.758 24.54-3.237 1.068-.177 1.862-1.09 1.862-2.17V63.56c0-.93.584-1.763 1.46-2.076.51-.182 1.02-.364 1.527-.55 1.052-.374 2.198.097 2.704 1.095 4.47 8.822 10.965 17.454 11.84 26.62 1.575 16.535-1.474 33.454-1.482 50.21-.005 16.304 2.45 32.653 1.815 48.906-.576 14.658-2.91 28.424-19.453 36.763-11.998 6.046-20.852 18.124-31.72 26.74-2.7 2.144-6.983 2.29-10.856 2.954-1.057.18-2.086-.427-2.442-1.44-.006-.01-.008-.02-.013-.034-.332-.94.014-1.982.837-2.544zm50.362-111.04c0-1.275-1.09-2.28-2.363-2.195-13.635.918-26.612 1.44-39.44 3.124-3.495.458-9.422 5.526-9.06 7.56.807 4.554 4.305 11.588 7.7 12.21 13.245 2.435 26.82 3.066 40.764 4.27 1.287.11 2.4-.9 2.4-2.19v-22.777zm-5.115-31.36c-.433-.56-1.146-.866-1.857-.832-10.146.492-19.64.432-28.953 1.706-9.055 1.24-18.808 3.127-14.06 18.258.315 1.002 1.325 1.61 2.37 1.473 12.158-1.597 24.73-2.63 36.927-5.342 8.638-1.92 11.312-7.815 5.573-15.263z"/>
        </g>
        <g>
            <path d="M252.307 88.014c8.675 8.968 17.582 12.472 17.582 29.738 4.807 5.463 27.42 15.27 19.993 42.06-4.21 15.18-81.008 115.704 114.254 187.438 110.29 40.518 267.457 20.504 320.465-24.648 53.007-45.153 94.04-104.616 64.42-192.72-17.52-52.118-52.94-72.295-64.42-60.493-8.256 8.485 1.234 19.553 11.586 9.194l-1.016 7.886s14.515 5.643 18.038 13.426c-1.99 4.25-25.735 41.492-96.7 70.65l-1.19-71.472 8.785-.04s-23.278-21.8-32.67-67.09L416.626 53.6s-12.417 26.078-39.132 45.115l8.547 1.056-.4 25.398-34.017-20.217s-2.102-43.34-2.102-51.315c-1.302-10.49-18.424-10.49-18.424-10.49l-40.99 8.248s-6.155 2.707-6.155 12.988l-1.26 26.285s-26.312-2.65-30.383-2.65z" fill="#000"/>
            <path d="M254.295 88.064c11.28 0 39.45 11.358 56.314 28.768 16.865 17.41 26.597 44.725 75.37 63.645V125.19l-33.11-19.696-3.096-51.855s-1.203-9.845-14.66-9.845-18.563 19.307-18.563 19.307l2.095 49.668-37.452-22.715-26.898-1.99zM631.443 32.832s-23.42 40.18-40.093 52.465l5.652 3.187v96.594s46.754-7.412 58.613-14.142l-.365-71.364 8.787-1.045c-20.262-19.11-32.594-65.695-32.594-65.695z" id="path" fill="#4A4A4A"/>
            <g transform="translate(225 -19.5)">
                <mask id="b" fill="#fff">
                    <use xlink:href="#a"/>
                </mask>
                <use xlink:href="#a"/>
                <path d="M444.47 103.544c-.42-4.1.162-6.952 1.754-8.544.087.17.172.928.253 2.267.082.844 0 2.062-.253 3.657-.25 1.603-.374 2.736-.374 3.41 0 .413.16.668.496.75.253.084.424-.082.51-.503 1.172-4.937 1.878-7.405 2.13-7.405.083 0 .046 1.15-.125 3.45-.165 2.297-.208 3.494-.12 3.58 2.177-2.216 3.34-3.32 3.508-3.32-.084.838-.543 2.21-1.378 4.125-.583.335-1.345.963-2.26 1.883-.923 1.413-1.38 3.005-1.38 4.753 0 2.162 2.47 4.703 7.41 7.624 1.007-2.006 1.708-4.268 2.132-6.78l.88-5.02c.586.588.837 2.344.752 5.27 0 .76-.266 1.848-.812 3.272-.545 1.426-.82 2.47-.82 3.134l1.002 1.008c0 .337.124.748.377 1.254 1.425 2.094 4.28 3.35 8.546 3.773 0-1.01-.214-2.43-.63-4.278-.422-2.177-.673-3.593-.757-4.268-.34-2.842-.122-4.268.63-4.268.165.422.37 1.8.624 4.14.087.674.295 1.976.63 3.893.34 1.59.503 2.85.503 3.77l3.138-2.514 1.133-6.27c.253.505.5 1.425.752 2.76.087 1-.13 2.51-.63 4.52-.253 1.165-.41 1.96-.496 2.375.087.17.243.262.496.262 1.51 0 2.892-.84 4.147-2.515 0-2.175.084-4.474.253-6.904.074-.166.788.92 2.13 3.263.087 0 .17-.036.25-.126 0-3.596-.416-6.272-1.255-8.033-1.173-2.178-3.266-3.81-6.274-4.898-.674-.252-1.254-1.26-1.763-3.012.17 0 1.05.52 2.637 1.56 1.595 1.06 2.768 1.58 3.52 1.58.337 0 .666-.09 1.004-.26v-3.51c0-.665-.193-1.693-.573-3.08-.37-1.378-.556-2.407-.556-3.076.75 1.007 1.63 3.013 2.638 6.034.41 3.512.543 5.35.372 5.518.422 0 .688-1.334.82-4.03.124-2.684.27-4.07.437-4.156.752 1.09 1.044 2.046.88 2.885-.67 3.675-.88 6.56-.626 8.652.17 1.34.583 3.18 1.255 5.508 0 1.932-.334 3.643-1 5.143-.927 1.508-2.137 3.717-3.647 6.644 0 .337-.087.8-.248 1.38-.082.086-.42.29-1.013.63-.582.336-.872.626-.872.87 0 .423.522.948 1.56 1.573 1.055.63 1.66 1.067 1.827 1.31.085.17.045.385-.123.633-.17.25-.255.41-.255.503 0 1.744-.748 3.05-2.262 3.877-.503.09-1.046.427-1.63 1.01-.083 2.59-.336 6.27-.75 11.03-.59 2.927-1.848 5.555-3.77 7.9-.84 1.09-3.425 3.09-7.78 6.01-1.086.26-2.513.88-4.268 1.882-.338.337-.543.838-.63 1.502 0 .422.04 1.004.126 1.756.083.75.128 1.294.128 1.634 0 .92.42 2.19 1.273 3.815.842 1.643 1.272 2.913 1.272 3.83 0 .583-.512 1.25-1.524 2.004-1.263.835-1.938 1.378-2.022 1.633-.335.752-.51 2.59-.51 5.516 0 3.755 1.467 7.557 4.393 11.404-.507.5-1.05.75-1.63.75-1.258 0-2.93-.996-5.022-2.994-.338-.256-.422-.746-.253-1.495.17-.75.253-1.257.253-1.503-.082-.827-.467-3.13-1.134-6.867-1.086.75-3.807 2.01-8.162 3.764 0-.17-.58-.317-1.756-.438-1.17-.12-1.68-.353-1.508-.69.833-1.762 2.7-3.357 5.576-4.783 2.887-1.428 4.505-2.406 4.885-2.95.373-.547.566-1.356.566-2.453 0-3.098-.59-5.78-1.756-8.038-1.426-2.77-3.517-4.235-6.28-4.404-1.255.08-3.092.04-5.515-.127-1.342-.254-2.85-.38-4.524-.38-1.918 0-4.012.17-6.266.493-.337.084-.772-.077-1.315-.483-.55-.406-.945-.614-1.198-.614-.338 0-.667.17-1.002.498-5.36 6.037-8.036 11.076-8.036 15.096 0 1.598.88 3.274 2.637 5.03.17 1.18.63 2.942 1.388 5.29 1.175 1.17 3.134 3.43 5.9 6.787-.082 0-.317.21-.696.63-.375.414-.688.628-.94.628-.592-.084-1.98-.844-4.164-2.27-.59 0-1.263-.206-2.025-.627.09-.414-.037-1.137-.372-2.136-1.686-2.1-3.278-4.83-4.802-8.186-.67-1.595-1.674-3.986-3.024-7.18-1.677 1.008-2.774 2.22-3.27 3.64-2.277 6.182-3.535 11.288-3.788 15.296-.105 1.173-.105 2.383 0 3.638.085.996 0 1.505-.245 1.505-.17 0-.57-.385-1.222-1.136-.245-.338-.907-.752-1.964-1.248-.744-.337-1.065-.883-.98-1.635.917-11.71 3.007-20.416 6.27-26.102.505-.844 1.59-1.656 3.27-2.455 1.67-.796 2.468-1.484 2.383-2.067-.253-1.84-.92-4.292-2.01-7.342-1.087-3.05-1.752-5.285-2.005-6.714-.51-2.428-.796-3.81-.883-4.147 0-4.098 2.633-6.942 7.908-8.535 3.35-1.004 9.045-1.587 17.084-1.755 2.676-.087 6.57-.293 11.67-.628 4.522-.337 7.412-.46 8.672-.377 3.432.17 5.897-.208 7.4-1.128 1.513-.918 2.808-2.97 3.894-6.16.506-1.34.762-1.97.762-1.886 0-.413-.256-.75-.762-1-.75-.333-1.17-.592-1.25-.76-.08-1.09-.627-2.508-1.63-4.27-.592-.666-1.594-1.546-3.02-2.638-1.756-1.09-3.52-2.135-5.273-3.142-2.006-1.424-3.517-3.056-4.52-4.896-.586-1.01-.96-2.805-1.13-5.41-.168-1.84-.29-3.725-.374-5.65M261.836 156.41c2.077.218 4.513 1.62 6.208 1.632 1.1.006 2.59-.82 3.8-.908 1.208-.085 2.45-.045 3.642.22 5.562 1.205 10.698 2.17 16.8 1.866 3.07-.156 5.508-.735 8.42-1.69 3.02-.988 5.195-1.82 7.418.95.643.814 1.23 2.705 2.034 3.216 1.12.712 3.345-.15 4.532-.247 2.122-.18 7.125.624 8.476-1.25.747-1.067-.358-3.09-.07-4.354.276-1.275 1.265-2.16 2.013-3.217 1.435-2.058 3.342-4.782 3.6-7.252 1.184 2.08-2.04 7.206-2.315 9.515 2.15-3.07 3.75-6.86 4.918-9.893.01 2.992-.3 5.262-1.63 7.928-1.048 2.11-2.243 5.54-.915 7.744 1.148 1.898 3.37 2.438 3.872 4.892.627 3.026 1.832 4.716 3.533 7.28 1.06 1.59 4.046 4.63 2.778 6.498-.34.51-2.523 1.97-3.133 2.106-1.418.29-2.016-1.067-3.367-1.642-1.25-.54-2.297-.77-3.595-1.5-1.288-.718-2.35-1.16-3.874-1.16-1.458 0-3.066.328-4.446.787-1.804.61-1.625 1.144-2.517 2.528-2.678 4.224-8.825 5.862-12.043 9.814-2.257 2.758-1.023 10.148-.798 13.78.13 2.114.77 4.48 1.82 6.39.834 1.516 3.254 3.405 3.195 5.152-1.226.157-4.446-1.98-5.055-2.953-1.046-1.666-.838-4.913-1.223-6.775-.413-2.005-1.132-3.907-1.862-5.79-.794-2.023-1.156-4.834-2.362-6.59.22 1.975.265 3.964-.138 5.89-.377 1.767-1.402 3.29-1.657 5.054-.3 2 0 4.297 0 6.333 0 1.25-.006 1.94.554 3.01.507.914 1.52 1.27 1.472 2.39-5.692-1.528-4.11-8.307-3.905-12.846.134-2.617-.076-5.22-.37-7.792-.237-2.03.048-6.057-.934-7.815-1.06-1.897-4.35-.714-6.19-.46-2.91.39-5.824.844-8.755.54-2.33-.23-4.613-1.115-6.533-2.47-1.675-1.166-3.41-3.863-5.198-4.425-.096 3.253-1.726 4.275-2.886 7.08-.994 2.388-1.552 5.578-2.023 8.03-1.264 6.54 2.095 11.24 4.497 16.836.432 1.018 1.347 2.5.893 3.505-1.982-.76-2.81-.695-3.75-2.92-.803-1.884-1.105-3.913-1.774-5.873-.623-1.814-1.218-3.838-1.853-5.744-.323-.937-1.358-5.62-2.873-3.92.636 1.294.58 3.23.803 4.66.264 1.708.798 3.396 1.28 5.04.42 1.443.79 3.04 1.296 4.47.477 1.328 1.59 2.862 1.46 4.293-5.272-1.167-5.9-10.862-6.826-14.78-.577-2.378-2.112-5.366-2.1-7.796 0-2.78 2.077-5.47 2.976-8.02 1.15-3.214.42-5.874-.882-8.838-1.105-2.504-1.717-6.217-3.418-8.298-.387 5.803 0 11.677 0 17.686 0 3.184.034 6.046.208 9.15.09 2.06.556 6.986-1.135 8.237-1.554-1.833-.248-6.77 0-8.985.344-3.12.54-5.85.232-8.964-.58-5.958-1.157-12.216-1.157-18.305 0-4.81 1.106-7.29 5.225-9.574 1.916-1.07 3.453-1.68 5.61-1.46M43.044 81.413c.66-1.105 1.397-2.875 2.206-5.306.702-2.1 1.4-3.557 2.1-4.363 1.03-1.222 2.537-1.828 4.525-1.828.59 0 1.18.425 1.768 1.28l1.712 2.56c.182.258 1.048.925 2.596 2-1.29.777-2.524 1.054-3.7.833-.663-.117-1.19-.238-1.573-.372-.39-.13-1.02-.256-1.903-.37l-1.547-.09c-.776.52-1.16 1.916-1.16 4.2 0 .882.836 2.743 2.51 5.573 1.676 2.837 2.515 5.12 2.515 6.847 0 2.174-.792 4.455-2.376 6.848-.59.845-1.877 2.43-3.865 4.747-.184.33-.275 1.027-.275 2.1 0 1.25.15 2.14.44 2.675.295.532.974 1.14 2.043 1.823 1.07.68 1.77 1.186 2.1 1.515-2.246.627-3.92.904-5.025.83-.218 0-.56-.044-1.02-.14-.462-.09-.82-.137-1.076-.137.367 0-.334.226-2.098.678-.63.033-1.51.168-2.65.39-.554.3-1.2.62-1.934.957 0-.075.185-.566.552-1.472.368-.906.554-1.64.554-2.194 0-.777-.24-1.502-.72-2.168-2.943 1.474-4.948 2.21-6.016 2.21-.994 0-1.968-.442-2.925-1.328l1.99-2.986c.696-1.03 1.19-1.93 1.488-2.705.59-1.473 1.382-4 2.376-7.573.734-2.614 1.506-4.663 2.318-6.136.55-1.03 1.552-2.533 3.005-4.503 1.457-1.97 2.477-3.437 3.067-4.394zm-1.437 28.136c.624.476 1.437.847 2.43 1.102l.496-.608v-.273c.037-.147.057-.35.057-.61 0-1.876-.35-2.944-1.052-3.203-.256 0-.717.19-1.378.553-.774.443-1.253.7-1.435.774.145.774.24 1.18.277 1.213.107.48.31.83.605 1.052zM215.758 94.276c-.495 2.07-2 4.153-2 4.153s-5.398.555-6.764-1.816l-1.724-2.982c1.418.09 3.288-.63 4.838-1.523.37-.216.74-.452 1.1-.704.357.025.74.065.985.142.936.283 2.608 1.02 3.565 2.728zm-6.814-3.662c-.053-1.458.888-2.53 1.575-2.82.72-.31 1.558-.452 2.635-.452.197 0 .38.018.574.025.014-.26-.012-.515-.143-.74-1.587-2.75-4.432-2.534-7.18-.95l-2.128-2.887-.547 1.888 1.985 1.444c-2.313 1.572-3.544 3.744-2.093 6.252.71 1.23 3.093.757 5.37-.382l-.05-1.378zm40.84-5.983c-2.197-3.097-6.618-4.175-8.314-1.678-1.185 1.744-.5 4.428 2.06 7.78 3.208 4.195 3.813 7.66 2.748 11.368-2.273 7.91-8.722 9.003-14.805 10.45-3.672 2.86-8.63 2.733-9.99 3.6-.584.373-2.07.342-2.37.144-.304-.197.58-.568.83-.718-.686.02-1.345.235-1.888.433.142-.573 1.122-1.87 1.635-1.838-.95-.91-3.695-.768-5.898-.108-.04-.757.28-1.39.915-1.717.715-.37 1.203-.544 2.62-.773.013-1.486-2.09-2.906-2.4-4.904-.688-4.425 1.948-5.084 2.367-7.93.878-5.984-3.67-7.72-4.827-8.072-.676-.207-2.06-.405-2.602-.09-.038-1.03.636-1.783 1.02-1.945 2.08-.89 5.07.148 5.79-.476.047-1.154.38-2.895.593-3.483.28-.78-2.607.546-4.11-.905-.51-.49-1.678-.8-1.693-1.77-.033-1.93 3.25-4.207 6.303-5.576-.063-.407-.033-3.268.997-2.823 1.03.443 1.737 1.533 1.737 1.533s1.25-4.29 2.227-3.558c.975.73 1.258 4.712 1.636 5.376.38.666 1.17.6 1.953 2.434 1.195 2.8-.414 3.518.738 5.544 2.158 3.797 9.05 10.563 8.54 18.773-.088 1.425-.337 2.646-.672 3.738.005 0 .01.005.012.005 3.974-11.022-3.458-17.85-6.005-25.022 1.09-4.31 3.584-8.168 8.196-9.62 6.786-2.132 14.26 3.208 12.655 11.83zm-31.946-5.765c-.25-.436-1.004-.472-1.68-.08-.676.39-1.02 1.06-.766 1.494.25.435 1.003.475 1.678.084.676-.39 1.02-1.06.768-1.5zm-1.812.143c-.43.247-.62.72-.43 1.05.19.334.695.4 1.126.154.43-.247.623-.716.43-1.05-.193-.334-.696-.405-1.126-.154zM371.698 60.367c-1.12.173-2.577-.23-3.558-.52-.408-.12-.794-.23-.95-.23l-.103.015-.104-.065c-1.402-1.015-2.197-2.664-2.368-4.896l-.02-.27.27-.015c1.78-.097 2.862-1.72 3.908-3.286.793-1.19 1.542-2.308 2.578-2.803l.088-.025c4.685-.48 7.316-4.372 8.037-11.893.215-2.222-.443-3.54-1.138-4.937-.32-.647-.656-1.316-.92-2.1l-.086-.26.264-.08c.28-.084.592-.286.92-.5.572-.368 1.218-.788 1.99-.788.213 0 .424.032.635.1-.14-.673-.712-1.174-1.272-1.663-.476-.418-.928-.812-1.13-1.31l-.06-.16.116-.123c.2-.215.48-1.897.493-2.69-.163.017-.533.24-.78.39-.27.165-.445.267-.59.298l-.487.107.18-.463c.104-.262-.004-1.265-.242-2.02-.27.11-.335.52-.366 1.254-.018.472-.032.845-.254 1.034l-.21.18-.138-.175-.152.002c-.428 0-1.006-.183-1.684-1.618l-.007-.016c-.017.522.05 1.497.18 2.55l.033.257-.256.04c-2.434.37-3.888 2.032-5.285 3.848-.43.558-.806 1.52-1.204 2.537-.97 2.478-2.18 5.564-5.12 5.564-.227.03-.495.045-.764.045-3.675 0-7.384-3.073-10.09-5.318-.66-.546-1.28-1.06-1.813-1.458l-.06-.06c-.194-.276-.407-.61-.634-.97-1.026-1.614-2.432-3.852-4.193-3.623-.434.057-.742.358-1.1.707-.384.376-.82.802-1.5.98-2.077.506-5.337 1.76-5.256 2.974.082 1.244 4.723 3.064 7.63 3.918l-.146.513c-.027-.01-2.768-.77-4.176-.77-.498 0-.6.097-.603.103 0 0 0 .204.653.764.325.278 1.342.662 2.42 1.068 1.723.65 3.673 1.384 4.323 2.214l.103.13-.062.19c-.03.062-.11.17-.308.17-.248 0-.836-.163-1.856-.45-1.187-.332-2.666-.75-3.292-.75.664.945 3.32 3.136 4.338 3.94l.06.066.57.915-.12.15c-.37.453 1.567 2.83 2.225 3.39l1.05.896-1.307-.44c-.015-.006-.027-.008-.037-.01 0 .058.004.14.01.198.004.067.008.132.008.197.71.633 1.008 1.327 1.295 1.997.202.468.39.912.715 1.348.81 1.088 2.292 1.517 3.86 1.972.872.255 1.784.52 2.632.92l.018-.16c2.274.245 5.624-2.443 6.934-4.407 1.71-2.67.91-4.91-.016-7.5-.118-.334-.24-.674-.358-1.018-.055-.157-.11-.317-.162-.48-.008-.028-.02-.058-.027-.088l.506-.16c.17.537.358 1.057.54 1.567.934 2.61 1.815 5.078-.038 7.972-1.288 1.932-4.298 4.406-6.72 4.642 1.097.66 2.015 1.627 2.463 3.223.096.485.262.87.436 1.28.302.706.615 1.434.515 2.578l-.006.09-.065.07c-.32.327-.967.454-1.656.585-.377.075-.806.157-1.135.276.46-.04.956-.143 1.437-.24h.022c.65-.136 1.33-.27 1.94-.27.58 0 1.042.12 1.414.374l.197.132-.11.21c-.102.198-.235.347-.364.493-.084.094-.166.18-.23.278.25-.022.477-.132.737-.256.314-.15.67-.32 1.114-.34.055 0 .112-.003.164-.003.96 0 1.892.366 2.715.686.685.268 1.333.52 1.878.523-.08-.143-.127-.297-.116-.426.016-.174.135-.37.422-.404.21-.042.677-.04 1.228-.02.267.008.55.018.833.018.43 0 .98-.018 1.392-.142-.065-.023-.133-.048-.203-.07-.292-.098-.623-.206-.813-.506m3.424-33.722c-.362 0-.655-.294-.655-.656 0-.362.294-.654.656-.654.362 0 .655.292.655.654 0 .362-.292.656-.654.656M114.45 133.845c1.365.413 3.3 1.206 5.81 2.373 2.508 1.165 4.398 1.956 5.668 2.37.382.13.808.193 1.285.193.444 0 1.105-.063 1.978-.19.872-.13 1.532-.192 1.976-.192 1.4 0 2.62.575 3.668 1.715.892.953 1.566 1.604 2.024 1.953.46.348 1.437.788 2.93 1.31 1.49.524 2.602 1.04 3.335 1.548-.037.16-.037.35 0 .572-.032.73-.357 1.372-.976 1.93-.62.552-1.295.832-2.024.832-.733 0-1.81-.39-3.24-1.168-1.43-.777-2.304-1.166-2.62-1.166-.285.16-.84.252-1.666.288-.096-.036-.573.188-1.43.662-1.24.704-3.018 1.305-5.336 1.814-.25.064.526.588 2.337 1.57l-.904.572c0 .065.11.224.33.477.224.253.335.413.335.474-.254-.045-.57-.25-1.046-.568-.097-.065-.207-.065-.335 0-.19.095-.316.142-.38.142-.16.637-.225.968-.192 1-.033 0-.093-.166-.19-.5-.095-.334-.175-.485-.238-.45-.19.064-.46.156-.81.284l-.333.855c-.287-.95-.508-1.427-.67-1.427-.127 0-.29.128-.498.38-.206.256-.357.38-.45.38-.034 0-.105-.164-.216-.498-.11-.335-.197-.5-.262-.5-.636 0-1.58-.15-2.833-.45-1.256-.304-2.184-.455-2.785-.455-.32 0-.843.096-1.573.285-.826.224-1.43.366-1.81.43-4.606.79-8.62 1.19-12.05 1.19-1.08 0-1.922-.062-2.523-.19-.034.25.013.582.138.99.124.406.187.673.187.8.063.5.03.972-.094 1.414l-.617-.773-.946.193-.14 1.23c-.066.06-.302-.32-.71-1.14l-.617.09-.332 1.05c-.064-.366-.235-.78-.52-1.236-.064-.03-.19.15-.378.544-.188.396-.35.623-.475.693 0-.163-.014-.34-.045-.532.06-.45.03-.676-.096-.676-.315 0-.488-.193-.52-.576-.064-.61-.126-.997-.19-1.158-.19-.418-1.13-.9-2.814-1.446-.86-.29-2.812-.565-5.865-.82-1.97-.13-5.5-.43-10.586-.908-1.59-.19-2.814-.508-3.673-.953-1.047-.54-1.525-1.366-1.427-2.48.062-.764.856-1.206 2.38-1.333h9.763c.253 0 .62.06 1.098.185.476.123.84.187 1.095.187 1.426 0 3.047-.827 4.856-2.478 1.11-1.08 2.794-2.668 5.05-4.76 2.032-1.873 3.857-2.987 5.478-3.336 3.62-.793 6.697-1.27 9.238-1.427 2.16-.127 4.32.147 6.478.815zM211.185 163.64c4.183-7.82 16.912-16.093 16.912-16.093l2.09-4.183 1.456 4.456 2.183-4.456.455 6.184c2.365 2.18 2.002 5.092 2.002 5.092l1.91 3.18c1.91 3.546 1.545 5.82 1.545 5.82-3.18 2.912-5.456-.362-5.456-.362-2-.91-3.364-3-3.364-3-3.82-.183-3.82 5.275-3.82 5.275l-.728 15.548s-.323-3.42.084-.365c.03.21.065.45.1.73.542 4.27-4.003 10.455-4.003 10.455-.91 4.545-3.09 12.91-3.09 12.91-.544 3.092.182 8.91.182 8.91 1.818 1.186 2.727 4.637 2.727 4.637.183 1.457-1.91.91-1.91.91 1.457.817-.092 1.634-.092 1.634h-4.546c-2-.09-.725-3-.725-3-1-1.635.363-4 .363-4l-.18-6.546c-1.455-1.545-1.09-9.095-1.09-9.095-2.093-3.636-.91-9.002-.91-9.002-6.275 2.185-15.458.274-15.458.274-.726 3.64-5.363 7.912-5.363 7.912-2.91 3.09 2.726 8.18 2.726 8.18 3 .727 3.454 5.28 3.454 5.28 3.91 3.632-.91 3.452-.91 3.452-5.09 0-3.726-2.455-3.726-2.455-.275-1.183 1.363-1.91 1.363-1.91-1-.91-.728-2.273-.728-2.273-1.456-.457-7.456-6.094-7.456-6.094-3.365-2.365 1.456-7 1.456-7 1.18-4.73-1.64-4.276-1.64-4.276-1.543 4.183-8.455 5.638-8.455 5.638-1.364.273-3 4-3 4-1.362 11.456-.57 11.22 1.82 13.728 3.49 3.68-2 4.003-2 4.003-5.637 0-2.728-3.91-2.728-3.91.998-1.456.635-2.183.635-2.183-1.997-2.092-.727-12.183-.727-12.183-1-5.82 3.274-7.094 3.274-7.094 4.91-2.182 3.727-6.092 3.727-6.092-3.093-6.184-.728-10.55-.728-10.55-2.366 1.456-1.636 4.456-1.636 4.456-3.82 14.184-12.184 11.455-12.184 11.455 5.455-1.817 6-12.185 6-12.185 2.91-12.728 11.822-9.82 11.822-9.82 6.184-3.09 12.91-.363 12.91-.363 10.908 1.284 15.453-5.627 15.453-5.627" id="path" fill="#9B9B9B" mask="url(#b)"/>
                <path d="M403.786 177.19l-.193-.578c-1.03-2.702-2.252-4.438-3.667-5.21-.9-.643-2.445-1.158-4.63-1.544-1.03-.13-1.802-.258-2.317-.386-.13-.13-.323-.258-.58-.386-1.8-1.415-5.95-3.12-12.447-5.114-6.497-1.994-11.096-4.278-13.797-6.85-11.193-10.035-21.228-21.742-30.105-35.122l-12.54 10.035-.677.482c-.45.322-.772.58-.965.772-.193.192-.387.513-.58.964-.192.45-.288.998-.288 1.64 0 1.16.9 1.48 2.7.966l7.142-2.316 19.875 27.595v18.525c0 .77.225 1.64.676 2.605.45.965 1.19 1.768 2.22 2.412l-7.527 31.26h5.018l4.63-14.858 4.825-7.333v22.193h5.79v-24.7c0-.386.063-.868.19-1.448.13-.578.612-1.318 1.45-2.22.834-.9 1.993-1.35 3.473-1.35 1.478 0 2.605.42 3.376 1.255.772.836 1.22 1.64 1.35 2.412l.193 1.35v24.7h3.86V197.07l11 19.875h5.017c-.773-2.187-1.995-4.502-3.667-6.947-1.673-2.443-2.51-5.016-2.51-7.718v-5.018c0-1.8.997-4.34 2.993-7.622 1.993-3.28 2.99-5.757 2.99-7.43v-5.017c0-1.157-.128-2.25-.385-3.28 1.03.258 1.8.515 2.316.772.645.386 1.288 1.544 1.93 3.474l.193.58c.514 1.157 1.38 1.51 2.604 1.06 1.224-.45 1.577-1.318 1.062-2.605" fill="#9B9B9B" mask="url(#b)"/>
                <path d="M291.227 184.266l-7.98-7.68s-1.043-2.073.276-4.866c1.32-2.793 2.277-7.17 3.842-10.124.798-1.508 1.84-2.07 4.207-3.6 2.367-1.53 2.314-1.135 2.314-1.135s-.038-4.964-.038-5.656c0-.727-1.656-2.27-1.656-3.607 0-1.014 1.387-3.355 2.867-3.68 2.457-.54 3.91-.635 5.437.907 1.526 1.542 1.59 4.49 1.38 6.38-.168 1.494-1.38 4.008-1.38 4.832.73.825 3.26.807 5.87 2.11 2.61 1.303 5.773 8.325 8.158 12.99 2.384 4.662 8.442 16.206 8.442 16.206l2.965 1.87s2.443 5.462 1.22 5.462c-1.22 0-3.486-1.827-3.486-1.827l-.63 1.206-1.242-2.013-.59-3.28s-11.19-12.75-12.186-15.187c-1.034.71-1.744 5.01-1.744 5.745 0 .736 3.872 8.104 3.872 10.816 0 2.713 1.103 49.135 1.103 49.135l-3.035-.23-3.054 5.167s-4.284 2.172-4.284-1.498l.837-1.756-9.87.017s-3.615 1.5-4.414 2.368c-.8.87-5.182 3.582-5.182 3.582s-3.458.736-2.128-2.607l3.517-3.572 1.162-23.77s-.2-2.41 1.565-6.905c1.764-4.496 2.246-11.24 3.862-15.045v-10.754z" fill="#417986" mask="url(#b)"/>
                <path d="M246.547 159.998s-2.55-1.094-3.648-3.524c-1.082-2.388-2.377-1.232-2.377-3.916 0-2.346.91-5.558 5.4-5.558s4.23 4.267 4.23 4.267l1.904 7.327s6.102.31 7.683.31c3.79 0 8.54 8.906 9.87 10.287 2.46 2.552.555 16.515-.753 18.945-1.308 2.43 3.883 21.082 3.883 21.082l4.427 26.028 1.665 10.673s6.426.99 5.38 2.987c-1.047 1.997-11.922-.32-11.922-.32l-.22-2.43-2.973-.453-3.026-25.598s-3.41-6-4.644-8.183c-.632-1.116-7.163-1.794-7.163-1.794l-4.006 5.59.116 18.767s-1.508 7.95-.754 10.494c.753 0 .826 1.667-.23 2.637-1.06.97-7.056 3.77-7.056 3.77s-4.616.817-1.81-2.564c1.672-2.016 3.38-3.55 3.38-3.55l.45-10.533s-3.53-2.232-1.78-3.957c0 0 1.193-15.242 1.308-17.785.116-2.543 6.49-12.435 6.49-17.475 0-5.04-1.6-7.856-1.6-7.856s-3.35-.17-4.774-3.042c-1.424-2.873-6.176-10.598-6.176-10.598s-1.34-4.418.68-6.556c2.02-2.14 8.045-7.47 8.045-7.47zM170.135 130.274s-1.466-5.898 5.695-7.122c6.223-1.063 4.594 7.405 3.58 8.722-.448.58-1.822 1.627-1.822 1.627l2.747 1.33s5.627 10.59 8.8 10.59c3.17 0 9.87-1.698 6.603 2.772-.86 1.177-4.58 1.102-4.58 1.102s-2.82 17.643-5.893 18.65c0 0 .908 15.127-2.77 21.548l-4.416 15.38-4.952-1.024s.424-12.457-4.833-13.23c-3.088-.456-5.343.773-5.343.773l-3.03 4.044-3.69-.964v-4.978s-4.614-1.955-5.534-8.408c-1.415 0-5.213-1.06-5.213-1.06s3.28-11.803 6.83-15.2c3.55-3.396 8.82-6.91 8.82-8.725 0-1.816-1.214-6.338-1.214-6.338s-7.14-3.886-9.222-10.104c-1.144-3.418-4.045-6.613-4.045-6.613s-9.365-5.093 0-4.13c0-.963.618-1.016.618-1.016l1.624 2.544s.37 3.642 2.99 4.385c4.173 1.18 9.252-.692 14.194-.692 6.256 0 4.057-3.864 4.057-3.864z" fill="#417986" mask="url(#b)"/>
                <path d="M-18.15 42.91s-4.835.608-5.418.783c-1.11 2.963-4.384 2.21-5.445 3.63-1.67 2.24-4.74 2.998-9.522 1.696-.484.702-5.307 4.408-6.68 4.855-1.374.448 2.84-2.863 2.84-2.863s-2.02 1.403-3.39 1.767c-1.368.36 3.685-3.45 3.685-3.45s-2.195.914-3.383.99c-1.19.074 2.296-2.15 2.296-2.15s-1.075.083-1.48.083c-.41 0-.588-.332.87-.99 1.455-.66 4.535-2.17 7.377-2.714.19-.99-4.95-8.69-4.664-9.327.288-.64 2.907-.416 6.644 3.896.35-.64-.706-10.126.126-9.265.832.865 4.38 7.955 4.76 13.384.608.128 1.737-.833 2.97-1.406 2.22-1.034 3.185.837 3.185.837l5.23.24z" fill="#9B9B9B" mask="url(#b)"/>
            </g>
            <path d="M240.513 314.777c3.76-8.84 1.377-25.318-14.372-25.33-10.38-.01-19.497 15.326-8.816 21.364-12.845 2.15-17.38-15.886-15.67-23.375 4.11-17.994 18.852-27.303 31.933-32.805 36.16-15.21 72.676-5.407 90.448 27.77 12.5 23.333 6.41 62.237-12.707 86.24-18.795 24.366-115.504 71.176-203.867 0 92.878-1.422 121.416-26.518 133.053-53.863z" fill="#29657D"/>
            <path d="M238.38 291.865c1.915 3 3.546 5.903 3.585 9.54.01.888.006 1.853-.166 2.74.4 3.788-.13 7.635-1.287 10.632-.323.836-.683 1.652-1.064 2.457 4.35.33 2.876 6.376.91 8.57-.097.11-.204.214-.305.32.735-.46 1.424-.995 2.04-1.58 3.424-3.255 5.252-7.504 6.925-11.833.664-1.715 2.662-2.43 4.102-1.08 4.902 4.592 1.636 12.705-1.997 17.095 1.137-.476 2.214-1.005 3.207-1.577 7.87-4.528 12.857-12.623 14.454-21.45.384-2.122 3.52-2.35 4.484-.586 3.81 6.965-1.504 15.218-6.334 20.188-3.23 3.325-7.173 5.888-11.41 7.744-.43.188-.866.356-1.304.513.227-.03.45-.064.67-.097 3.066-.47 6.35-1.106 9.32-2.3 2.53-1.332 4.864-2.95 7.017-4.902 2.47-2.737 4.363-6.083 6.316-9.12 3.285-5.107 6.418-9.67 7.817-15.69.593-2.55 4.215-2.153 4.75.1.58-1.523 1.165-3.044 1.873-4.512.873-1.81 4.183-1.502 4.485.586.046.313.078.624.102.933.1-.223.2-.446.303-.67.427-.937 1.5-1.3 2.49-1.16 1.06-1.884 2.308-3.63 3.675-5.305 3.11-3.815 6.156-7.615 9.158-11.515 1.82-2.366 3.83-4.637 5.905-6.827-4.64-6.18-10.076-11.248-16.108-15.19.972 1.236-.144 3.12-1.75 2.7-1.58-.414-2.915-1.42-4.2-2.532-.884-.512-1.775-1.016-2.67-1.51.25 1.117-.89 2.49-2.128 2.058-1.657-.577-2.946-1.722-4.49-2.48.59.414 1.172.862 1.744 1.352 1.396 1.196-.127 3.124-1.645 2.83-2.612-.51-4.842-2.458-7.232-3.555-.364-.166-.733-.317-1.104-.46.533.45 1.063.916 1.605 1.377.642.402 1.246.867 1.788 1.44.165.173.277.367.347.57 1.447 1.15 2.66 2.555 3.063 4.426.46 2.128-2.803 3.033-3.263.9-.453-2.1-2.878-3.71-4.794-4.424-.61-.23-1.197-.508-1.775-.806 1.17 1.235 2.19 2.566 3.003 3.783 1.23 1.837-1.668 3.448-2.922 1.708-.986-1.37-2.48-2.31-4.02-3.05.446 1.3-.805 2.83-2.386 2.028-1.43-.726-2.903-1.37-4.415-1.807.933.704 1.836 1.46 2.71 2.266 1.407 1.298-.44 3.722-2.05 2.658-1.098-.725-2.67-1.834-4.322-2.634 1.192.923 2.33 1.912 3.367 3.023.18.183.356.37.526.565 1.42 1.64-.954 4.042-2.393 2.393-.14-.16-.288-.31-.43-.465-.303-.307-.618-.59-.946-.85.08.747-.407 1.428-1.088 1.7.756 1.08 1.36 2.28 1.752 3.637.492 1.7-1.61 2.74-2.83 1.646-.566-.51-1.164-1.012-1.787-1.49-.282.806-1.173 1.425-2.07 1.146-.73-.227-1.463-.42-2.198-.586.404.332.79.693 1.152 1.087 1.083 1.18.044 3.393-1.647 2.83-1.005-.337-2.01-.67-3.026-.95 1.107.544 2.178 1.168 3.196 1.894 1.45 1.033.608 3.834-1.304 3.093-2.28-.885-4.54-1.62-6.807-2.14.12.088.242.17.36.26 1.904 1.467 3.52 3.37 5.047 5.215 1.254 1.512 2.5 3.008 2.844 4.997.366 2.122-2.598 3.013-3.263.9-.653-2.075-2.298-3.473-3.79-4.967-1.483-1.487-3.188-3.41-5.325-3.9-.62-.143-1.245-.203-1.875-.227 2.275 1.156 4.38 2.668 6.238 4.4 1.384 1.292-.498 3.825-2.05 2.66-3.797-2.854-8.08-5.66-12.988-6.015-.53-.04-1.05-.052-1.563-.045.66.233 1.314.503 1.986.797 3.417 1.497 6.174 3.35 8.204 6.53" fill="#507D8D"/>
            <path d="M259.392 246.84l-.137-.144c-.514-.542-1.343-.738-2.054-.543-.422.117-.783.366-1.053.692-.458-.346-1.052-.56-1.785-.56-1.235 0-2.08.603-2.535 1.43-.67.062-1.184.356-1.536.773-.37-.383-.902-.633-1.595-.633-1.144 0-1.847.68-2.116 1.516-.454-.404-1.07-.664-1.853-.664-.97 0-1.686.395-2.15.977-.198-.08-.426-.128-.683-.128-.95 0-1.495.62-1.646 1.34-.77-.908-1.912-1.492-3.172-1.492-2.077 0-3.835 1.585-4.123 3.592-.302-.073-.626-.115-.978-.115-1.818 0-2.96 1.044-3.433 2.358-.084-.003-.164-.013-.25-.013-2.262 0-3.654 1.343-4.184 3-.996-.86-2.34-1.4-4.034-1.4-4.897 0-6.88 4.516-5.95 8.176-.796.686-1.35 1.648-1.498 2.725-.468-.2-1.006-.315-1.62-.315-3.423 0-4.582 3.507-3.48 5.886-.155-.023-.316-.04-.488-.04-1.85 0-2.808 1.38-2.88 2.812-1.236.146-1.92 1.084-2.038 2.11-1.907.244-2.548 2.294-1.92 3.753-1.187.386-2.065 1.512-2.065 2.813 0 1.603 1.33 2.94 2.932 2.954-.635.532-1.043 1.327-1.043 2.204 0 .717.278 1.372.724 1.88-.61 1.11-.454 2.66.47 3.546.015.33.06.663.142.99l.01.042c.14.492.357.937.64 1.345-.754 1.204-1.173 2.606-1.173 4.043 0 2.012.81 3.964 2.23 5.386 1.05 1.05 2.39 1.76 3.83 2.06-.097.186-.154.392-.154.626 0 .635.436 1.207 1.047 1.376.617.17 1.288-.104 1.61-.656.044-.073.078-.152.107-.235.695.855 1.76 1.434 3.2 1.434.415 0 .798-.05 1.152-.14.273.24.64.4 1.113.4.214 0 .402-.04.575-.097.14.197.316.366.53.478.55.29 1.09.35 1.658.052l.1-.052c.39-.206.686-.623.8-1.042.15-.544.025-1.324-.447-1.695l-.024-.017-.06-.044c.035-.152.06-.307.06-.467 0-.85-.538-1.59-1.285-1.9-.045-1.11-.457-2.2-1.236-2.98.275-.795.43-1.635.43-2.487 0-2.013-.81-3.965-2.232-5.387l-.07-.065c.158-.125.31-.256.452-.4 1-.998 1.568-2.37 1.568-3.784 0-.327-.034-.652-.093-.97l.662-.09c.46-.13.86-.362 1.2-.7.96-.793 1.136-2.47.394-3.453-.157-.266-.355-.49-.59-.68.088-.077.178-.153.26-.236.67-.668 1.193-1.46 1.557-2.32.25.127.545.205.89.205 1.726 0 2.27-1.83 1.635-2.985 2.168-.72 3.195-2.867 3.082-4.942.707-.176 1.326-.592 1.765-1.153.578.84 1.534 1.428 2.87 1.428 2.362 0 3.538-1.836 3.53-3.667.053.002.1.008.154.008 1.718 0 2.927-.787 3.634-1.895.286.09.59.138.9.138 1.593 0 2.93-1.27 3.047-2.835.544-.064 1.015-.232 1.41-.477.353.143.755.226 1.21.226 2.547 0 3.458-2.522 2.747-4.342 1.596-.63 1.558-3.204-.103-3.752.85-.136 1.37-.727 1.566-1.424.536-.2.907-.598 1.12-1.073.19.052.395.082.62.082.93 0 1.548-.47 1.872-1.102 1.894-.37 2.747-2.153 2.57-3.805.206.04.426.063.66.063 1.523 0 2.45-.918 2.79-2.04.024-.03.037-.07.058-.103.714.19 1.524.014 2.045-.535l.137-.146c.73-.768.73-1.924 0-2.693" fill="#FFF"/>
            <path d="M290.062 349.47c11.93-5.615 30.438-14.972 33.835-33.225 2.74-14.725-10.006-21.25-17.682-21.015-3.788.116-15.303-.284-12.468 11.618-5.28.977-8.074-6.884-6.868-11.336 1.42-5.245 8.075-14.453 18.49-16.365 13.775-2.53 32.933 4.43 40.047 18.578 9.59 19.074 4 41.342-2.698 51.746-12.068 18.74-58.01 95.58-185.85 10.892 44.632 7.66 110.058 0 133.192-10.89z" id="Fill-84" fill="#78B1BE"/>
            <path d="M345.417 297.725c-3.05-6.067-8.318-10.807-14.424-14.05-1.377-.548-2.784-.998-4.22-1.34 2.29 1.005 4.398 2.442 6.39 4.015 1.12.885-.32 2.636-1.496 1.938-1.152-.684-2.352-1.5-3.585-2.245.08.85-.745 1.663-1.8 1.182-1.518-.693-2.955-1.545-4.412-2.35-.227-.08-.456-.155-.686-.225.908.544 1.776 1.17 2.627 1.913 1.05.915-.36 2.766-1.494 1.937-.666-.486-1.352-.915-2.05-1.31-.204 0-.403-.05-.57-.177-.858-.655-1.864-1.012-2.846-1.425l-2.982-.5c.508.18 1.012.38 1.506.6 1.523.523 2.94 1.31 4.045 2.433.465.475.456 1.015.205 1.423.566.533 1.085 1.127 1.545 1.803.72 1.06-.663 2.273-1.688 1.688-.403-.23-.79-.477-1.17-.727-.1.794-1.053 1.54-1.876 1.01-1.34-.86-2.773-1.54-4.265-2.023.213.824-.59 1.756-1.532 1.51-.635-.165-1.277-.27-1.923-.342-.176.107-.393.173-.654.174-6.48.034-15.85 1.627-14.72 10.007.575-7.59 9.603-7.313 12.875-7.413 7.676-.235 20.44 6.29 17.682 21.015-1.026 5.476-3.767 10.56-7.65 15.163.513-.5.966-1.06 1.31-1.464 1.116-1.3 2.13-2.678 3.108-4.086.798-1.15 1.725-2.28 2.455-3.47 1.224-1.997 1.895-4.208 2.738-6.377.488-1.252 2.4-1.138 2.423.33.01.593-.027 1.16-.103 1.707.637-1.547 1.145-3.167 1.506-4.87.293-1.38 2.438-1.044 2.424.328-.04 3.655-.782 6.94-2.022 10.044 2.668-5.243 3.514-11.727 3.644-17.374-.106-.224-.145-.49-.08-.79.033-.15.065-.306.097-.462v-.06c.002-.22.052-.404.132-.562.29-1.31.714-2.694 1.87-3.42 1.7-1.063 3.983-.818 5.77-.082 2.13.875 4.503 2.717 6.947 3.9-.836-2.253-1.845-4.578-3.05-6.975" id="Fill-85" fill="#92C0CB"/>
            <path d="M320.384 347.088c7.258-5.668 15.02-19.107 12.947-29.42-.907-4.513-5.4-12.482-16.25-9.218-2.9.872-4.915 3.923-3.745 8.377-7.97-4.737-2.303-15.222 3.08-17.772 10.794-5.112 25.43-2.546 31.74 4.25 9.913 10.678 10.29 32.63 4.335 45.034-16.973 35.35-69.512 43.52-89.63 43.52-31.02 0-79.013-18.252-106.267-30.604 119.3 18.136 143.105 1.984 163.79-14.168z" id="Fill-98" fill="#AFD0D8"/>
            <path d="M354.643 328.89c1.24-3.83-1.814-15.438-8.67-13.658-2.5.65-6.638 6.11-5.662 9.83-6.652-3.956-.572-15.562 3.923-17.69 9.01-4.27 16.692.96 21.96 6.632 8.275 8.913 5.905 21.032 2.25 27.24-4.362 7.412-8.31 25.258-49.54 34.46-23.826 5.316-57.706 1.11-80.458-9.202 90.552 8.94 112.814-27.154 116.198-37.612z" id="Fill-98" fill="#29657D"/>
            <path d="M290.563 268.045c-.04 0-.074.007-.11.01-.153-.24-.425-.422-.828-.448-1.056-.07-1.373 1.023-.853 1.584-.073.018-.142.04-.207.067-.25-.312-.647-.538-1.204-.574-.627-.04-1.085.184-1.37.525-.13-.026-.267-.046-.413-.055-1.265-.082-2.08.54-2.423 1.348l-.028-.01c-.126-.163-.286-.29-.518-.357-.29-.084-.523-.02-.788.096l-.06.038c-.387-.317-.87-.518-1.398-.518-.858 0-1.606.507-1.983 1.228-.243.128-.463.28-.658.478-.416-.34-.945-.548-1.516-.548-.725 0-1.383.335-1.827.855-.34-.152-.712-.24-1.103-.24-1.49 0-2.734 1.245-2.734 2.735 0 .068.005.135.01.202l-.016.005c-.095-.26-.273-.49-.53-.64-.584-.342-1.356-.137-1.697.445-.2.342-.2.782-.046 1.147-.103.06-.2.127-.296.195-.104-.042-.222-.07-.36-.07-.417 0-.68.234-.8.53-.387.04-.724.315-.83.695-.116.426.077.848.44 1.08l.06.04.01.003c-.014.092-.027.185-.034.28-.002.053 0 .106 0 .16-.175-.03-.355-.056-.547-.068-2.304-.15-3.664 1.183-4.015 2.735h-.02c-.264.02-.53.024-.79.058-.277.036-.518.08-.753.15-.383.04-.754.202-1.047.515-.326.346-.595.832-.548 1.328l.013-.096c-.014.285.033.564.142.822-.06.064-.117.132-.17.203-1.104.266-1.197 1.794-.125 2.19l.01.02c-.018.18.003.362.062.53-.33-.324-.823-.633-1.337-.613-.162.01-.324.017-.486.026-.313.057-.59.178-.83.363-.485.38-.705.975-.57 1.543.058.24.177.454.336.637-.308.12-.595.3-.834.55-1.324 1.383-1.602 3.748-1.158 5.55.103.42.318.785.606 1.08-.004.042-.014.084-.014.128 0 .653.364 1.227.893 1.545-.248.346-.39.726-.42 1.14l.007.09.003.056c-.025.21-.005.415.055.613.094.384.286.724.577 1.02.297.3.577.45.96.6-.027.12-.046.242-.046.37 0 .656.402 1.23.97 1.49.104.754.684 1.446 1.783 1.518 2.126.14 2.634-2.264 1.28-3.178.827-.375 1.417-1.204 1.417-2.158 0-1.09-.766-2.023-1.78-2.293.23-.403.297-.895.216-1.357.778-.307 1.128-1.12 1.056-1.89.926-.268 1.206-1.31.772-2.017.47-.464.774-1.064.817-1.728.018-.26-.012-.516-.073-.762.18.063.37.103.563.103.45 0 .887-.182 1.205-.5.287-.287.41-.617.47-.992.322.21.7.328 1.09.328.562 0 1-.23 1.413-.585.735-.63.773-1.735.515-2.592-.01-.03-.023-.056-.033-.084.7-.492 1.16-1.2 1.355-1.975h.018l.536.036c.695.046 1.32-.323 1.585-.863.767-.185 1.45-.57 1.967-1.09.518.112 1.112.01 1.527-.288.41-.172.734-.542.876-.915.084-.217.11-.445.09-.67.19-.136.352-.298.49-.476.517.488 1.227.818 2.02.87.38.024.748-.02 1.096-.114.177.436.592.792 1.268.836 1.5.097 1.94-1.466 1.174-2.248.21.09.432.156.65.19.574.084.713.077 1.295 0 .393-.054.76-.335 1.047-.585.47-.412.627-1.074.526-1.68.666-.263 1.148-.913 1.148-1.662 0-.23-.047-.447-.128-.65.776-.366 1.202-1.102 1.248-1.865.104-.034.2-.077.287-.128.225.213.543.362.964.39 1.267.08 1.775-1.024 1.44-1.84 1.245-.01 1.243-1.942-.007-1.942" id="Fill-118" fill="#E1F9F9"/>
            <path d="M299.558 265.748l-.098-.107c-.373-.396-1.002-.572-1.558-.473-.33.058-.62.21-.844.42-.338-.26-.786-.436-1.35-.472-.952-.062-1.63.31-2.018.852-.52.01-.927.185-1.218.453-.27-.28-.668-.48-1.202-.513-.88-.058-1.453.373-1.698.932-.33-.3-.792-.51-1.398-.55-.747-.048-1.316.188-1.7.562-.148-.065-.322-.108-.52-.12-.696-.046-1.13.312-1.3.764l-.074.02c-.553-.632-1.387-1.07-2.332-1.13-1.6-.105-3.025.893-3.337 2.253-.23-.065-.475-.11-.748-.128h-.003c-.154-.682-.77-1.205-1.493-1.205-.696 0-1.29.487-1.47 1.132-.16-.052-.34-.083-.538-.083-.665 0-1.124.313-1.387.747-.174-.193-.37-.37-.6-.504-.413-.24-.857-.36-1.335-.36-.747 0-1.316.305-1.87.773l-.03.026c-.323.323-.545.705-.67 1.145-.035.134-.06.28-.076.43-3.01-.14-4.685 1.802-4.9 3.895-.094-.016-.188-.03-.29-.03-.67 0-1.117.344-1.348.802-.402-.245-.868-.392-1.365-.392-1.46 0-2.675 1.216-2.675 2.673 0 .126.012.248.03.37-.064-.005-.127-.01-.19-.01-1.586 0-2.908 1.322-2.908 2.907 0 .714.27 1.372.71 1.883-.026.096-.05.193-.062.29-.96.04-1.527.648-1.665 1.344-1.48.073-2.065 1.445-1.647 2.476-.932.204-1.658.93-1.716 1.823-.003.058 0 .115 0 .172-.062.01-.127.022-.19.04-.598.164-1.205.69-1.326 1.325l-.006.036c-.128.673-.02 1.325.484 1.828.17.17.364.3.58.393-.225.262-.34.618-.24.983.043.16.124.296.226.41-.478.39-.793.973-.793 1.625 0 .486.18.932.465 1.29-.645 1.316-.037 3.282 1.823 3.367-.756.693-.595 2.187.477 2.545-.03.25.095.524.382.583-.405.428-.226 1.334.54 1.334.23 0 .405-.084.53-.21l.02.017c-.28.637.03 1.555.937 1.555.168 0 .314-.034.44-.09.032.33.264.603.615.603.347 0 .63-.306.615-.643.028.008.056.018.085.025-.083.122-.136.26-.146.42-.028.436.28.85.745.995.262.083.543.068.788-.023.012.454.31.9.895.9.43 0 .703-.242.823-.55.363.155.78.26 1.258.29.32.022.618.007.894-.037.2.18.477.307.84.33.166.012.312-.007.45-.037.096.142.226.266.384.354.413.226.826.295 1.277.12.025-.012.05-.022.08-.032.308-.12.554-.392.662-.673.14-.366.077-.906-.27-1.185l-.017-.013-.044-.033c.035-.1.06-.205.068-.315.024-.358-.114-.696-.353-.962.01-.148-.017-.3-.1-.44l-.017-.022c.19-.27.3-.614.3-.907 0-.593-.404-1.235-.993-1.417-.13-.053-.265-.09-.404-.106.155-.417.254-.852.282-1.297.09-1.38-.446-2.757-1.48-3.802l-.05-.047c.127-.077.25-.16.367-.25.813-.635 1.312-1.547 1.375-2.515.015-.225.003-.45-.028-.67.17-.01.343-.02.515-.028.36-.066.68-.205.956-.42.775-.495.986-1.636.457-2.346-.11-.19-.25-.353-.423-.494.07-.05.142-.097.21-.15.406-.316.752-.683 1.034-1.085.162-.11.316-.227.46-.35.146.054.302.096.485.108 1.332.087 1.83-1.14 1.395-1.964 1.702-.384 2.59-1.804 2.594-3.23.552-.086 1.048-.34 1.41-.704.41.606 1.12 1.056 2.148 1.123 1.82.117 2.81-1.08 2.885-2.336.04.003.077.01.118.013 1.325.086 2.293-.393 2.886-1.116.217.077.447.126.688.14 1.227.08 2.314-.722 2.474-1.788.42-.017.79-.11 1.108-.257.264.115.57.193.92.216 1.963.128 2.778-1.554 2.31-2.837 1.26-.35 1.345-2.116.088-2.575.662-.05 1.09-.43 1.27-.897.423-.11.727-.363.912-.68.143.047.3.078.475.09.715.045 1.213-.247 1.49-.663 1.477-.158 2.214-1.337 2.15-2.478.16.037.327.064.507.076 1.174.075 1.93-.507 2.24-1.26l.05-.066c.543.166 1.174.086 1.6-.264l.112-.093c.595-.49.646-1.282.118-1.845" id="Fill-119" fill="#FFF"/>
            <path d="M311.037 278.292c-.105 0-.208.055-.278.136-.092-.12-.234-.204-.432-.204-.156 0-.277.054-.367.136-.105-.08-.24-.128-.41-.128-.047-.037-.093-.075-.142-.11-.266-.155-.554-.233-.862-.234-.325-.04-.618.11-.9.24-.196-.166-.44-.274-.718-.274-.354 0-.668.173-.88.43-.052.02-.11.03-.157.052-.176-.1-.376-.16-.59-.16-.46 0-.867.258-1.085.635-.084-.016-.168-.028-.254-.04-.116-.072-.257-.12-.433-.12-.19 0-.342.054-.466.138-.606.093-1.164.35-1.623.727-.114-.048-.24-.08-.39-.08-.398 0-.667.197-.815.464-.024-.002-.046-.005-.07-.005-.857 0-1.457.4-1.802.956-.415-.23-.885-.367-1.386-.367-1.14 0-2.142.685-2.618 1.658-.664.096-1.25.457-1.643.972-.23-.043-.473-.068-.733-.068-2.275 0-3.416 1.756-3.425 3.52-.976.397-1.68 1.36-1.68 2.465 0 .222.032.437.086.645-1.095.61-1.85 1.78-1.85 3.102 0 .486.103.952.286 1.377-1 1.52-.827 3.802.528 5.05-.026.04-.055.078-.08.12-.25.43-.374.893-.376 1.39l-.003.04c-.074.94.576 1.91 1.36 2.368.18.105.367.183.56.244.114.098.256.166.413.182-.016.082-.03.165-.03.252 0 .748.593 1.372 1.327 1.437-.016.086-.027.173-.027.263 0 .815.68 1.495 1.494 1.495.17 0 .332-.035.485-.09.378.724 1.13 1.232 1.99 1.232 1.23 0 2.256-1.026 2.256-2.255 0-1.228-1.026-2.254-2.255-2.254l-.058.005c-.022-.216-.117-.422-.288-.56.023-.35-.165-.72-.577-.786-.056-.168-.134-.327-.23-.473.36-.328.352-.977-.02-1.292 1.093-.023 1.274-1.435.546-1.923.265-.398.455-.848.55-1.328h.012c.7 0 .976-.644.84-1.167 1.144-.375 1.862-1.283 2.16-2.33.18-.04.353-.108.513-.202.26-.154.466-.363.63-.614.11.055.24.088.39.088.85 0 1.052-1 .61-1.48.16-.103.247-.283.26-.468.4-.01.626-.27.692-.574.92-.584 1.552-1.592 1.605-2.733.105-.062.19-.145.253-.243.152.05.31.082.477.082.88 0 1.614-.734 1.614-1.614 0-.177-.037-.345-.092-.506.012-.023.015-.05.024-.073.2.037.405.06.615.06 1.8 0 3.307-1.473 3.37-3.262.635-.05 1.094-.35 1.392-.76.37.035.748-.04 1.074-.232.27-.16.482-.373.642-.642.24-.41.258-.816.196-1.26.03.005.056.016.09.016.277 0 .45-.163.516-.364l.05.04c.076.055.21.055.286 0 .113-.078.155-.165.203-.29.084-.22-.13-.454-.346-.454" id="Fill-157" fill="#FFF"/>
            <path d="M325.928 296.626c-.078 0-.155.04-.207.102-.067-.09-.174-.152-.32-.152-.118 0-.21.04-.276.1-.078-.058-.18-.094-.306-.095l-.106-.08c-.2-.115-.415-.173-.645-.173-.243-.03-.462.08-.672.177-.146-.122-.33-.203-.536-.203-.266 0-.5.13-.66.32-.038.014-.08.023-.116.04-.133-.075-.282-.12-.443-.12-.342 0-.646.192-.81.47-.062-.012-.124-.02-.188-.028-.088-.055-.193-.09-.325-.09-.14 0-.255.04-.347.102-.454.07-.87.26-1.215.54-.084-.036-.178-.06-.29-.06-.298 0-.5.146-.61.344l-.052-.002c-.64 0-1.088.295-1.346.71-.31-.172-.66-.275-1.035-.275-.853 0-1.6.51-1.957 1.23-.495.072-.933.34-1.228.722-.17-.032-.353-.052-.547-.052-1.7 0-2.552 1.304-2.56 2.612-.728.294-1.254 1.01-1.254 1.83 0 .163.024.323.064.477-.817.45-1.382 1.32-1.382 2.3 0 .36.076.707.213 1.022-.745 1.127-.617 2.82.396 3.746l-.06.088c-.186.32-.28.663-.28 1.032l-.003.028c-.056.7.43 1.417 1.015 1.758.135.078.275.135.42.18.084.074.19.124.308.136-.012.06-.023.122-.023.186 0 .556.444 1.018.992 1.066-.013.064-.02.13-.02.196 0 .604.508 1.11 1.116 1.11.128 0 .248-.027.363-.068.283.537.845.914 1.488.914.92 0 1.685-.76 1.685-1.673 0-.91-.766-1.67-1.684-1.67l-.043.002c-.017-.16-.087-.313-.214-.414.016-.26-.124-.534-.432-.584-.04-.124-.1-.242-.17-.35.267-.244.262-.725-.017-.96.817-.016.953-1.063.41-1.425.197-.296.34-.63.41-.986h.01c.522 0 .728-.478.626-.865.853-.28 1.39-.953 1.613-1.73.133-.03.263-.08.383-.15.195-.113.348-.27.47-.454.083.04.18.065.293.065.633 0 .784-.74.454-1.096.12-.077.184-.21.195-.348.297-.006.466-.2.516-.425.687-.432 1.16-1.18 1.198-2.026.08-.046.142-.108.19-.18.113.036.232.06.355.06.657 0 1.206-.544 1.206-1.197 0-.13-.028-.256-.07-.375l.02-.055c.148.028.3.046.458.046 1.346 0 2.47-1.093 2.52-2.42.472-.037.816-.258 1.038-.564.276.025.558-.03.803-.173.2-.118.36-.276.48-.476.18-.302.193-.604.146-.934.023.004.043.012.07.012.205 0 .334-.12.385-.27l.037.03c.056.04.157.04.213 0 .085-.058.116-.122.152-.215.063-.165-.097-.337-.26-.337M350.123 305.185c-.062-.07-.154-.116-.277-.107-.098.006-.17.045-.223.1-.07-.045-.156-.07-.26-.062l-.095-.062c-.173-.084-.355-.12-.547-.107-.203-.01-.38.095-.55.188-.128-.094-.286-.15-.458-.138-.22.015-.41.136-.53.305-.032.013-.066.023-.095.038-.115-.053-.242-.083-.376-.073-.286.02-.527.198-.647.44-.053-.007-.106-.01-.16-.013-.075-.04-.165-.065-.275-.057-.118.008-.21.05-.284.106-.374.084-.71.268-.98.52-.073-.024-.153-.038-.246-.03-.25.016-.408.15-.488.32-.578.04-.934.312-1.125.672-.27-.125-.567-.19-.88-.167-.71.05-1.304.517-1.558 1.14-.41.087-.76.336-.982.672-.145-.017-.297-.022-.46-.01-1.415.098-2.05 1.235-1.98 2.325-.59.29-.987.915-.94 1.6.01.136.04.268.083.394-.656.423-1.075 1.18-1.018 1.998.02.3.105.584.237.84-.556.982-.35 2.386.548 3.1l-.044.076c-.136.277-.194.57-.174.877-.005.61.442 1.18.95 1.43.117.057.237.097.36.126.075.057.166.092.265.095-.006.053-.01.105-.007.158.032.463.43.823.89.83-.008.054-.01.11-.007.165.035.504.49.895.996.86.106-.008.205-.037.298-.078.267.43.758.712 1.294.675.765-.054 1.36-.733 1.306-1.493-.053-.76-.736-1.35-1.5-1.296-.06-.126-.13-.25-.24-.326-.002-.22-.136-.438-.395-.46-.042-.102-.097-.197-.163-.284.208-.218.176-.62-.07-.798.68-.062.732-.943.257-1.213.147-.258.246-.544.283-.845.445-.03.588-.442.48-.76.697-.28 1.105-.874 1.245-1.534.11-.032.215-.082.31-.147.156-.106.276-.245.367-.407.07.03.153.045.247.038.53-.037.61-.664.315-.942.096-.07.142-.185.142-.3.247-.023.378-.195.405-.386.548-.4.898-1.052.88-1.76.064-.042.113-.098.148-.16.097.023.198.036.3.03.55-.04.974-.526.936-1.07-.008-.11-.04-.212-.08-.31.138-.03.266-.025.397-.034 1.122-.08 1.996-1.055 1.958-2.164.393-.06.666-.264.834-.53.23.004.463-.06.658-.19.16-.11.285-.253.372-.427.132-.262.126-.514.068-.787.02.002.035.008.057.007.172-.012.272-.12.306-.248.083.053.167.047.21.01.068-.053.09-.11.115-.188.043-.14-.1-.275-.235-.266-.065.005-.127.043-.167.097z" id="Fill-182" fill="#FFF"/>
            <g>
                <path d="M815.39 308.1c6.846-3.72 7.35-20.717 1.52-26.853-8.8-9.26-34.667-27.697-72.823 0-31.99 23.22-11.64 65.483.912 74.274 29.272 20.505 77.842 13.394 84.758 10.128-10.234-2.882-70.392-27.526-61.913-52.914 7.794-23.34 23.818-23.848 34.473-20.826 7.092 2.01 13.98 6.59 13.072 16.192z" fill="#29657D"/>
                <path d="M789.938 349.47c-11.93-5.615-30.438-14.972-33.835-33.225-2.74-14.725 10.006-21.25 17.682-21.015 3.788.116 15.303-.284 12.468 11.618 5.28.977 8.074-6.884 6.868-11.336-1.42-5.245-8.075-14.453-18.49-16.365-13.775-2.53-32.933 4.43-40.047 18.578-9.59 19.074-4 41.342 2.698 51.746 12.068 18.74 58.01 95.58 185.85 10.892-44.632 7.66-110.058 0-133.192-10.89z" fill="#78B1BE"/>
                <path d="M734.583 297.725c3.05-6.067 8.318-10.807 14.424-14.05 1.377-.548 2.784-.998 4.22-1.34-2.29 1.005-4.398 2.442-6.39 4.015-1.12.885.32 2.636 1.496 1.938 1.152-.684 2.352-1.5 3.585-2.245-.08.85.745 1.663 1.8 1.182 1.518-.693 2.955-1.545 4.412-2.35.227-.08.456-.155.686-.225-.908.544-1.776 1.17-2.627 1.913-1.05.915.36 2.766 1.494 1.937.666-.486 1.352-.915 2.05-1.31.204 0 .403-.05.57-.177.858-.655 1.864-1.012 2.846-1.425l2.982-.5c-.508.18-1.012.38-1.506.6-1.523.523-2.94 1.31-4.045 2.433-.465.475-.456 1.015-.205 1.423-.566.533-1.085 1.127-1.545 1.803-.72 1.06.663 2.273 1.688 1.688.403-.23.79-.477 1.17-.727.1.794 1.053 1.54 1.876 1.01 1.34-.86 2.773-1.54 4.265-2.023-.213.824.59 1.756 1.532 1.51.635-.165 1.277-.27 1.923-.342.176.107.393.173.654.174 6.48.034 15.85 1.627 14.72 10.007-.575-7.59-9.603-7.313-12.875-7.413-7.676-.235-20.44 6.29-17.682 21.015 1.026 5.476 3.767 10.56 7.65 15.163-.513-.5-.966-1.06-1.31-1.464-1.116-1.3-2.13-2.678-3.108-4.086-.798-1.15-1.725-2.28-2.455-3.47-1.224-1.997-1.895-4.208-2.738-6.377-.488-1.252-2.4-1.138-2.423.33-.01.593.027 1.16.103 1.707-.637-1.547-1.145-3.167-1.506-4.87-.293-1.38-2.438-1.044-2.424.328.04 3.655.782 6.94 2.022 10.044-2.668-5.243-3.514-11.727-3.644-17.374.106-.224.145-.49.08-.79-.033-.15-.065-.306-.097-.462v-.06c-.002-.22-.052-.404-.132-.562-.29-1.31-.714-2.694-1.87-3.42-1.7-1.063-3.983-.818-5.77-.082-2.13.875-4.503 2.717-6.947 3.9.836-2.253 1.845-4.578 3.05-6.975" fill="#92C0CB"/>
                <path d="M759.616 347.088c-7.258-5.668-15.02-19.107-12.947-29.42.907-4.513 5.4-12.482 16.25-9.218 2.9.872 4.915 3.923 3.745 8.377 7.97-4.737 2.303-15.222-3.08-17.772-10.794-5.112-25.43-2.546-31.74 4.25-9.913 10.678-10.29 32.63-4.335 45.034 16.973 35.35 69.512 43.52 89.63 43.52 31.02 0 79.013-18.252 106.267-30.604-119.3 18.136-143.105 1.984-163.79-14.168z" id="Fill-98" fill="#AFD0D8"/>
                <path d="M725.357 328.89c-1.24-3.83 1.814-15.438 8.67-13.658 2.5.65 6.638 6.11 5.662 9.83 6.652-3.956.572-15.562-3.923-17.69-9.01-4.27-16.692.96-21.96 6.632-8.275 8.913-5.905 21.032-2.25 27.24 4.362 7.412 8.31 25.258 49.54 34.46 23.826 5.316 57.706 1.11 80.458-9.202-90.552 8.94-112.814-27.154-116.198-37.612z" fill="#29657D"/>
                <path d="M789.437 268.045c.04 0 .074.007.11.01.153-.24.425-.422.828-.448 1.056-.07 1.373 1.023.853 1.584.073.018.142.04.207.067.25-.312.647-.538 1.204-.574.627-.04 1.085.184 1.37.525.13-.026.267-.046.413-.055 1.265-.082 2.08.54 2.423 1.348l.028-.01c.126-.163.286-.29.518-.357.29-.084.523-.02.788.096l.06.038c.387-.317.87-.518 1.398-.518.858 0 1.606.507 1.983 1.228.243.128.463.28.658.478.416-.34.945-.548 1.516-.548.725 0 1.383.335 1.827.855.34-.152.712-.24 1.103-.24 1.49 0 2.734 1.245 2.734 2.735 0 .068-.005.135-.01.202l.016.005c.095-.26.273-.49.53-.64.584-.342 1.356-.137 1.697.445.2.342.2.782.046 1.147.103.06.2.127.296.195.104-.042.222-.07.36-.07.417 0 .68.234.8.53.387.04.724.315.83.695.116.426-.077.848-.44 1.08l-.06.04-.01.003c.014.092.027.185.034.28.002.053 0 .106 0 .16.175-.03.355-.056.547-.068 2.304-.15 3.664 1.183 4.015 2.735h.02c.264.02.53.024.79.058.277.036.518.08.753.15.383.04.754.202 1.047.515.326.346.595.832.548 1.328l-.013-.096c.014.285-.033.564-.142.822.06.064.117.132.17.203 1.104.266 1.197 1.794.125 2.19l-.01.02c.018.18-.003.362-.062.53.33-.324.823-.633 1.337-.613.162.01.324.017.486.026.313.057.59.178.83.363.485.38.705.975.57 1.543-.058.24-.177.454-.336.637.308.12.595.3.834.55 1.324 1.383 1.602 3.748 1.158 5.55-.103.42-.318.785-.606 1.08.004.042.014.084.014.128 0 .653-.364 1.227-.893 1.545.248.346.39.726.42 1.14l-.007.09-.003.056c.025.21.005.415-.055.613-.094.384-.286.724-.577 1.02-.297.3-.577.45-.96.6.027.12.046.242.046.37 0 .656-.402 1.23-.97 1.49-.104.754-.684 1.446-1.783 1.518-2.126.14-2.634-2.264-1.28-3.178-.827-.375-1.417-1.204-1.417-2.158 0-1.09.766-2.023 1.78-2.293-.23-.403-.297-.895-.216-1.357-.778-.307-1.128-1.12-1.056-1.89-.926-.268-1.206-1.31-.772-2.017-.47-.464-.774-1.064-.817-1.728-.018-.26.012-.516.073-.762-.18.063-.37.103-.563.103-.45 0-.887-.182-1.205-.5-.287-.287-.41-.617-.47-.992-.322.21-.7.328-1.09.328-.562 0-1-.23-1.413-.585-.735-.63-.773-1.735-.515-2.592.01-.03.023-.056.033-.084-.7-.492-1.16-1.2-1.355-1.975h-.018l-.536.036c-.695.046-1.32-.323-1.585-.863-.767-.185-1.45-.57-1.967-1.09-.518.112-1.112.01-1.527-.288-.41-.172-.734-.542-.876-.915-.084-.217-.11-.445-.09-.67-.19-.136-.352-.298-.49-.476-.517.488-1.227.818-2.02.87-.38.024-.748-.02-1.096-.114-.177.436-.592.792-1.268.836-1.5.097-1.94-1.466-1.174-2.248-.21.09-.432.156-.65.19-.574.084-.713.077-1.295 0-.393-.054-.76-.335-1.047-.585-.47-.412-.627-1.074-.526-1.68-.666-.263-1.148-.913-1.148-1.662 0-.23.047-.447.128-.65-.776-.366-1.202-1.102-1.248-1.865-.104-.034-.2-.077-.287-.128-.225.213-.543.362-.964.39-1.267.08-1.775-1.024-1.44-1.84-1.245-.01-1.243-1.942.007-1.942" fill="#E1F9F9"/>
                <path d="M780.442 265.748l.098-.107c.373-.396 1.002-.572 1.558-.473.33.058.62.21.844.42.338-.26.786-.436 1.35-.472.952-.062 1.63.31 2.018.852.52.01.927.185 1.218.453.27-.28.668-.48 1.202-.513.88-.058 1.453.373 1.698.932.33-.3.792-.51 1.398-.55.747-.048 1.316.188 1.7.562.148-.065.322-.108.52-.12.696-.046 1.13.312 1.3.764l.074.02c.553-.632 1.387-1.07 2.332-1.13 1.6-.105 3.025.893 3.337 2.253.23-.065.475-.11.748-.128h.003c.154-.682.77-1.205 1.493-1.205.696 0 1.29.487 1.47 1.132.16-.052.34-.083.538-.083.665 0 1.124.313 1.387.747.174-.193.37-.37.6-.504.413-.24.857-.36 1.335-.36.747 0 1.316.305 1.87.773l.03.026c.323.323.545.705.67 1.145.035.134.06.28.076.43 3.01-.14 4.685 1.802 4.9 3.895.094-.016.188-.03.29-.03.67 0 1.117.344 1.348.802.402-.245.868-.392 1.365-.392 1.46 0 2.675 1.216 2.675 2.673 0 .126-.012.248-.03.37.064-.005.127-.01.19-.01 1.586 0 2.908 1.322 2.908 2.907 0 .714-.27 1.372-.71 1.883.026.096.05.193.062.29.96.04 1.527.648 1.665 1.344 1.48.073 2.065 1.445 1.647 2.476.932.204 1.658.93 1.716 1.823.003.058 0 .115 0 .172.062.01.127.022.19.04.598.164 1.205.69 1.326 1.325l.006.036c.128.673.02 1.325-.484 1.828-.17.17-.364.3-.58.393.225.262.34.618.24.983-.043.16-.124.296-.226.41.478.39.793.973.793 1.625 0 .486-.18.932-.465 1.29.645 1.316.037 3.282-1.823 3.367.756.693.595 2.187-.477 2.545.03.25-.095.524-.382.583.405.428.226 1.334-.54 1.334-.23 0-.405-.084-.53-.21l-.02.017c.28.637-.03 1.555-.937 1.555-.168 0-.314-.034-.44-.09-.032.33-.264.603-.615.603-.347 0-.63-.306-.615-.643-.028.008-.056.018-.085.025.083.122.136.26.146.42.028.436-.28.85-.745.995-.262.083-.543.068-.788-.023-.012.454-.31.9-.895.9-.43 0-.703-.242-.823-.55-.363.155-.78.26-1.258.29-.32.022-.618.007-.894-.037-.2.18-.477.307-.84.33-.166.012-.312-.007-.45-.037-.096.142-.226.266-.384.354-.413.226-.826.295-1.277.12-.025-.012-.05-.022-.08-.032-.308-.12-.554-.392-.662-.673-.14-.366-.077-.906.27-1.185l.017-.013.044-.033c-.035-.1-.06-.205-.068-.315-.024-.358.114-.696.353-.962-.01-.148.017-.3.1-.44l.017-.022c-.19-.27-.3-.614-.3-.907 0-.593.404-1.235.993-1.417.13-.053.265-.09.404-.106-.155-.417-.254-.852-.282-1.297-.09-1.38.446-2.757 1.48-3.802l.05-.047c-.127-.077-.25-.16-.367-.25-.813-.635-1.312-1.547-1.375-2.515-.015-.225-.003-.45.028-.67-.17-.01-.343-.02-.515-.028-.36-.066-.68-.205-.956-.42-.775-.495-.986-1.636-.457-2.346.11-.19.25-.353.423-.494-.07-.05-.142-.097-.21-.15-.406-.316-.752-.683-1.034-1.085-.162-.11-.316-.227-.46-.35-.146.054-.302.096-.485.108-1.332.087-1.83-1.14-1.395-1.964-1.702-.384-2.59-1.804-2.594-3.23-.552-.086-1.048-.34-1.41-.704-.41.606-1.12 1.056-2.148 1.123-1.82.117-2.81-1.08-2.885-2.336-.04.003-.077.01-.118.013-1.325.086-2.293-.393-2.886-1.116-.217.077-.447.126-.688.14-1.227.08-2.314-.722-2.474-1.788-.42-.017-.79-.11-1.108-.257-.264.115-.57.193-.92.216-1.963.128-2.778-1.554-2.31-2.837-1.26-.35-1.345-2.116-.088-2.575-.662-.05-1.09-.43-1.27-.897-.423-.11-.727-.363-.912-.68-.143.047-.3.078-.475.09-.715.045-1.213-.247-1.49-.663-1.477-.158-2.214-1.337-2.15-2.478-.16.037-.327.064-.507.076-1.174.075-1.93-.507-2.24-1.26l-.05-.066c-.543.166-1.174.086-1.6-.264l-.112-.093c-.595-.49-.646-1.282-.118-1.845M768.963 278.292c.105 0 .208.055.278.136.092-.12.234-.204.432-.204.156 0 .277.054.367.136.105-.08.24-.128.41-.128.047-.037.093-.075.142-.11.266-.155.554-.233.862-.234.325-.04.618.11.9.24.196-.166.44-.274.718-.274.354 0 .668.173.88.43.052.02.11.03.157.052.176-.1.376-.16.59-.16.46 0 .867.258 1.085.635.084-.016.168-.028.254-.04.116-.072.257-.12.433-.12.19 0 .342.054.466.138.606.093 1.164.35 1.623.727.114-.048.24-.08.39-.08.398 0 .667.197.815.464.024-.002.046-.005.07-.005.857 0 1.457.4 1.802.956.415-.23.885-.367 1.386-.367 1.14 0 2.142.685 2.618 1.658.664.096 1.25.457 1.643.972.23-.043.473-.068.733-.068 2.275 0 3.416 1.756 3.425 3.52.976.397 1.68 1.36 1.68 2.465 0 .222-.032.437-.086.645 1.095.61 1.85 1.78 1.85 3.102 0 .486-.103.952-.286 1.377 1 1.52.827 3.802-.528 5.05.026.04.055.078.08.12.25.43.374.893.376 1.39l.003.04c.074.94-.576 1.91-1.36 2.368-.18.105-.367.183-.56.244-.114.098-.256.166-.413.182.016.082.03.165.03.252 0 .748-.593 1.372-1.327 1.437.016.086.027.173.027.263 0 .815-.68 1.495-1.494 1.495-.17 0-.332-.035-.485-.09-.378.724-1.13 1.232-1.99 1.232-1.23 0-2.256-1.026-2.256-2.255 0-1.228 1.026-2.254 2.255-2.254l.058.005c.022-.216.117-.422.288-.56-.023-.35.165-.72.577-.786.056-.168.134-.327.23-.473-.36-.328-.352-.977.02-1.292-1.093-.023-1.274-1.435-.546-1.923-.265-.398-.455-.848-.55-1.328h-.012c-.7 0-.976-.644-.84-1.167-1.144-.375-1.862-1.283-2.16-2.33-.18-.04-.353-.108-.513-.202-.26-.154-.466-.363-.63-.614-.11.055-.24.088-.39.088-.85 0-1.052-1-.61-1.48-.16-.103-.247-.283-.26-.468-.4-.01-.626-.27-.692-.574-.92-.584-1.552-1.592-1.605-2.733-.105-.062-.19-.145-.253-.243-.152.05-.31.082-.477.082-.88 0-1.614-.734-1.614-1.614 0-.177.037-.345.092-.506-.012-.023-.015-.05-.024-.073-.2.037-.405.06-.615.06-1.8 0-3.307-1.473-3.37-3.262-.635-.05-1.094-.35-1.392-.76-.37.035-.748-.04-1.074-.232-.27-.16-.482-.373-.642-.642-.24-.41-.258-.816-.196-1.26-.03.005-.056.016-.09.016-.277 0-.45-.163-.516-.364l-.05.04c-.076.055-.21.055-.286 0-.113-.078-.155-.165-.203-.29-.084-.22.13-.454.346-.454" fill="#FFF"/>
                <path d="M754.072 296.626c.078 0 .155.04.207.102.067-.09.174-.152.32-.152.118 0 .21.04.276.1.078-.058.18-.094.306-.095l.106-.08c.2-.115.415-.173.645-.173.243-.03.462.08.672.177.146-.122.33-.203.536-.203.266 0 .5.13.66.32.038.014.08.023.116.04.133-.075.282-.12.443-.12.342 0 .646.192.81.47.062-.012.124-.02.188-.028.088-.055.193-.09.325-.09.14 0 .255.04.347.102.454.07.87.26 1.215.54.084-.036.178-.06.29-.06.298 0 .5.146.61.344l.052-.002c.64 0 1.088.295 1.346.71.31-.172.66-.275 1.035-.275.853 0 1.6.51 1.957 1.23.495.072.933.34 1.228.722.17-.032.353-.052.547-.052 1.7 0 2.552 1.304 2.56 2.612.728.294 1.254 1.01 1.254 1.83 0 .163-.024.323-.064.477.817.45 1.382 1.32 1.382 2.3 0 .36-.076.707-.213 1.022.745 1.127.617 2.82-.396 3.746l.06.088c.186.32.28.663.28 1.032l.003.028c.056.7-.43 1.417-1.015 1.758-.135.078-.275.135-.42.18-.084.074-.19.124-.308.136.012.06.023.122.023.186 0 .556-.444 1.018-.992 1.066.013.064.02.13.02.196 0 .604-.508 1.11-1.116 1.11-.128 0-.248-.027-.363-.068-.283.537-.845.914-1.488.914-.92 0-1.685-.76-1.685-1.673 0-.91.766-1.67 1.684-1.67l.043.002c.017-.16.087-.313.214-.414-.016-.26.124-.534.432-.584.04-.124.1-.242.17-.35-.267-.244-.262-.725.017-.96-.817-.016-.953-1.063-.41-1.425-.197-.296-.34-.63-.41-.986h-.01c-.522 0-.728-.478-.626-.865-.853-.28-1.39-.953-1.613-1.73-.133-.03-.263-.08-.383-.15-.195-.113-.348-.27-.47-.454-.083.04-.18.065-.293.065-.633 0-.784-.74-.454-1.096-.12-.077-.184-.21-.195-.348-.297-.006-.466-.2-.516-.425-.687-.432-1.16-1.18-1.198-2.026-.08-.046-.142-.108-.19-.18-.113.036-.232.06-.355.06-.657 0-1.206-.544-1.206-1.197 0-.13.028-.256.07-.375l-.02-.055c-.148.028-.3.046-.458.046-1.346 0-2.47-1.093-2.52-2.42-.472-.037-.816-.258-1.038-.564-.276.025-.558-.03-.803-.173-.2-.118-.36-.276-.48-.476-.18-.302-.193-.604-.146-.934-.023.004-.043.012-.07.012-.205 0-.334-.12-.385-.27l-.037.03c-.056.04-.157.04-.213 0-.085-.058-.116-.122-.152-.215-.063-.165.097-.337.26-.337" id="Fill-182" fill="#FFF"/>
                <path d="M729.877 305.185c.062-.07.154-.116.277-.107.098.006.17.045.223.1.07-.045.156-.07.26-.062l.095-.062c.173-.084.355-.12.547-.107.203-.01.38.095.55.188.128-.094.286-.15.458-.138.22.015.41.136.53.305.032.013.066.023.095.038.115-.053.242-.083.376-.073.286.02.527.198.647.44.053-.007.106-.01.16-.013.075-.04.165-.065.275-.057.118.008.21.05.284.106.374.084.71.268.98.52.073-.024.153-.038.246-.03.25.016.408.15.488.32.578.04.934.312 1.125.672.27-.125.567-.19.88-.167.71.05 1.304.517 1.558 1.14.41.087.76.336.982.672.145-.017.297-.022.46-.01 1.415.098 2.05 1.235 1.98 2.325.59.29.987.915.94 1.6-.01.136-.04.268-.083.394.656.423 1.075 1.18 1.018 1.998-.02.3-.105.584-.237.84.556.982.35 2.386-.548 3.1l.044.076c.136.277.194.57.174.877.005.61-.442 1.18-.95 1.43-.117.057-.237.097-.36.126-.075.057-.166.092-.265.095.006.053.01.105.007.158-.032.463-.43.823-.89.83.008.054.01.11.007.165-.035.504-.49.895-.996.86-.106-.008-.205-.037-.298-.078-.267.43-.758.712-1.294.675-.765-.054-1.36-.733-1.306-1.493.053-.76.736-1.35 1.5-1.296.06-.126.13-.25.24-.326.002-.22.136-.438.395-.46.042-.102.097-.197.163-.284-.208-.218-.176-.62.07-.798-.68-.062-.732-.943-.257-1.213-.147-.258-.246-.544-.283-.845-.445-.03-.588-.442-.48-.76-.697-.28-1.105-.874-1.245-1.534-.11-.032-.215-.082-.31-.147-.156-.106-.276-.245-.367-.407-.07.03-.153.045-.247.038-.53-.037-.61-.664-.315-.942-.096-.07-.142-.185-.142-.3-.247-.023-.378-.195-.405-.386-.548-.4-.898-1.052-.88-1.76-.064-.042-.113-.098-.148-.16-.097.023-.198.036-.3.03-.55-.04-.974-.526-.936-1.07.008-.11.04-.212.08-.31-.138-.03-.266-.025-.397-.034-1.122-.08-1.996-1.055-1.958-2.164-.393-.06-.666-.264-.834-.53-.23.004-.463-.06-.658-.19-.16-.11-.285-.253-.372-.427-.132-.262-.126-.514-.068-.787-.02.002-.035.008-.057.007-.172-.012-.272-.12-.306-.248-.083.053-.167.047-.21.01-.068-.053-.09-.11-.115-.188-.043-.14.1-.275.235-.266.065.005.127.043.167.097z" fill="#FFF"/>
            </g>
            <path d="M92.25 377.828c46.5-19.898 68.203-38.913 124.496-12.62 37.232 17.39 94.946 22.583 120.086 4.99 52.512-36.745 110.234-49.444 149.863-21.74 34.642 24.218 104.946 23.928 154.618 4.476 40.653-15.92 171.722-50.95 232.937-4.476 37.386 28.382 91.324 10.987 117.723-4.938 25.353-15.296 32.027-6.442 32.027-6.442v185.965L0 511.898l-.29-174.82s37.57 64.273 92.54 40.75z" fill="#78B1BE"/>
            <path d="M97.48 358.814c46.5-19.9 81.434-48.188 121.633-10.356 19.597 18.443 90.654 28.928 115.793 11.336 52.512-36.746 66.75-39.04 106.38-11.336 34.64 24.218 133.253 36.202 182.925 16.75 40.654-15.92 135.653-74.61 196.868-28.137 37.386 28.384 95.75 29.946 147 11.388 54.414-19.703 55.922-10.606 55.922-10.606v186.39L0 512.672l-.29-174.82s42.802 44.484 97.77 20.962z" fill="#29657D"/>
        </g>
    </g>
</svg>
