<svg width="639" height="532" viewBox="0 0 639 532" xmlns="http://www.w3.org/2000/svg">
    <title>
        duo
    </title>
    <g fill="none" fill-rule="evenodd">
        <text font-family="Open Sans" font-size="16" font-weight="260" fill="#4A4A4A" transform="translate(0 -10.849)">
            <tspan x=".5" y="494.097">Then the man and his wife heard the sound of the Lord God as he was walking in the </tspan> <tspan x=".5" y="516.097">garden in the cool of the day, and they hid from the Lord God among the trees of the </tspan> <tspan x=".5" y="538.097">garden. - </tspan> <tspan x="68.258" y="538.097" font-weight="bold">Genesis 3:8</tspan>
        </text>
        <text font-family="Open Sans" font-size="36" font-weight="bold" fill="#4A4A4A" transform="translate(0 -10.849)">
            <tspan x="127.5" y="456">hide</tspan>
        </text>
        <text font-family="Open Sans" font-size="36" font-weight="260" fill="#4A4A4A" transform="translate(0 -10.849)">
            <tspan x="562" y="247">tree</tspan>
        </text>
        <text font-family="Open Sans" font-size="36" font-weight="260" fill="#4A4A4A" transform="translate(0 -10.849)">
            <tspan x="558.5" y="38.652">body</tspan>
        </text>
        <path d="M26.346 386.5v10.554h281.308V386.5M218.5 225.65h333M548 14.303L70.125 16.74v54.326" stroke="#4A4A4A" stroke-linecap="round" stroke-linejoin="round" stroke-dasharray="1,4"/>
        <g fill="#090909">
            <path d="M159.728 295.19c-3.648.612-7.765-.14-12.545-2.718-10.758-5.8-8.727-17.12-8.572-25.5.723-38.88 2.52-77.714-2.677-116.444-6.123-45.643-50.37-77.703-94.33-68.484-6.746 1.416-10.595 5.015-11.286 11.746-.706 6.877 4.65 9.325 9.6 10.678 4.988 1.365 10.78 2.37 15.64 1.17 15.16-3.74 26.102 7.275 38.915 10.96 13.6 3.91 13.345 14.31.806 22.64-14.25 9.46-29.48 17.464-43.516 27.21-5.706 3.96-15.722 8.532-10.996 17.786 4.928 9.643 37.127-6.647 37.48-6.88 8.607-5.632 17.067-11.517 25.917-16.743 4.135-2.44 9.805-6.717 12.274 2.104 1.547 5.536 1.162 10.722-5.937 12.135-8.68 1.72-17.065 1.39-25.812 4.886-8.748 3.495-12.902 4.308-21.017 12.26-8.114 7.952-10 19.052-13.42 28.952-8.623 24.96 4.39 46.385 30.35 51.846 9.634 2.023 19.555 2.984 29.396 3.563 5.393.317 9.38 2.067 10.012 7.17.758 6.124-5.135 7.052-9.238 8.12-6.953 1.81-14.25 2.28-21.23 4.012-5.647 1.4-13.06 3.25-11.1 10.91 1.425 5.565 7.227 10.54 13.655 9.335 23.492-4.41 30.19 6.992 28.798 28.07-.345 5.203 3.226 11.04 9.353 10.29 4.623-.563 6.564-5.964 6.71-10.844.2-6.595.08-13.202.227-19.8.067-3.148-.31-8.24 3.84-7.584 6.24.984 11.948.68 17.274-.593 12.403-2.962 7.452-21.265 1.43-20.254zM69.226 231.24c-.234-14.17 16.09-29.62 31.306-29.4 16.75.233 13.59 10.503 15.746 20.265 2.154 9.762 7.924 32.164-7.98 33.722-24.793 3.32-38.86-11.81-39.072-24.588z"/>
            <path d="M78.85 229.786c.463 9.123 8.59 15.004 17.904 14.476 7.69-.437 20.517-3.03 17.754-13.385-2.764-10.357-12.425-11.714-19.726-12.21-5.86-.397-16.373 2.58-15.933 11.12zM199.004 169.508c1.54 11.508-1.89 23.682-3.306 34.722-.154 1.187-1.043 2.167-2.222 2.365-10.774 1.786-15.155-26.067-28.492-6.647-.476.69-.623 1.62-.37 2.42 2.68 8.51 7.676 14.616 15.803 19.73 22.512 14.176 23.444 31.596 4.087 51.04-3.262 3.28-7.1 6.167-9.66 9.925-4.35 6.385-9.095 11.115-15.116 12.126-13.597 1.98-10.916 24.24-1.43 20.253 12.402-2.962 22.734-11.163 32.908-20.51 1.58-1.457 4.143-.588 4.544 1.523l6.85 36.226c.448 2.39 3.614 3.092 4.96 1.068 7.57-11.397 8.654-22.837 9.682-34.21.16-1.762 1.92-2.893 3.61-2.37 9.743 3.012 16.592 8.754 24.013 13.48 3 1.913 6.43 6.513 10.004 2.882 3.48-3.54 2.852-9.36-.457-12.786-8.21-8.508-16.818-16.714-25.91-24.274-17.25-14.337-17.463-33.81-.015-48.6 10.456-8.86 20.11-18.19 19.62-33.24-.03-.858-.485-1.708-1.19-2.196-11.993-8.297-15.478 5.123-22.335 9.977-2.488 1.76-5.615 5.226-7.516 4.674-4.198-1.214-3.84-1.74-3.84-9.492 0-7.752-1.406-20.304 4.8-20.333 0 .03 0-16.532-19.023-7.754zM221.345 147.107c4.123-3.337 9.135-4.452 14.088-4.64 14.65-.554 24.373-6.554 24.5-22.043.13-15.59-5.516-30.05-21.683-33.936-21.62-5.194-44.14-5.873-66.413-3.92-9.547.837-18.412 7.265-12.992 16.75 6.092 10.654 1.945 18.456-.63 27.57-4.286 15.17-9.477 30.215-12.084 45.683-1.424 8.466-6.586 20.95 7.914 23.95 1.29.266 2.635-.342 3.182-1.54 10.707-23.405 13.86-49.063 21.393-73.425 3.686-11.932 9.324-17.523 22.265-15.857 11.623 1.496 23.738-1.694 35.052 3.39 3.59 1.614 7.87 3.293 7.543 7.96-.393 5.623-5.44 4.234-9.095 4.726-34.722 4.694-40.024 13.02-35.38 47.734 1.88 7.754 12.816 7.783 19.023 7.754 13.517-.065 28.377-1.576 33.837 15.948 9.385 13.758 10.012 58.357 17.52 57.588 6.774-.695 6.428-8.314 6.734-14.358 2.325-46.012-12.49-69.873-53.98-84.53-2.077-.732-2.505-3.422-.795-4.803z"/>
        </g>
        <g>
            <path d="M263.096 255.18c0-9.87 10.986-26.12 25.506-18.238 11.062 6.007 7.09 10.527 8.455 13.97 1.92 3.248 0 14.15-1.186 18.84-.806 3.19 18.833 20.552 21.062 30.894 2.228 10.34-8.17 4.278-12.505 2.907-4.335-1.37-21.02-14.428-22.504-17.278-2.35 2.85-6.5 5.122-6.5 6.928 0 1.807-7.804 20.054-12.14 20.054-3.157 0-2.97 2.8-2.97 2.8s-4.6 6.862-2.3 13.232c2.3 6.37 23.318 46.706 17.41 57.957-3.27 6.23-5.205 11.968-6.728 17.494-1.64 5.96-13.768 22.483-8.44 29.175 5.326 6.693 6.78 7.912 7.733 9.82 1.383 2.767 8.293 2.017 4.164 4.35-1.872 1.057-6.215 2.6-9.056.186-2.842-2.413-8.97-9.29-12.14-9.29-3.172 0-9.963.27-4.332-8.978 5.632-9.248 1.518-29.35 8.018-34.458-2.702-2.24-15.265-7.066-19.905 3.67 0 3.09.545 18.36-1.035 25.59s-1.563 19.894-.264 23.26c1.3 3.366.278 4.46 1.45 7.526 1.214 3.173 7.504 11.314 5.997 13.915-2.262 3.902-15.47 1.27-17.115-3.207-.886-2.414-2.423-6.248-.106-12.24 2.316-5.994-7.742-28.02-7.43-44.3.043-2.253-.312-7.705-.312-7.705l-7.84 2.908s-4.5-53.037-4.5-56.156c0-3.12 1.52-20.88 9.315-30.92 1.34-10.702 11.417-41.202 16.704-47.98 5.288-6.78 6.977-17.615 22.656-14.725 5.756 1.06 7.053 0 10.84 0z" fill="#4A4A4A"/>
            <path d="M262.022 313.565c-13.026-6.672-20.603-26.04-20.603-28.5 0-2.463-8.27-16.406-2.415-22.567 5.855-6.162 14.507-2.04 14.507 3.212 0 5.25 2.18 13.427 2.18 15.43s2.59 10.807 5.368 12.57c5.187-2.273 10.52-11.7 10.52-17.51 0-3.4-6.176-15.83-4.177-17.867 1.275-1.298 3.406 3.066 3.406 4.3 0-2.843 1.673-11.213 6.002-11.213 4.33 0 8.4 10.26 8.4 12.275 0 2.015-5.957 9.018-5.957 11.46 0 2.44-2.443 17.21-2.443 17.21" id="path" stroke="#F1EEE9"/>
            <path d="M297.516 252c-8.09 0-10.522 12.822-9.822 19.216.514 4.69 3.37 4.068 4 8.268 1.23 8.227 6.924 21.165 12.498 23.868" stroke="#F1EEE9"/>
            <path d="M311.17 316.902c-7.372-14.112-19.857-33.2-15.357-63.583 1.573-10.616-27.944-4-30.538-26.81-.883-7.774-8.532-23.628-34.75-20.454-10.536 1.275-20.022 7.05-38.41-7.262-12.906-10.047-28.833-14.727-27.76-31.546 1.227-19.185 40.04-16.383 52.04-12.033 16.783-18.712 79.418-46.22 111.362-2.92 11.185-13.832 59.253-13.504 57.322 18.303 15.663-9.03 59.928 11.01 37.02 43.714 11.274-7.043 37.02-8.256 24.507 26.843 8.8 12.164-2.607 45.472-34.295 49.803-5.94 25.944-47.412 33.804-73.37 30.55 0 0-20.402 9.507-27.773-4.606z" fill="#F6A623"/>
            <path d="M280.15 443.09c9.307-5.707 25.984-12.733 25.984-42.467 0-29.734-2.44-48.375 2.806-73.44 11.148-53.247-11.595-78.28-11.595-96.07 0-4.49-.523-5.438-7.88-9.258-7.11.074-9.316 7.153-33.615-9.456-3.505-2.397-15.835-2.962-19.945-6.81-7.145-6.687-22.623-19.885-22.623-19.885s22.27 17.738 32.854 19.427c7.085 1.13 13.17 2.54 24.435 8.95 9.58 5.447 15.38 1.187 15.38 1.187s-7.446-12.356-13.002-13.99c-17.098-5.03-26.812-18.126-26.812-18.126s19.897 12.498 25.944 13.095c10.135 1 11.33 7.225 18.297 14.928 6.968 7.703 8.064 7.274 9.412 5.257 2.517-3.765 5.07-8.027 5.707-8.918.637-.892.546-7.272 6.365-14.005 5.82-6.733 4.53-12.188 4.53-12.188s1.197 7.993-4.53 17.703c-5.728 9.71 3.39 4.068 4.408 3.448 1.016-.62 17.412-11.71 17.412-11.71s-14.243 11.348-17.66 14.367c-3.417 3.02-10.547 8.39-11.66 16.314-1.115 7.924-.817 13.52 2.525 18.274 3.342 4.754 10.154 16.982 18.345 9.184 7.543-7.18 10.168-17.79 11.267-22.282-.467-9.067-3.725-15.444 1.284-23.18 4.09-6.315 7.897-14.928 7.897-14.928s-5.37 18.972-5.37 26.205c0 7.232 1.966 8.6 3.936 6.835 4.237-3.796 8.166-7.8 8.166-7.8s-2.563 7.215-8.166 12.867c-4.364 4.404-4.985 11.766-9.81 20.298-4.827 8.53-10.22 23.968-.885 20.13.594-.245 1.212-.54 1.85-.877 9.42-4.992 23.3-19.662 26.342-25.698 3.108-6.17 8.967-18.546 8.967-18.546s-2.56 21.877-12.215 36.063c-9.655 14.186-24.382 23.26-25.72 32.768-1.337 9.508-1.29 25.897 7.51 18.46 12.127-10.248 20.552-27.876 20.552-27.876s-8.425 21.47-13.76 29.89c-4.79 7.557-11.168 8.06-9.905 22.024 1.263 13.963 0 37.63 9.905 52.036 10.826 15.745 14.804 52.128 17.244 58.57 2.662 7.03 27.973 32.575-9.257 13.024-31.32-16.446-41.902 10.944-51.37-.743-3.614-4.46-45.355 2.113-39.636-3.41 5.72-5.522 11.262-6.684 16.092-9.645z" fill="#D8D8D8"/>
            <g fill="#985C26">
                <path d="M385.294 205.29c4.227 1.37 8.394-2.63 9.908-5.847 2.18-4.63-2.213-9.918-7.388-7.212-4.958-4.882-8.487-1.97-8.847 2.732-.328 4.28 2.1 8.957 6.327 10.328zM388.05 249.913c3.217-1.86 3.063-6.684 1.912-9.424-1.657-3.944-7.4-4.174-8.613.555-5.807.348-5.97 4.17-3.252 7.022 2.475 2.597 6.738 3.705 9.953 1.846zM420.547 263.32c2.947 1.013 5.917-1.74 7.02-3.978 1.583-3.218-1.43-6.98-5.093-5.147-3.417-3.484-5.926-1.486-6.236 1.807-.283 2.996 1.362 6.305 4.31 7.318zM389.22 296.103c3.354.65 6.16-2.793 7.014-5.39 1.23-3.738-2.62-7.363-6.316-4.813-4.24-3.262-6.66-.708-6.495 2.914.15 3.297 2.442 6.64 5.797 7.29zM299.023 187.314c3.846-.476 5.664-5.173 5.674-8.274.015-4.462-5.406-7.023-8.5-2.976-5.717-2.03-7.432 1.572-5.983 5.42 1.32 3.504 4.962 6.305 8.81 5.83z" id="Oval-2"/>
                <path d="M228.43 184.67c2.876 1.464 6.318-.93 7.77-3.067 2.088-3.073-.462-7.365-4.48-6.01-3.002-4.066-5.863-2.378-6.655.953-.72 3.032.49 6.662 3.365 8.125z"/>
            </g>
        </g>
    </g>
</svg>
