<svg width="758" height="691" viewBox="0 0 758 691" xmlns="http://www.w3.org/2000/svg">
    <title>
        jin
    </title>
    <g fill="none" fill-rule="evenodd">
        <text font-family="Open Sans" font-size="16" font-weight="260" fill="#4A4A4A" transform="translate(102 178.151)">
            <tspan x=".308" y="418">The Lord God took the man and put him in the </tspan> <tspan x=".308" y="440">Garden of Eden to work it and take care of it. And </tspan> <tspan x=".308" y="462">the Lord God commanded the man, “You are free </tspan> <tspan x=".308" y="484">to eat from any tree in the garden; but you must </tspan> <tspan x=".308" y="506">not eat from the tree of the knowledge of good and </tspan> <tspan x=".308" y="528">evil, for when you eat from it you will certainly die.” </tspan> <tspan x=".308" y="550">-Genesis 2:15-17</tspan>
        </text>
        <text font-family="Open Sans" font-size="36" font-weight="bold" fill="#4A4A4A" transform="translate(102 178.151)">
            <tspan x="64.5" y="366">forbidden</tspan>
        </text>
        <text font-family="Open Sans" font-size="36" font-weight="260" fill="#4A4A4A" transform="translate(102 178.151)">
            <tspan x="572" y="156">show</tspan>
        </text>
        <text font-family="Open Sans" font-size="36" font-weight="260" fill="#4A4A4A" transform="translate(102 178.151)">
            <tspan x="572" y="39">tree</tspan>
        </text>
        <path d="M114.346 485.5v10.554h281.308V485.5M321.45 323.65H663.5M325.465 203.65H663.5" stroke="#4A4A4A" stroke-linecap="round" stroke-linejoin="round" stroke-dasharray="1,4"/>
        <g fill="#000">
            <path d="M346.42 154.147c-.58-6.283 3.42-11.255 9.33-11.175 5.656.08 8.358 4.925 9.51 11.11 5.348 28.838-1.642 38.102-37.944 48.362 2.934 10.566 11.524 5.06 17.344 5.745 22.963 2.697 30.684 13.414 25.708 36.716-3.52 16.48 3.156 32.146 4.094 48.25 2.406 41.165-4.778 82.712 4.854 123.594 1.788 7.576-2.726 13.4-5.208 19.642-2.608 6.556-8.48 8.005-15.48 8.023-8.94.03-6.586-6.198-8-11.113-9.713-33.806-7.784-69.22-2.562-102.075 5.32-33.444-3-64.713-1.85-96.944.166-4.712-1.815-7.377-6.787-6.938-8.93.787-14.038 6.783-16.406 14.382-2.01 6.448 1.292 13.84-3.61 20.32-2.673 3.538-3.08 8.364-9.475 7.74-7.29-.706-5.006-6.04-6.27-10.126-2.816-9.117 7.877-25.23-7.378-26.688-16.93-1.618-7.905 16.726-12.617 25.1-3.802 6.76-4.925 18.59-16.618 15.957-11.642-2.62-6.052-13.516-5.184-19.544 2.85-19.83 4.184-42.424 33.462-41.363 5.646.203 8.797-1.467 8.49-7.85-.344-7.23-5.495-5.768-9.943-6.376-26.514-3.656-31.165-9.77-28.02-33.986.803-6.183 2.996-11.778 8.275-12.447 7.344-.93 11.627 4.995 10.58 12.06-1.5 10.12 2.764 19.293 11.368 18.42 9.137-.924 14.184-10.768 12.514-21.57-.473-3.07-.85-6.533.09-9.363 2.107-6.36-6.51-17.944 6.46-18.642 14.02-.754 12.213 11.123 12.242 20.453.023 8.43.004 16.864.004 27.756 16.354-6.25 20.16-15.175 19.024-27.43zM199.146 211.802c17.01 8.43 37.274-.59 44.797 23.02 1.963 6.155 4.76 12.202 2.32 17.55-2.664 5.84-4.027 16.072-10.975 15.638-4.967-.307-12.156-6.948-11.665-15.543.438-7.646-1.378-16.122-10.076-14.703-5.288.86-8.684 9.477-8.773 16.66-.052 3.92.037 7.845-.043 11.77-.164 8.528-4.414 13.33-13.088 12.76-9.03-.6-4.732-8.006-5.675-12.61-.462-2.26-.123-4.693-.07-7.046.174-8.034.325-17.7-10.378-17.095-8.29.472-7.902 9.32-8.69 16.57-6.165 56.79-4.108 113.765-4.674 170.685-.07 6.68 2.98 14.212-3.043 20.033-3.773 3.647-6.632 10.29-12.948 8.138-5.15-1.755-7.788-6.665-7.528-13.01 2.67-65.08-5.698-130.47 8.622-195.344 3.683-16.708 11.14-23.6 25.108-26.373 8.042-1.598 13.65-4.093 13.358-12.782-.363-10.83-9.113-5.33-14.235-6.363-16.438-3.307-26.537-29.066-16.193-42.4 2.18-2.812 4.906-6.496 9.642-3.845 5.362 3.004 8.97 8.1 6.395 13.528-4.094 8.623-2.283 12.882 6.906 13.594 10.93.845 6.505-7.83 7.675-13.09 2.51-11.282-7.033-31.348 8.49-32.098 17.854-.86 7.845 19.35 10.142 30.22 1.23 5.803.02 14.016 8.283 12.69 6.854-1.1 15.906-3.806 15.41-14.283-.48-10.17-.22-20.254 14.08-15.933 12.58 3.797 7.883 11.774 5.935 21.995-3.708 19.434-12.052 29.07-31.953 29.944-5.82.255-11.444 5.023-17.156 7.726"/>
            <path d="M247.208 399.51c-.005-15.69-.25-31.382.09-47.062.21-9.962-1.935-15.67-13.24-10.193-12.7 6.156-26.223 1.458-39.284 2.9-6.052.67-12.557-2.438-11.82-7.306.603-4.03 1.74-12.548 11.343-11.69 42.128 3.77 83.774-7.334 125.9-4.49 4.072.274 10.407-2.505 11.19 4.35.585 5.155-3.99 9.636-8.543 9.25-11.155-.958-20.283 7.877-31.608 5.254-18.986-4.396-21.632 5.69-20.764 21.83 1.254 23.462.24 47.047.368 70.576.037 6.99-1.165 13.26-4.048 19.915-2.806 6.47-8.938 8.122-12.632 8.188-5.523.1-7.132-6.207-7.037-12.108.27-16.472.094-32.944.085-49.415M318.075 288.713c-3.245 7.457-8.23 9.603-15.226 9.372-29.982-.98-59.45 2.755-88.83 8.797-9.138 1.878-20.798-3.646-22.223-12.316-1.976-12.023 10.06-11.363 18.293-10.566 30.368 2.94 59.9-7.51 90.264-5.094 8.292.66 15.17 1.25 17.72 9.807M218.425 387.25c-6.444 12.727-3.27 31.505-4.515 49.925-.655 9.703-9.882 11.245-16.995 11.368-10.575.18-6.906-9.665-5.906-14.07 3.966-17.53 4.65-35.12 4.396-52.92-.118-8.17-2.76-20.553 8.188-21.02 11.024-.476 16.392 9.83 14.83 26.717M322.675 407.77c0 5 .957 8.537-.175 11.183-3.892 9.123 1.458 26.175-15.42 24.69-16.02-1.407-5.887-15.86-7.674-24.195-2.58-11.985 1.943-24.58-2.614-36.867-3.174-8.566.128-16.056 9.585-18.344 12.038-2.91 11.373 5.41 11.812 13.77.55 10.603 7.258 20.442 4.485 29.763"/>
        </g>
        <g>
            <path d="M201.41 227.274c-16.982 0 18.973 35.105 0 29.828-8.59-2.39-46.54 0-70.687-15.438-24.15-15.437-43.102-72.62 0-87.168-20.2-40.703 9.11-64.418 26.425-64.418 35.625 0 61.192 21.743 66.904 38.473 20.59-6.823 32.32-15.026 51.827 0 19.507-15.026 42.772-17.793 56.034 0 26.512 43.162-9.05 93.964-10.828 104.91-1.148 7.07-23.62 31.423-57.668 15.712-34.048-15.71-19.078-27.316-26.43-33.664-9.695-8.37-20.238-18.53-26.64-9.437" fill="#2F4764"/>
            <path d="M203.796 330.085s8.275 1.174 11.953-5.164c3.678-6.336 11.682-54.604 6.395-65.637-5.288-11.03-16.322-14.318-23.45-17.84-7.126-3.52-3.447-7.276-7.126-13.144-3.68-5.87-7.357-7.748-22.07-7.748 0 0 11.955-2.817 15.863-2.113 3.907.704 12.873 7.277 13.103 11.502.23 4.225 8.046 10.093 12.184 11.267 4.138 1.172 1.406-15.608-2.142-20.787-5.894-8.605-14.41-10.668-15.56-13.955-1.148-3.286-4.827-20.892-8.505-25.35-3.678-4.46-8.276-5.4-8.046-12.677.23-7.275 1.84-15.96 1.84-23.942 0-7.333-2.136-10.902-3.017-13.07-.08-.192-.146-.373-.202-.544-.69-2.113-.46-.94-.46-.94s9.195.94 5.287 38.967c0 0 4.14 8.686 7.817 10.094 3.678 1.408 10.522 24.366 13.28 25.54 2.76 1.173 13.37 10.04 15.438 6.99 2.07-3.05 7.834-6.944 9.213-16.098 1.38-9.155-.69-23.71 5.517-32.394 6.208-8.685 14.254-18.543 11.725-26.524 0 0 4.137 8.45-9.196 30.75 0 0-.46 6.808-.23 14.32.23 7.51 7.126-5.87 17.7-11.738 0 0 9.885-5.164 10.346-7.747 0 0-4.598 9.39-10.806 11.972-6.206 2.582-19.08 23.474-16.09 25.116 2.987 1.645 23.447-5.867 31.953-13.614 8.506-7.745 13.333-26.055 22.53-27.698 9.194-1.642 33.563-3.052 34.942-6.807 0 0 2.53 6.34-25.977 9.39 0 0-5.747-3.052-14.023 10.328-8.276 13.38-16.782 26.525-38.392 33.803-28.24 9.51-20.69 23.005-15.862 27.934 4.83 4.93 16.783-8.686 25.288-12.676 8.507-3.99 28.047-4.465 30.346-6.105 2.3-1.64 15.863-6.336 15.863-6.336s-12.645 11.267-22.99 11.032c-10.345-.234-40.69 12.44-37.93 35.914 2.757 23.473 1.543 23.038 2.785 39.885.355 4.805 5.762 29.914 16.796 35.93 11.035 6.02-56.092-.085-56.092-.085" fill="#EBA739"/>
            <g fill="#8D98A5">
                <path d="M159.622 209c3.292-1.61 3.472-6.37 2.527-9.145-1.36-3.994-6.996-4.614-8.515-.045-5.737-.055-6.162 3.693-3.682 6.688 2.258 2.726 6.377 4.11 9.67 2.5zM152.678 150.876c4.064 1.805 8.627-1.74 10.47-4.784 2.65-4.38-1.167-10.1-6.6-7.948-4.424-5.377-8.24-2.847-9.088 1.795-.773 4.223 1.155 9.13 5.218 10.936zM210.313 167.222c2.764-2.406 1.706-7.05.075-9.485-2.346-3.505-7.95-2.647-8.234 2.16-5.556 1.43-4.996 5.16-1.825 7.412 2.884 2.047 7.22 2.317 9.983-.088zM280.422 151.332c3.616 1.533 7.592-1.666 9.173-4.382 2.275-3.907-1.183-8.902-5.947-6.918-3.988-4.68-7.32-2.39-7.998 1.72-.62 3.743 1.157 8.048 4.772 9.58zM311.7 201.854c3.903-.415 5.826-5.14 5.89-8.28.094-4.52-5.35-7.207-8.554-3.162-5.756-2.157-7.556 1.462-6.155 5.385 1.276 3.57 4.916 6.47 8.82 6.057z" id="Oval-2"/>
            </g>
            <path d="M501.697 229.194c-20.092 10.203-24.414 31.643-32.738 30.958-38.858-3.197-67.79-28.693-70.55-49.4-2.563-19.203 8.605-34.206 21.215-48.705 5.875-6.755 2.395-25.203 29.803-24.157 27.408 1.046 31.554-22.077 49.497-37.375 7.72-6.58 27.372-3.032 35.002-9.81 7.312-6.496 16.223-11.61 25.702-11.06 9.477.55 14.308 3.248 19.55 13.69 6.734 13.42 27.374 6.865 30.114 21.087 9.08 47.127 57.09 37.766 59.02 60.886 1.93 23.12-13.11 29.463-13.794 40.318-.408 6.484 12.643 8.404 17.46 31.306 4.818 22.902-16.11 31.944-42.013 30.22-17.92-1.193-42.464-.236-52.994-17.904-10.53-17.67-10.667-32.404-29.712-40.007-19.044-7.603-25.472-.25-45.563 9.954z" fill="#77AB39"/>
            <path d="M625.94 194.98c-1.82.13-3.632.048-5.445-.242-1.25-.345-6.144-1.834-6.3-1.904 8.5-4.654 14.372-10.542 17.607-15.146 3.68-5.164 4.81-8.487 4.89-8.436-.07-.06-1.603 3.123-5.686 7.815-4.028 4.682-11.174 10.498-21.59 14.177-2.147.857-4.46 1.525-6.903 2.108-1.957.374-3.95.827-5.962 1.262-1.67.327-3.39.652-5.145 1-.35.058-3.306.68-4.454.938.364-.264 4.48-2.468 5.87-3.163 5.048-2.77 9.36-5.952 12.87-9.327.795-.748 1.516-1.514 2.178-2.287 5.96-6.667 7.626-14.92 9.958-21.048 3.914-14.618 7.743-23.186 7.464-23.28.28.087-3.935 8.533-8.237 23.025-.617 1.523-1.203 3.177-1.823 4.894-1.95 4.8-4.143 11.96-10.66 17.527-.786.696-1.62 1.38-2.486 2.057.333-1.033.768-2.412.8-3.697.135-2.205.09-4.042.003-5.46.003-9.474.414-15.272.566-15.265-.15-.028-.97 5.774-1.38 15.21-.12 2.343-.19 4.956-.968 7.48-.333 1.018-.843 1.985-1.496 2.887-.485.503-1.027.986-1.617 1.46-2.2 1.33-4.482 2.648-6.704 4.066-5.093 2.34-9.828 4.72-15.762 7.84-.555.293-3.607 1.832-4.61 2.294-7.157 3.283-12.937 9.043-18.696 15.005-1.74 1.798-3.1 3.056-4.377 5.236 2.07-12.42 7.276-30.172 7.276-30.172 2.406-8.18 6.96-11.264 11.952-14.66 1.113-.725 17.294-9.018 18.79-9.983 9.217-5.516 11.413-12.346 11.568-12.595-.18.198-3.085 6.59-12.388 11.206-4.39 2.385-9.956 4.265-16.074 7.13l2.106-2.226c4.305-4.533 8.377-8.977 11.618-13.604 2.992-4.82 5.57-9.298 7.39-13.712 7.545-17.615 6.213-29.802 6.65-29.637-.416-.174.025 12.045-8.134 28.97-1.912 4.15-11.432 17.4-12.828 19.174-2.09 2.287-4.344 4.58-6.688 6.928-3.96 3.992-8.21 8.185-12.022 13.093 1.67-7.74 2.072-14.698 1.838-21.003.58-6.15 1.703-11.964 3.443-17.382.654-2.334 1.312-4.584 1.93-6.793.787-1.95 1.664-3.752 2.7-5.3 3.333-3.827 8.464-5.232 11.966-7.158 7.264-3.782 9.452-8.736 9.73-8.83-.285.09-2.91 4.835-10.068 8.096-3.617 1.81-8.68 2.782-12.702 7.036.59-3.682-.025-7.31-.876-10.38-2.03-6.515-4.888-11.133-6.48-14.49-1.68-3.32-2.46-5.228-2.472-5.224.012-.004.6 1.973 2.007 5.43 1.318 3.468 3.82 8.347 5.367 14.68.666 3.156 1.03 6.74.04 10.316-1.046 3.657-2.446 7.644-3.785 11.842-.65 2.033-1.296 4.136-1.88 6.313-.81-6.38-1.886-11.91-2.896-16.54-1.26-5.446-2.414-9.652-3.266-12.543-.795-3.47-1.553-6.653-2.243-9.42-2.025-8.432-4.665-13.177-4.615-13.175-.044.01 2.21 4.894 3.82 13.352 1.504 7.48 3.304 17.265 5.594 28.482.46 4.24.84 8.995 1 14.228.138 2.916.16 5.937.014 9.058-.34-.48-.71-.93-1.12-1.344-.947-1.124-2.01-2.122-3.136-2.976-.324-.284-.68-.51-1.032-.73-1.26-.792-2.37-1.412-3.433-2.017-1.945-1.21-3.737-2.473-5.37-3.778-.86-.748-1.71-1.49-2.567-2.217-2-1.86-3.707-3.8-5.1-5.8-2.102-3.1-3.556-6.03-4.57-8.602-1.787-5.345-2.427-10.574-2.18-14.71.1-7.973-4.314-11.473-4.2-11.295-.07-.13 3.915 3.56 3.386 11.308-.643 6.417.502 15.495 5.505 24.024-5.238-2.545-10.38-2.24-13.61-4.996-.97-.62-1.848-1.276-2.653-1.944-3.677-3.762-6.97-7.453-9.563-10.533-5.16-7.11-9.72-10.322-9.718-10.266.03-.025 4.25 3.42 9.07 10.753 2.055 2.678 9.64 11.41 9.99 11.78 2.096 2.08 5.87 4.483 9.42 5.207 4.35.886 5.667 1.777 7.94 3.652 2.476 1.867 4.934 4.236 7.538 6.62 1.293 1.22 2.75 2.19 4.22 3.08-2.348-.027 10.023 8.194 10.536 11.98-.46 3.41-1.16 6.932-2.172 10.582-2.447 9.79-6.34 20.21-10.37 31.654-.932 2.676-1.915 5.56-2.908 8.567-1.246-5.827-3.377-11.283-6.113-15.943-3.206-5.768-8.73-12.43-10.41-15.166-1.677-2.736-.67-12.14.49-16.875 1.57-6.978.06-11.38.087-11.3-.015-.014.646 4.374-1.67 10.92-.964 3.204-2.518 7.198-2.563 11.973-6.665-10.537-9.69-20.574-12.15-27.318-2.427-7.262-3.77-11.284-3.774-11.282.005.002.954 4.12 2.798 11.56 2.048 7.34 8.078 26.087 11.95 31.197-2.16-1.378-4.413-2.567-6.69-3.645-.984-.512-1.965-.998-2.932-1.465-10.03-4.65-19.123-8.14-25.17-13.73-6.344-5.118-13.353-18.086-14.477-21.102-3.538-9.584-3.098-16.13-3.363-16.5.304.438-.74 9.506 5.014 22.054 1.41 3.547 7.3 13.275 9.592 15.726 6.033 6.448 19.975 12.404 27.16 15.982 4.804 2.477 9.987 5.354 13.89 9.447 2.222 2.318 3.44 4.228 3.55 4.356-3.477-1.09-6.828-.91-9.805-.78-2.49-.127-8.79-.193-9.95-.39-11.364-1.354-17.157-6.024-17.123-5.937-.073-.123 5.075 5.495 16.62 7.727 7.69 1.57 13.338-.196 19.76 2.08 1.897.636 3.338 1.768 4.522 3.235 3.83 7.328 6.674 15.506 6.45 24.98.02 1.454-.585 6.298-.84 7.24-1.83-2.677-4.147-4.777-6.372-6.656-6.898-5.617-15.033-8.43-22.52-10.094-11.413-2.43-21.896-3.196-30.963-4.756-2.202-.796-4.195-1.795-5.86-3.095-1.36-.942-2.247-2.16-3.075-3.38-1.086-1.597-1.87-6.136-1.963-7.655-.16-7.574.014-12.448-.16-12.415.17.048-.805 4.634-1.47 12.435-.197 3.423.228 8.523 3.882 12.182-10.64-2.79-17.937-8.376-21.702-13.243-1.38-1.752-2.417-3.302-3.196-4.572-2.014-4.357-2.525-8.907-2.365-12.814.148-5.324.242-9.734-.442-12.684-.63-2.955-1.495-4.417-1.448-4.43-.047.01.725 1.523 1.197 4.474.525 2.954.232 7.257-.12 12.618-.44 5.298.398 12.245 4.817 18.174 2.562 3.656 6.12 6.86 10.28 9.49 3.38 2.375 7.48 4.54 12.288 6.137.558.203 1.128.393 1.702.582-.574.066-1.145.134-1.71.214-5.75.497-11.038 3.067-15.444 4.752-4.625 1.642-9.152 2.606-13.304 3.258-.327.053-.646.096-.967.142-2.354.162-4.654.24-6.876.24-6.247-.017-11.89-.334-16.39-1.674-8.83-2.475-12.204-7.846-12.572-8.017.344.183 3.236 5.573 11.724 8.575-1.328-.35-2.02-.61-1.986-.586-.145-.116 9.97 4.796 27.276 2.915.87-.08 4.782-.577 6.22-.906 1.72-.318 8.533-2.188 9.004-2.356-.456.465 9.213-3.353 13.668-3.645 3.374-.376 7.8-.737 10.843-.263 3.044.474 12.895 2.3 20.014 3.788-5.155.584-9.748 2.203-13.323 4.306-.8.495-13.623 13.148-16.167 17.847-1.537 3.006-4.193 4.498-6.022 4.887-1.91.363-2.928-.363-2.932-.26.01-.11.95.727 2.973.505 1.936-.257 4.835-1.603 6.692-4.74 2.945-4.766 15.596-16.27 18.573-17.92 7.35-2.986 17.15-3.036 26.964.192 3.883 1.646 7.582 3.754 10.822 6.524 2.83 2.473 5.5 5.236 6.518 8.338.63 1.75.877 5.866.526 8.365-2.056 14.574-8.09 47.92-7.98 83.948h23.25c-4.74-33.533-4.082-60.962-1.17-86.73.652-5.3 6.534-9.124 8.338-10.235 6.56-3.696 13.762-5.338 20.885-5.843 1.856.14 3.37.402 4.79.793 3.142 1.102 19.273 18.068 23.496 20.715 6.508 4.08 12.552 7.34 17.936 9.38 10.702 4.306 17.856 5.35 17.868 5.032-.037.314-7.065-1.12-17.554-5.773-4.81-2.017-17.013-8.292-27.09-18.61-1.024-1.05-4.41-4.916-5.092-5.81-1.666-1.953-3.38-4.257-5.914-6.008 41.516 1.073 51.476-2.07 56.684-5.135 5.495-3.222 7.455-6.217 7.542-6.095-.073-.123-2.406 2.62-8.004 5.2-2.586 1.196-5.893 2.136-9.78 2.734.848-.864 1.5-1.787 2.09-2.604 2.164-3.327 2.148-5.857 2.21-5.81-.052-.04-.48 2.415-2.87 5.34-.955 1.097-2.218 2.493-3.795 3.39-3.977.442-8.48.546-13.405.22-11.062-.594-24.214-2.64-39.418-2.395-7.393.2-21.27 3.396-27.37 8.632 1.518-4.368 6.963-10.314 9.68-14.138 5.305-7.462 8.936-10.998 16.843-15.316 6.23-3.402 36.203-11.894 38.654-11.845 3.317.064 5.61 1.102 7.5 1.45 1.51.266 10.312-.284 9.99-.35 4.606-.773 8.525-2.272 11.844-3.778 2.226-1.054 4.09-2.16 5.643-3.216.23-.152.457-.308.68-.465 9.262-6.51 12.013-13.235 12.24-12.95-.214-.302-3.618 6.808-13.755 13.008-5.054 2.923-11.93 5.28-19.63 5.91z" fill="#705033"/>
            <g fill="#985C26">
                <path d="M459.57 176.932c3.484 1.13 6.92-2.167 8.167-4.82 1.797-3.815-1.824-8.176-6.09-5.945-4.088-4.026-6.996-1.625-7.293 2.25-.27 3.53 1.73 7.385 5.215 8.515zM418.138 210.23c4.414-.546 6.5-5.936 6.512-9.495.017-5.12-6.204-8.057-9.752-3.413-6.562-2.33-8.53 1.803-6.866 6.22 1.513 4.02 5.693 7.233 10.106 6.688zM448.964 243.534c3.375 1.43 7.088-1.556 8.565-4.09 2.123-3.65-1.106-8.313-5.555-6.462-3.723-4.37-6.833-2.23-7.468 1.608-.577 3.494 1.08 7.513 4.457 8.944zM490.642 143.513c3.582-.766 4.906-5.34 4.66-8.262-.355-4.202-5.673-6.165-8.25-2.098-5.554-1.44-6.87 2.095-5.188 5.6 1.532 3.19 5.195 5.527 8.778 4.76zM644.8 258.725c3.467 1.84 7.706-1 9.518-3.568 2.606-3.695-.405-8.97-5.323-7.41-3.566-5.01-7.083-3.016-8.117 1.02-.942 3.675.453 8.117 3.92 9.958zM613.01 215.934c3.33-.71 4.558-4.96 4.33-7.676-.33-3.905-5.27-5.73-7.665-1.95-5.16-1.338-6.383 1.946-4.82 5.202 1.424 2.964 4.826 5.136 8.155 4.424z" id="Oval-2"/>
                <path d="M537.84 179.266c4.03 1.874 8.654-1.592 10.55-4.604 2.724-4.333-.996-10.12-6.465-8.06-4.33-5.45-8.19-2.986-9.117 1.64-.844 4.21 1 9.15 5.03 11.024z"/>
            </g>
            <path d="M287.71 550.063c-.55.844-6.39 11.11-6.33 11.125-6.3 10.37-13.33 19.862-20.608 29.56-.632.788-6.188 6.798-10.2 15.2-2.375 4.638-9.637 30.88-11.78 35.575-1.082 2.818-8.685 15.042-8.685 15.042.085-.02-9.36 11.437-9.36 11.437l31.644 22.713 6.18-13.49s3.072-5.734 3.035-5.642c.037-.092 2.554-1.267 2.98-1.408 2.565-1.01 9.584-4.02 17.67-14.62 4.036-5.372 6.35-12.69 6.175-12.64.174-.05 6.78-2.236 9.513-4.59 3.922-3.867 12.685-16.095 3.827-19.384 2.597-8.418-4.054-10.796-5.688-11.237.547-1.18 3.255-6.772.217-11.6-2.22-3.38-6.63-3.467-9.038-3.298-2.81.34-11.25 2.893-11.288 2.814.04.078 5.703-13.39 10.57-21.73 1.562-2.507 7.424-13.04 8.423-15.2 1.136-2.572 2.41-5.533 2.984-8.515.373-1.383.56-2.85-.1-3.972-.588-1.1-1.498-1.792-2.717-1.987-.968-.287-2.16-.025-3.188.573-1.866 1.492-3.288 3.625-4.236 5.273z" fill="#4A4A4A"/>
            <g transform="translate(0 1)" stroke="#4A4A4A" stroke-linecap="round" stroke-linejoin="round" stroke-dasharray="1,4">
                <path d="M375.2 367.164C321.22 397.614 15.92 396.977 1.726 218.168-10.605 62.828 95.062-4.145 176.492.652 257.922 5.45 363.348 48.785 389 110.535 421.875 63.953 492.938 6.845 602.64 18.14c109.704 11.298 155.727 98.856 145.673 207.805-10.055 108.95-85.78 184.477-186.497 184.477-67.937 0-142.12-12.81-186.617-43.258z"/>
                <ellipse cx="350.5" cy="432" rx="38.5" ry="22"/>
                <ellipse cx="315.5" cy="493.429" rx="23.5" ry="13.429"/>
            </g>
        </g>
    </g>
</svg>
