<svg width="749" height="531" viewBox="0 0 749 531" xmlns="http://www.w3.org/2000/svg">
    <title>
        lan
    </title>
    <g fill="none" fill-rule="evenodd">
        <text font-family="Open Sans" font-size="16" font-weight="260" fill="#4A4A4A" transform="translate(0 47.151)">
            <tspan x="0" y="429">When the woman saw that the fruit of the tree was good for food and </tspan> <tspan x="0" y="451">pleasing to the eye, and also desirable for gaining wisdom, she took </tspan> <tspan x="0" y="473">some and ate it. - </tspan> <tspan x="128.5" y="473" font-weight="bold">Genesis 3:6</tspan>
        </text>
        <text font-family="Open Sans" font-size="36" font-weight="bold" fill="#4A4A4A" transform="translate(0 47.151)">
            <tspan x="151.5" y="399">avaricious</tspan>
        </text>
        <text font-family="Open Sans" font-size="36" font-weight="260" fill="#4A4A4A" transform="translate(0 47.151)">
            <tspan x="633" y="156">woman</tspan>
        </text>
        <text font-family="Open Sans" font-size="36" font-weight="260" fill="#4A4A4A" transform="translate(0 47.151)">
            <tspan x="633" y="39">tree</tspan>
        </text>
        <path d="M113.346 387.5v10.554h281.308V387.5M267.476 192.65H622.5M321.5 72.65h301" stroke="#4A4A4A" stroke-linecap="round" stroke-linejoin="round" stroke-dasharray="1,4"/>
        <g fill="#000">
            <path d="M309.243 103.714c1.096-20.13 23.62-30.334 22.768-50.644-.09-2.162-2.473-3.514-4.297-2.352-5.556 3.54-6.387 11.76-12.65 13.28-1.284.31-2.616-.312-3.22-1.487-3.305-6.417 1.563-15.568-4.3-21.29-1.605-1.564-4.333-.6-4.716 1.61-1.61 9.28-3.195 18.413-4.798 27.66-.29 1.66-1.957 2.697-3.583 2.25-9.135-2.51-14.006-10.56-22.57-16.615-2.15-1.52-5.02.495-4.374 3.048 3.194 12.602 10.528 20.67 19.16 26.438 13.426 8.97 11.735 20.59 10.048 33.134-1.48 11-23.163 22.805 1.34 33.15 1.356.572.34 6.957.285 10.635-.065 4.352-.646 8.904 3.6 11.44 1.542.92 3.566.1 4.103-1.615 2.775-8.864-1.286-19.1 2.328-27.652.526-1.24 1.92-1.93 3.224-1.584 7.84 2.074 12.658 9.26 20.614 10.63 2.44.422 4.22-2.26 2.88-4.34-9.57-14.878-27.026-23.927-25.84-45.696M201.077 88.336c1.473-2.233 2.604-4.694 3.863-7.07.17-.32.385-.616.64-.877 5.712-5.816 13.77-10.61 12.34-20.157-.37-2.47-3.148-3.796-5.35-2.618-6.78 3.626-9.526 9.963-11.94 16.543-.24.656-.655 1.24-1.223 1.65-3.67 2.67-4.72 9.694-10.908 7.606-7.354-2.48-5.283-9.516-5.426-15.084-.19-7.338 3.02-15.264-.54-22.674-1.44-2.997-5.83-2.658-6.823.516-2.697 8.615-.085 17.05-1.154 25.037-.74 5.535 2.14 13.29-4.31 15.758-7.912 3.026-10.672-5.553-14.78-10.153-4.228-4.736-6.74-11.77-14.787-12.685-2.684-.305-4.796 2.346-3.863 4.88 4.158 11.294 10.627 20.723 19.592 27.63 18.356 14.144 17.23 28.65 3.828 44.844-6.767 8.37-13.404 16.853-20.36 25.063-3.37 3.98-4.55 8.73-.458 11.498 4.362 2.952 8.06-1.47 10.52-4.955 4.978-7.05 8.973-14.62 10.668-23.156.27-1.358 1.32-2.453 2.668-2.772 12.235-2.894 10.516 6.606 10.816 14.987.394 11.03-3.18 22.884 1.832 34.505 1.374 3.186 5.99 2.928 6.928-.412 2.182-7.775 1.338-14.606 1.386-21.3.213-28.825.125-28.8 24.945-15.702.187.1.432.087.735-.005 2.304-.702 3.124-3.572 1.746-5.55-2.523-3.62-4.924-7.17-7.708-10.386-22.206-25.67-22.242-25.616-2.88-54.964M275.73 317.068c-16.102-7.545-27.102 16.837-39.735 28.243-5.056 4.566-7.85 15.098-18 9.504-.53-.293-.92-.818-1.062-1.407-5.18-21.29 9.76-35.544 18.667-51.907.092-.167.21-.323.346-.46 9.292-9.272 10.3-20.905 6.74-32.324-5.63-18.048.763-30.072 14.445-41.78 21.08-18.04 16.66-46.11-7.64-58.064-.652-.322-1.13-.93-1.243-1.647-2.548-16.294 1.8-32.46 1.077-48.66-.28-6.26 4.463-14.246-2.786-19.102-1.05-.703-2.503-.42-3.16.66-3.622 5.946-2.847 12.636-2.373 19.274.006.077.008.154.005.23l-.408 13.283c-.005.118-.018.234-.04.347-5.095 24.695 1.612 53.968-31.044 67.26-10.285 4.187-14.1 17.905-13.546 30.657.248 5.716.77 13.333-2.405 16.947-11.876 13.512-7.227 22.443 5.253 30.91 1.1.746 2.61.383 3.228-.79 1.014-1.92 2.073-3.773 1.937-5.533-1.228-15.89 12.083-22.56 21.765-22.744 12.64-.237 6.373 14.882 9.04 23.023 2.128 6.49-.938 12.782-3.68 18.764-.062.133-.136.26-.22.38-8.125 11.3-17.29 21.985-21.33 35.725-.015.045-.03.092-.05.136-5.44 13.154-5.02 27.117-5.246 40.912-.072 4.446-2.662 10.865 4.936 12.388 5.607 1.125 9.554-1.886 13.2-5.873 9.824-10.736 19.935-21.21 29.796-31.913 4.108-4.458 8.08-8.19 13.666-3.04.43.397.663.966.678 1.547.21 8.533.418 17.065.622 25.598.08 3.28 1.06 6.13 4.993 4.785 4.723-1.617 3.07-5.74 2.828-9.19-.008-.117-.01-.23-.003-.35.84-15.992 14.518-39.334.75-45.785zm-22.206-130.842c5.53 13.008 6.367 23.15-5.09 34.3-1.304 1.27-3.51.54-3.768-1.262-1.74-12.253-1.932-22.114 4.948-33.35.927-1.515 3.214-1.324 3.91.312zm-20.38 31.21c-1.183 12.25-5.813 22.304-18.366 23.856-9.353 1.158-8.234-7.67-8.162-10.52.002-.077.008-.146.017-.222 1.937-15.413 6.61-26.27 18.94-27.785 7.995-.983 8.282 7.318 7.572 14.67z"/>
        </g>
        <g>
            <path d="M379.768 376.646c5.59.29 9.353-5.934 10.146-10.342 1.14-6.34-5.926-11.343-11.34-6.364-7.622-4.322-10.965.37-9.87 6.207.998 5.313 5.475 10.21 11.064 10.5z" fill="#D0011B"/>
            <path d="M302.573 186.81c6.52-4.854 19.794-4.377 26.277 0 13.835 9.34 7.22 25.69 7.22 34.247 0 4.642 1.972 9.993 8.408 14.914 4.262 3.26 12.385 5.806 17.105 7.218 8.866 2.652 23.1 38.407 25.922 44.135 2.822 5.728 1.673 8.344 1.673 10.808 0 2.442 3.243 7.28-7.838 44.87-1.654 5.607 1.886 10.398 1.886 22.483l.426 2.594 1.897-.15s2.503-1.93 3.065-1.93c.563 0 1.256 1.722.174 2.35-1.285.746-3.158 3.972-5.654 3.183-2.496-.79-2.634-2.54-2.634-2.54l-.54 3.074s1.524 2.632 3.054 2.632c1.53 0 2.4.48 2.977 1.096.576.616-1.735 1.702-1.735 1.702s-3.918.385-5.532.385c-1.615 0-2.953-1.628-2.953-1.628s-1.458 1.296-3.21 1.296c-1.753 0-4.606-4.24-4.606-4.24s-9.48 24.124-14.297 32.553c-4.82 8.43-4.287 18.75-2.144 23.932 2.144 5.182.125 19.996.125 21.682.925 1.49 7.65 20.197 9.805 21.915 2.154 1.717 2.328 6.964 2.946 9.492.62 2.53.875 19.382 2.22 21.845 1.347 2.464-1.384 13.514-5.165 14.205-3.78.692-4.747-1.605-4.747-1.605s-2.882 1.175-2.882-.257c-.883-.616-1.993-.432-1.993-1.523 0 0-3.126 0-3.126-3.615 0 0-1.987-.384-1.987-1.886 0-1.502-.077-6.013.955-8.455s3.108-17.522 2.07-21.315c-1.038-3.793-4.213-8.083-4.213-8.083s-5.16 20.305-5.16 23.25c0 2.944 1.173 10.34 1.938 11.773.764 1.432 3.456 6.235 4.926 8.045 1.47 1.81 8.066 3.47 7.328 9.083 0 1.097-1.078.686-1.078.686s-.898 3.403-2.785 2.722c0 0-2.187 2.692-2.826 1.346-.638 0-3.49 3.226-5.496.032 0 0-6.563 1.022-9.906-1.882-3.343-2.905-1.332-6.88-2.76-7.597-1.43-.718-3.86-.41-2.75-10.043 0-1.832-2.105-4.66-.04-10.515 2.063-5.857.81-29.836.81-36.012 0-6.175-.535-8.894-.535-12.222-1.44-2.07-12.586-21.97-12.586-30.85-2.22-2.192-7.177-11.96-7.177-19.838-2.742-4.522-9.318-44.132-3.417-66.81 3.417-13.132 7.505-23.172 11.992-32.73-1.397-2.5-11-15.934-11-21.13-1.598 0-19.415 17.85-22.566 18.888-3.15 1.037-7.702 6.416-11.68 1.45-3.98-4.966-5.522-11.027-5.864-15.2-1.165-14.192 3.658-36.825 2.686-39.467-.47-1.28-3.19-2.838-4.64-6.774-1.318-3.585-4.76-3.16-4.76-4.774 0-1.94 1.425-3.4 2.603-3.76.74-.225 2.158.36 2.158.36s3.294-3.405 4.64-1.163c0 0-1.18-4.923-2.288-7.41-.645-1.45-1.008-4.977 0-4.252.517.372 2.422 3.567 3.197 5.39 2.463 5.795 2.396 4.023 3.942 7.433 0-.75 6.58 9.418 5.626 13.763-.954 4.344-2.755 27.167 2.27 33.84 0 0 8.786-11.287 11.523-12.827 1.678-.944.956-17.36 24.153-27.416.83-.683 0-3.958 0-3.958-6.035-2.65-16.786-12.565-15.954-16.992-2.272-1.06-6.054-7.907-5.472-12.197.045-.336-1.217-10.76 8-17.623zm29.18 190.792c-1.586 8.317-3.17 15.012-3.67 19-.384 3.045 2.084 6.832 2.084 6.832s3.25-18.284 1.587-25.832zm33.47-94.728c1.142 1.855 5.465 10.1 7.93 12.424-.793 1.99-3.153 11.492-3.153 14.89 0 0-3.927-11.42-4.777-14.89-.85-3.47-.622-10.57 0-12.424z" fill="#4A4A4A"/>
            <path d="M160.41 148.273c-16.982 0 18.973 35.106 0 29.83-8.59-2.39-46.54 0-70.687-15.44-24.15-15.436-43.102-72.62 0-87.167-20.2-40.703 9.11-64.418 26.425-64.418 35.625 0 61.192 21.742 66.904 38.473 20.59-6.823 32.32-15.027 51.827 0 19.507-15.027 42.772-17.794 56.034 0 26.512 43.162-9.05 93.964-10.828 104.91-1.148 7.07-23.62 31.423-57.668 15.712-34.048-15.71-19.078-27.317-26.43-33.664-9.695-8.37-20.238-18.53-26.64-9.438" fill="#2F4764"/>
            <path d="M162.796 251.084s8.275 1.175 11.953-5.163c3.678-6.336 11.682-54.605 6.395-65.637-5.288-11.032-16.322-14.32-23.45-17.84-7.126-3.52-3.447-7.277-7.126-13.145-3.68-5.868-7.357-7.746-22.07-7.746 0 0 11.955-2.817 15.863-2.113 3.907.704 12.873 7.276 13.103 11.5.23 4.226 8.046 10.095 12.184 11.27 4.138 1.172 1.406-15.608-2.142-20.788-5.894-8.605-14.41-10.668-15.56-13.954-1.148-3.287-4.827-20.892-8.505-25.352-3.678-4.46-8.276-5.4-8.046-12.675.23-7.276 1.84-15.96 1.84-23.942 0-7.334-2.136-10.902-3.017-13.07-.08-.192-.146-.373-.202-.544-.69-2.113-.46-.94-.46-.94s9.195.94 5.287 38.966c0 0 4.14 8.685 7.817 10.093 3.678 1.41 10.522 24.367 13.28 25.54 2.76 1.174 13.37 10.04 15.438 6.99 2.07-3.05 7.834-6.943 9.213-16.098 1.38-9.154-.69-23.708 5.517-32.393 6.208-8.686 14.254-18.543 11.725-26.525 0 0 4.137 8.45-9.196 30.75 0 0-.46 6.808-.23 14.32.23 7.51 7.126-5.87 17.7-11.738 0 0 9.885-5.165 10.346-7.747 0 0-4.598 9.39-10.806 11.97-6.206 2.584-19.08 23.475-16.09 25.118 2.987 1.644 23.447-5.868 31.953-13.614s13.333-26.055 22.53-27.698c9.194-1.643 33.563-3.052 34.942-6.807 0 0 2.53 6.34-25.977 9.39 0 0-5.747-3.052-14.023 10.328-8.276 13.38-16.782 26.525-38.392 33.802-28.24 9.51-20.69 23.004-15.862 27.934 4.83 4.93 16.783-8.686 25.288-12.676 8.507-3.99 28.047-4.465 30.346-6.106 2.3-1.64 15.863-6.335 15.863-6.335s-12.645 11.267-22.99 11.032c-10.345-.235-40.69 12.44-37.93 35.914 2.757 23.473 1.543 23.038 2.785 39.885.355 4.804 5.762 29.913 16.796 35.93 11.035 6.018-56.092-.086-56.092-.086" fill="#EBA739"/>
            <g fill="#8D98A5">
                <path d="M118.622 130c3.292-1.61 3.472-6.37 2.527-9.145-1.36-3.994-6.996-4.614-8.515-.045-5.737-.055-6.162 3.693-3.682 6.688 2.258 2.726 6.377 4.11 9.67 2.5zM111.678 71.876c4.064 1.805 8.627-1.74 10.47-4.784 2.65-4.38-1.167-10.1-6.6-7.948-4.424-5.377-8.24-2.847-9.088 1.795-.773 4.223 1.155 9.13 5.218 10.936zM169.313 88.222c2.764-2.406 1.706-7.05.075-9.485-2.346-3.505-7.95-2.647-8.234 2.16-5.556 1.43-4.996 5.16-1.825 7.412 2.884 2.047 7.22 2.317 9.983-.088zM239.422 72.332c3.616 1.533 7.592-1.666 9.173-4.382 2.275-3.907-1.183-8.902-5.947-6.918-3.988-4.68-7.32-2.39-7.998 1.72-.62 3.743 1.157 8.048 4.772 9.58zM270.7 122.854c3.903-.415 5.826-5.14 5.89-8.28.094-4.52-5.35-7.207-8.554-3.162-5.756-2.157-7.556 1.462-6.155 5.385 1.276 3.57 4.916 6.47 8.82 6.057z" id="Oval-2"/>
            </g>
            <path d="M460.697 150.194c-20.092 10.203-24.414 31.642-32.738 30.957-38.858-3.196-67.79-28.69-70.55-49.398-2.563-19.203 8.605-34.206 21.215-48.706 5.875-6.754 2.395-25.203 29.803-24.157 27.408 1.045 31.554-22.077 49.497-37.375 7.72-6.58 27.372-3.032 35.002-9.81C500.24 5.21 509.15.095 518.63.645c9.477.55 14.308 3.247 19.55 13.69 6.734 13.42 27.374 6.865 30.114 21.086 9.08 47.128 57.09 37.768 59.02 60.888 1.93 23.12-13.11 29.463-13.794 40.318-.408 6.484 12.643 8.404 17.46 31.306 4.818 22.902-16.11 31.943-42.013 30.22-17.92-1.193-42.464-.236-52.994-17.905-10.53-17.668-10.667-32.403-29.712-40.007-19.044-7.603-25.472-.25-45.563 9.954z" fill="#77AB39"/>
            <path d="M584.94 115.978c-1.82.13-3.632.05-5.445-.24-1.25-.345-6.144-1.834-6.3-1.905 8.5-4.653 14.372-10.54 17.607-15.145 3.68-5.165 4.81-8.487 4.89-8.436-.07-.06-1.603 3.122-5.686 7.814-4.028 4.682-11.174 10.5-21.59 14.178-2.147.857-4.46 1.524-6.903 2.107-1.957.376-3.95.83-5.962 1.264-1.67.327-3.39.652-5.145 1-.35.058-3.306.68-4.454.937.364-.263 4.48-2.466 5.87-3.16 5.048-2.77 9.36-5.952 12.87-9.328.795-.747 1.516-1.513 2.178-2.286 5.96-6.667 7.626-14.92 9.958-21.048 3.914-14.62 7.743-23.186 7.464-23.28.28.087-3.935 8.532-8.237 23.025-.617 1.523-1.203 3.176-1.823 4.894-1.95 4.8-4.143 11.96-10.66 17.527-.786.696-1.62 1.38-2.486 2.056.333-1.033.768-2.412.8-3.698.135-2.204.09-4.04.003-5.458.003-9.475.414-15.274.566-15.266-.15-.03-.97 5.773-1.38 15.208-.12 2.344-.19 4.958-.968 7.482-.333 1.018-.843 1.984-1.496 2.887-.485.502-1.027.986-1.617 1.46-2.2 1.33-4.482 2.647-6.704 4.066-5.093 2.34-9.828 4.72-15.762 7.84-.555.292-3.607 1.832-4.61 2.294-7.157 3.282-12.937 9.042-18.696 15.005-1.74 1.798-3.1 3.056-4.377 5.235 2.07-12.42 7.276-30.17 7.276-30.17 2.406-8.182 6.96-11.265 11.952-14.662 1.113-.724 17.294-9.017 18.79-9.982 9.217-5.517 11.413-12.346 11.568-12.595-.18.197-3.085 6.59-12.388 11.206-4.39 2.385-9.956 4.265-16.074 7.13l2.106-2.226c4.305-4.533 8.377-8.978 11.618-13.604 2.992-4.82 5.57-9.298 7.39-13.712 7.545-17.615 6.213-29.803 6.65-29.637-.416-.175.025 12.045-8.134 28.97-1.912 4.148-11.432 17.4-12.828 19.173-2.09 2.288-4.344 4.58-6.688 6.93-3.96 3.99-8.21 8.184-12.022 13.092 1.67-7.742 2.072-14.698 1.838-21.004.58-6.15 1.703-11.962 3.443-17.38.654-2.335 1.312-4.585 1.93-6.794.787-1.948 1.664-3.752 2.7-5.298 3.333-3.828 8.464-5.233 11.966-7.16 7.264-3.78 9.452-8.734 9.73-8.83-.285.092-2.91 4.836-10.068 8.098-3.617 1.81-8.68 2.78-12.702 7.036.59-3.683-.025-7.31-.876-10.38-2.03-6.515-4.888-11.133-6.48-14.49-1.68-3.32-2.46-5.23-2.472-5.224.012-.005.6 1.973 2.007 5.43 1.318 3.468 3.82 8.347 5.367 14.68.666 3.156 1.03 6.74.04 10.315-1.046 3.657-2.446 7.645-3.785 11.843-.65 2.032-1.296 4.136-1.88 6.313-.81-6.38-1.886-11.91-2.896-16.542-1.26-5.444-2.414-9.65-3.266-12.542-.795-3.47-1.553-6.652-2.243-9.42-2.025-8.43-4.665-13.176-4.615-13.174-.044.01 2.21 4.894 3.82 13.35 1.504 7.48 3.304 17.266 5.594 28.484.46 4.24.84 8.994 1 14.228.138 2.916.16 5.936.014 9.058-.34-.48-.71-.93-1.12-1.344-.947-1.125-2.01-2.122-3.136-2.976-.324-.284-.68-.51-1.032-.73-1.26-.792-2.37-1.413-3.433-2.017-1.945-1.212-3.737-2.473-5.37-3.78-.86-.746-1.71-1.49-2.567-2.215-2-1.86-3.707-3.8-5.1-5.8-2.102-3.1-3.556-6.03-4.57-8.602-1.787-5.345-2.427-10.574-2.18-14.71.1-7.973-4.314-11.473-4.2-11.296-.07-.13 3.915 3.56 3.386 11.31-.643 6.415.502 15.493 5.505 24.02-5.238-2.544-10.38-2.24-13.61-4.995-.97-.62-1.848-1.275-2.653-1.944-3.677-3.762-6.97-7.452-9.563-10.532-5.16-7.11-9.72-10.322-9.718-10.266.03-.025 4.25 3.42 9.07 10.753 2.055 2.678 9.64 11.408 9.99 11.78 2.096 2.08 5.87 4.483 9.42 5.206 4.35.887 5.667 1.777 7.94 3.653 2.476 1.867 4.934 4.236 7.538 6.62 1.293 1.22 2.75 2.19 4.22 3.08-2.348-.028 10.023 8.193 10.536 11.98-.46 3.408-1.16 6.932-2.172 10.582-2.447 9.79-6.34 20.21-10.37 31.654-.932 2.676-1.915 5.56-2.908 8.567-1.246-5.828-3.377-11.283-6.113-15.943-3.206-5.768-8.73-12.43-10.41-15.166-1.677-2.736-.67-12.14.49-16.876 1.57-6.977.06-11.38.087-11.3-.015-.013.646 4.375-1.67 10.92-.964 3.205-2.518 7.2-2.563 11.974-6.665-10.538-9.69-20.575-12.15-27.32-2.427-7.26-3.77-11.283-3.774-11.28.005.002.954 4.12 2.798 11.56 2.048 7.34 8.078 26.086 11.95 31.197-2.16-1.378-4.413-2.567-6.69-3.645-.984-.512-1.965-.998-2.932-1.466-10.03-4.65-19.123-8.14-25.17-13.73-6.344-5.117-13.353-18.086-14.477-21.1-3.538-9.585-3.098-16.132-3.363-16.502.304.44-.74 9.507 5.014 22.055 1.41 3.546 7.3 13.275 9.592 15.726 6.033 6.448 19.975 12.404 27.16 15.98 4.804 2.48 9.987 5.356 13.89 9.448 2.222 2.32 3.44 4.23 3.55 4.358-3.477-1.09-6.828-.91-9.805-.78-2.49-.127-8.79-.193-9.95-.39-11.364-1.354-17.157-6.024-17.123-5.937-.073-.124 5.075 5.495 16.62 7.726 7.69 1.57 13.338-.195 19.76 2.08 1.897.636 3.338 1.768 4.522 3.235 3.83 7.33 6.674 15.508 6.45 24.98.02 1.456-.585 6.3-.84 7.242-1.83-2.678-4.147-4.778-6.372-6.656-6.898-5.617-15.033-8.43-22.52-10.095-11.413-2.43-21.896-3.194-30.963-4.755-2.202-.795-4.195-1.795-5.86-3.095-1.36-.942-2.247-2.162-3.075-3.38-1.086-1.597-1.87-6.136-1.963-7.655-.16-7.574.014-12.448-.16-12.415.17.047-.805 4.633-1.47 12.435-.197 3.423.228 8.522 3.882 12.182-10.64-2.79-17.937-8.376-21.702-13.244-1.38-1.75-2.417-3.3-3.196-4.57-2.014-4.36-2.525-8.908-2.365-12.815.148-5.324.242-9.734-.442-12.684-.63-2.955-1.495-4.417-1.448-4.43-.047.01.725 1.522 1.197 4.474.525 2.953.232 7.256-.12 12.618-.44 5.297.398 12.245 4.817 18.174 2.562 3.656 6.12 6.86 10.28 9.49 3.38 2.375 7.48 4.54 12.288 6.137.558.203 1.128.393 1.702.582-.574.065-1.145.134-1.71.213-5.75.497-11.038 3.067-15.444 4.753-4.625 1.64-9.152 2.606-13.304 3.257-.327.053-.646.096-.967.143-2.354.162-4.654.24-6.876.24-6.247-.017-11.89-.334-16.39-1.674-8.83-2.475-12.204-7.847-12.572-8.018.344.184 3.236 5.574 11.724 8.576-1.328-.35-2.02-.61-1.986-.587-.145-.116 9.97 4.796 27.276 2.915.87-.078 4.782-.575 6.22-.904 1.72-.32 8.533-2.188 9.004-2.356-.456.465 9.213-3.354 13.668-3.645 3.374-.376 7.8-.737 10.843-.263 3.044.474 12.895 2.298 20.014 3.787-5.155.585-9.748 2.204-13.323 4.307-.8.495-13.623 13.148-16.167 17.847-1.537 3.005-4.193 4.497-6.022 4.886-1.91.364-2.928-.362-2.932-.26.01-.11.95.727 2.973.505 1.936-.255 4.835-1.6 6.692-4.737 2.945-4.767 15.596-16.27 18.573-17.92 7.35-2.988 17.15-3.037 26.964.19 3.883 1.647 7.582 3.754 10.822 6.524 2.83 2.474 5.5 5.237 6.518 8.34.63 1.748.877 5.865.526 8.363-2.056 14.573-8.09 47.92-7.98 83.948h23.25c-4.74-33.534-4.082-60.962-1.17-86.73.652-5.3 6.534-9.125 8.338-10.236 6.56-3.696 13.762-5.337 20.885-5.843 1.856.138 3.37.4 4.79.792 3.142 1.103 19.273 18.068 23.496 20.716 6.508 4.08 12.552 7.34 17.936 9.38 10.702 4.306 17.856 5.35 17.868 5.032-.037.313-7.065-1.12-17.554-5.774-4.81-2.017-17.013-8.29-27.09-18.61-1.024-1.05-4.41-4.915-5.092-5.81-1.666-1.953-3.38-4.257-5.914-6.007 41.516 1.072 51.476-2.07 56.684-5.135 5.495-3.222 7.455-6.218 7.542-6.095-.073-.124-2.406 2.62-8.004 5.2-2.586 1.195-5.893 2.135-9.78 2.734.848-.864 1.5-1.787 2.09-2.605 2.164-3.328 2.148-5.857 2.21-5.81-.052-.04-.48 2.415-2.87 5.34-.955 1.097-2.218 2.493-3.795 3.39-3.977.442-8.48.545-13.405.218-11.062-.593-24.214-2.638-39.418-2.393-7.393.2-21.27 3.395-27.37 8.632 1.518-4.37 6.963-10.314 9.68-14.138 5.305-7.462 8.936-10.998 16.843-15.317 6.23-3.402 36.203-11.893 38.654-11.845 3.317.066 5.61 1.104 7.5 1.452 1.51.266 10.312-.284 9.99-.35 4.606-.774 8.525-2.272 11.844-3.778 2.226-1.055 4.09-2.162 5.643-3.216.23-.153.457-.31.68-.465 9.262-6.51 12.013-13.235 12.24-12.95-.214-.303-3.618 6.807-13.755 13.008-5.054 2.923-11.93 5.28-19.63 5.91z" fill="#705033"/>
            <g fill="#985C26">
                <path d="M418.57 97.932c3.484 1.13 6.92-2.167 8.167-4.82 1.797-3.815-1.824-8.176-6.09-5.945-4.088-4.026-6.996-1.625-7.293 2.25-.27 3.53 1.73 7.385 5.215 8.515zM377.138 131.23c4.414-.546 6.5-5.936 6.512-9.495.017-5.12-6.204-8.057-9.752-3.413-6.562-2.33-8.53 1.803-6.866 6.22 1.513 4.02 5.693 7.233 10.106 6.688zM407.964 164.534c3.375 1.43 7.088-1.556 8.565-4.09 2.123-3.65-1.106-8.313-5.555-6.462-3.723-4.37-6.833-2.23-7.468 1.608-.577 3.494 1.08 7.513 4.457 8.944zM449.642 64.513c3.582-.766 4.906-5.34 4.66-8.262-.355-4.202-5.673-6.165-8.25-2.098-5.554-1.44-6.87 2.095-5.188 5.6 1.532 3.19 5.195 5.527 8.778 4.76zM603.8 179.725c3.467 1.84 7.706-1 9.518-3.568 2.606-3.695-.405-8.97-5.323-7.41-3.566-5.01-7.083-3.016-8.117 1.02-.942 3.675.453 8.117 3.92 9.958zM572.01 136.934c3.33-.71 4.558-4.96 4.33-7.676-.33-3.905-5.27-5.73-7.665-1.95-5.16-1.338-6.383 1.946-4.82 5.202 1.424 2.964 4.826 5.136 8.155 4.424z" id="Oval-2"/>
                <path d="M496.84 100.266c4.03 1.874 8.654-1.592 10.55-4.604 2.724-4.333-.996-10.12-6.465-8.06-4.33-5.45-8.19-2.986-9.117 1.64-.844 4.21 1 9.15 5.03 11.024z"/>
            </g>
        </g>
    </g>
</svg>
