<svg width="581" height="424" viewBox="0 0 581 424" xmlns="http://www.w3.org/2000/svg">
    <title>
        tian
    </title>
    <g fill="none" fill-rule="evenodd">
        <text font-family="Open Sans" font-size="16" font-weight="260" fill="#4A4A4A" transform="translate(-112 -9.849)">
            <tspan x="201.195" y="429">The bigest one</tspan>
        </text>
        <text font-family="Open Sans" font-size="36" font-weight="bold" fill="#4A4A4A" transform="translate(-112 -9.849)">
            <tspan x="151.5" y="399">God, Heven</tspan>
        </text>
        <text font-family="Open Sans" font-size="36" font-weight="260" fill="#4A4A4A" transform="translate(-112 -9.849)">
            <tspan x="633" y="156">big</tspan>
        </text>
        <text font-family="Open Sans" font-size="36" font-weight="260" fill="#4A4A4A" transform="translate(-112 -9.849)">
            <tspan x="633" y="39">one</tspan>
        </text>
        <path d="M1.346 330.5v10.554h281.308V330.5M249.483 135.65H510.5M232.5 15.65h278" stroke="#4A4A4A" stroke-linecap="round" stroke-linejoin="round" stroke-dasharray="1,4"/>
        <g fill="#000">
            <path d="M128.284 185.568c-16.288 27.552-29.514 56.024-54.623 76.08-5.49 4.392-11.017 12.033-17.54 6.255-7.01-6.217.692-11.958 4.744-17.637 15.845-22.207 31.82-44.198 46.312-67.52 15.056-24.22 11.528-49.852 17.108-77.442 1.052-5.198-4.387-9.354-9.094-6.915-32.222 16.697-58.793 38.367-89.415 51.06-6.18 2.56-11.642-5.24-7.095-10.146 12.005-12.934 28.496-20.028 42.783-29.65 12.043-8.114 24.91-14.84 38.142-20.83 27.17-12.303 36.147-39.195 24.453-62.605-4.49-8.99 41.614-13.1 35.396-3.256-4.206 6.657-20.712 19.03-11.24 43.415 1.353 3.495 3.348 4.103 6.523 5.037 36.08 10.66 63 38.637 97.764 51.934 9.628 3.685 14.718 10.845 8.51 20.75-6.58 10.492-13.56 8.364-23.004 1.147-21.142-16.16-42.873-31.868-65.85-45.203-21.853-12.68-25.636-7.438-29.306 16.005-6.094 38.933 18.02 61.806 39.972 86.278 15.014 16.735 31.99 31.617 45.39 49.966 5.355 7.33 7.973 15.076 2.303 20.765-4.6 4.62-10.65-1.7-16.005-5.185-32.084-20.887-49.09-55.33-76.16-83.397-2.915-3.018-7.934-2.523-10.066 1.09zM121.284 26.22c-26.74 5.49-53.906 1.674-81.962 2.584-4.694.156-7.953-4.83-5.887-9.052 3.604-7.344 9.778-10.48 19.118-9.726 42.255 3.415 84.038-6.057 126.174-4.57 13.383.47 25.227-6.718 38.897-5.26 11.976 1.278 24.27 7.348 22.82 16.745-1.55 10.043-16.867 15.524-27.07 11.02-12.472-5.505-24.458-3.32-36.59-3.623-26.075-.646-52.118 1.19-55.5 1.882z"/>
        </g>
    </g>
</svg>
