<svg width="618" height="524" viewBox="0 0 618 524" xmlns="http://www.w3.org/2000/svg">
    <title>
        yi
    </title>
    <g fill="none" fill-rule="evenodd">
        <text font-family="Open Sans" font-size="16" font-weight="260" fill="#4A4A4A" transform="translate(0 21.151)">
            <tspan x="0" y="454">God presented Christ as a sacrifice of atonement, through the shedding of his blood—</tspan> <tspan x="0" y="476">to be received by faith. He did this to demonstrate his righteousness, because in his </tspan> <tspan x="0" y="498">forbearance he had left the sins committed beforehand unpunished. - </tspan> <tspan x="505.641" y="498" font-weight="bold">Romans 3:25</tspan>
        </text>
        <text font-family="Open Sans" font-size="36" font-weight="bold" fill="#4A4A4A" transform="translate(0 21.151)">
            <tspan x="88.5" y="419">righteous</tspan>
        </text>
        <text font-family="Open Sans" font-size="36" font-weight="260" fill="#4A4A4A" transform="translate(0 21.151)">
            <tspan x="513" y="156">me</tspan>
        </text>
        <text font-family="Open Sans" font-size="36" font-weight="260" fill="#4A4A4A" transform="translate(0 21.151)">
            <tspan x="513" y="39">lamb</tspan>
        </text>
        <path d="M23.346 381.5v10.554h281.308V381.5M241.483 166.65H502.5M224.5 46.65h278" stroke="#4A4A4A" stroke-linecap="round" stroke-linejoin="round" stroke-dasharray="1,4"/>
        <g fill="#000">
            <path d="M105.905 49.99c-4.394 1.627-8.383-3.25-5.946-7.25 8.346-13.688 16.946-24.98 26.54-35.767 8.107-9.108 13.967-7.848 20.9.236 2.06 2.4 5.607 4.13 6.514 6.83 5.746 17.08 13.785 10.75 23.303 3.368C184.382 11.85 187.887-1.88 199 1.918c8.437 2.886 7.537 15.3 11.755 22.833 4.24 7.575 9.853 14.466 11.975 23.037.315 1.28.356 2.62.27 4.084-.23 3.85-4.72 5.925-7.836 3.654-7.743-5.65-13.272-12.818-19.282-19.162-9.187-9.706-14.204-4.593-18.852 2.94-2.494 4.04-4.053 8.593-4.696 13.3-1.292 9.45-2.166 18.96 13.14 16 3.49-.674 8.09-.792 10.76.977 2.546 1.682 7.8.832 7.646 6.317-.12 4.362-2.284 8.01-5.952 8.112-7.21.197-11.787 6.664-18.738 6.702-3.808.023-6.97-.337-7.403 5.396-.423 5.57 2.602 7.282 6.483 8.93 8.14 3.455 16.693 1.06 25.04 1.486 4.626.235 8.854 1.135 9.612 5.923.674 4.286-3.76 5.304-6.824 7.384-5.876 4-12.12 2.206-18.233 2.72-19.778 1.668-39.836-3.288-59.475 2.833-5.233 1.628-9.642-.83-10.288-6.726-.64-5.812 2.87-9.33 8.472-8.653 7.09.862 13.145-2.69 19.765-3.223 4.638-.374 9.27-1.427 9.273-6.215.003-4.883-4.498-8.29-9.102-9.576-3.447-.965-7.364-.294-11.073-.27-4.33.024-7.276-2.4-7.603-6.284-.277-3.312 2.863-5.864 5.926-6.115 6.242-.508 8.202-6.467 13.715-6.66 9.46-.33 9.633-7.385 8.43-13.604-2.233-11.526-9.26-20.8-18.053-28.037-4.372-3.602-7.807.047-11.075 4.904-4.963 7.378-11.962 11.77-20.872 15.067M263.702 279.836c-5.252-2.61-8.612 1.49-12.328 5.224-11.758 11.82-24.11 23.05-36.226 34.515-3.655 3.46-8.045 6.64-11.11.273-11.84-24.576-17.512-50.65-15.756-77.91.318-4.932.194-12.7 12.064-8.966 11.554 3.636 25.202 1.584 37.784.44 4.133-.38 12.19-.758 12.64-5.692.61-6.783-7.635-8.952-12.41-9.293-15.548-1.11-30.096-8.383-45.987-6.916-2.675.25-7.053 1.61-7.333-3.22-.187-3.177-1.56-5.79 2.86-9.16 4.1-3.13 2.587-3.026 6.932-7.242 11.323-10.978 28.095-13.676 38.103-26.59 4.098-5.29 9.312-10.71 4.26-15.845-2.955-3.004-10.368-4.187-15.608 3.43-4.326 6.29-12.865 9.938-19.975 13.987-8.882 5.062-18.204 9.955-21.878-6.025-.487-2.128-.557-7.33-5.33-6.073-3.813 1-5.525 4.066-5.63 8.31-.28 11.35-3.518 24.088-1.37 33.658 2.945 13.133-5.152 18.21-10.652 16.998-9.913-2.183-23.195 4.778-30.096-9.818-7.148-15.114-4.797-30.646-5.624-46.15-.51-9.565-8.074-16.548-15.236-17.35-5.596-.626-4.12 9.615-3.563 14.943 1.18 11.256-2.532 15.996-14.122 19.225-8.954 2.498-18.256 4.2-27.005 9.656-3.305 2.064-11.05 1.49-7.96 8.1 2.31 4.94 6.59 7.638 14.148 5.236 10.67-3.395 21.976-6.356 33.617-5.036 2.88.327 5.952-.88 7.505 3.57 3.757 10.77-2.176 25.54-11.755 32.532-12.974 9.474-28.85 14.84-41.692 26.697-2.637 2.437-1.09 6.777 2.485 7.072 17.694 1.477 30.432-10.304 44.958-16.966 2.59-1.187 5.543.7 5.687 3.547.054 1.088.155 2.1.384 3.082 6.21 26.513 6.122 26.33-16.192 42.432-6.184 4.467-11.55 10.133-16.95 15.592-2.243 2.268-7.794 4.784-3.74 8.405 2.172 1.943 5.65 5.99 10.822 3.425 8.672-4.298 18.15-7.075 26.116-13.387 2.258-1.79 5.61-.668 6.384 2.11 2.243 8.077 4.346 15.48 6.064 22.968.862 3.748 1.53 7.916 5.962 6.894 3.404-.785 7.845-2.258 7.04-8.338-1.377-10.387 2.428-21.404-1.905-31.272-2.662-6.064 2.708-11.78 3.306-11.755 12.334.518 18.153-10.448 26.415-15.926 8.752-5.804 9.306 1.54 9.487 4.07 1.197 16.744 7.995 32.034 14.526 46.623 5.425 12.118 3.525 19.524-4.546 27.786-4.835 4.953-6.74 14.608-4.495 17.207 4.88 5.647 11.908.79 15.795-4.18 5.545-7.09 12.894-5.848 20.157-7.28 4.225-.833 27.687 14.524 11.533-10.38-1.03-1.594 3.776-4.078 5.484-5.574 15.364-13.463 23.58-31.71 33.708-48.607 2.09-3.493 8.01-9.204.254-13.06zM154.646 259.88c-3.786 1.193-6.923 4.346-10.46 6.42-10.305 6.04-15.69 3.39-16.7-8.14-.092-1.05.103-2.133-.047-3.167-3.497-24.286-3.5-24.286 21.136-24.295 7.778.474 17.83-3.102 19.97 8.805 1.917 10.677-3.63 17.142-13.9 20.377z"/>
        </g>
        <g>
            <path d="M371.42 179.083c9.073 5.382 19.202 12.37 29.138 13.58 18.936 2.31 46.674 2.758 59.917-4.783 13.243-7.54 74.868-22.45 109.012.116 34.144 22.567 24.575 71.275 14.716 92.042-9.858 20.766-6.002 26.777-3 30.87 3 4.095 1.272 12.235-.492 16.166-1.763 3.93-5.91 42.813-5.91 50.427 0 7.616-26.176 15.725-26.176 9.434 0-6.29 13.46-19.88 15.97-41.27 2.51-21.39-11.386-44.52-7.148-57.847 1.07-3.363-12.75-2.8-9.494 7.828 3.255 10.63 5.256 18.278 5.256 26.68 0 8.4-10.678 41.468-10.678 46.07 0 4.602-6.056 15.264-15.042 15.264-8.987 0-17.316-6.39-4.984-16.38 12.332-9.99 11.786-36.276 11.786-42.58 0-6.306-2.073-18.312-6.93-16.052-4.856 2.26-37.28 19.615-72.54 2.44-10.424-5.075-3.44 5.83-3.44 12.497s-3.787 26.52 10.077 50.164c7.732 13.184-8.618 18.433-16.31 18.433-5.036 0-6.392-7.312-2.207-16.107 4.185-8.795-13.333-45.088-10.677-57.928-2.656 8.926-4.146 33.02.274 41.47 4.42 8.452 2.142 15.022-3.42 18.704-5.56 3.682-7.565 4.77-14.33 2.385-2.752-.97-1.776-5.308 2.126-14.537 6.458-15.275-1.75-34.805-1.75-44.943 0-10.138-3.207-17.56-11.974-19.728-23.677-5.855-40.047-21.462-52.91-50.505-4.385-9.905-7.41-19.182-9.277-27.648-8.704 2.095-16.763 1.953-20.788 6.3-2.554 2.756-11.533 3.218-14.567-2.08-.312-.546-.562-1.152-.734-1.824-4.34-.712-6.8-5.88-4.34-9.675-1.544-5.018-.74-7.905 3.246-13.474 7.032-11.286 13.326-22.11 19.427-29.033-5.108-3-9.256-9.426-9.256-19.236 0-12.87 11.046 6.468 23.92 11.038.593.21 1.077.465 1.464.755 5.352.515 12.94 2.115 19.176 5.682 1.814-9.04 23.428-23.746 16.87-6.504-1.86 4.89-2.86 9.84-4 13.787" fill="#FFF"/>
            <path d="M119.008 176.983c-13.828-7.235-18.7-37.52-7.287-51.243 15.29-18.385 66.178-15.092 64.024 26.718-.422 8.192-6.186 16.258-10.85 30.56 0 0 53.28-57.39 60.448-61.263l4.18-.156s4.143-5.463 6.51-9.69c2.368-4.226 1.9-8.398 11.664-4.38 5.555 2.284 6.336 1.767 4.676 5.6 0 0 6.74 1.39 1.03 5.806l-3.377 1.753s-2.56 6.27-5.288 6.27l-3.34-1.22-3.092 3.333 1.07 5.944s-13.556 6.82-23.615 23.226c-10.058 16.407-29.91 34.342-29.91 41.73 0 7.388 7.8 67.105 9.366 73.668 1.565 6.563 5.02 35.855-1.03 68.118l-8.84.944s-8.222 19.603-12.814 28.227c-4.592 8.624-24.78 37.498-24.78 42.377 0 4.88-2.664 22.948-9.953 22.948-7.29 0-18.138-2.036-17.093-16.957 1.045-14.92 4.436-37.974 11.862-36.222 7.425 1.75 17.314-9.305 21.532-20.025 4.22-10.72 8.17-17.307 8.17-17.307l-10.84-3.04-13.633 13.91s-5.918 9.448-15.043 0c-9.125-9.45-15.52-21.905-15.52-21.905l-16.29-38.104s-22.548-14.018-18.21-21.556c2.204-3.83 42.25 5.36 42.25 10.584 0 5.222-3.266 7.997-3.266 7.997s12.948 41.32 22.455 29.5c-4.663-1.657-15.167-18.838-15.167-18.838s3.03-11.8 3.75-21.892c1.214-17.055 2.817-40.96-7.09-57.692-11.408-26.55-64.995-43.946-64.995-43.946l-21.59-3.78.67-5.685-1.257-4.377-12.305 1.916s-4.506.182-6.644-3.426-11.31-13.263-2.468-19.44c6.245-4.363 10.767.034 10.767.034l10.65 8.436 5.65 3.11s44.804 13.573 80.842 27.457c31.22 12.027 19.188-.088 4.02-8.024z" fill="#4A4A4A"/>
            <g fill="#D0011B">
                <path d="M364.214 287.996c-1.634 7.353-5.256 12.416-.418 12.093 6.023-.403 3.217-7.08.418-12.094zM364.854 254.996c-.864 5.516-4.326 9.465-.39 9.175 4.5-.33 2.34-5.48.39-9.174z"/>
            </g>
        </g>
    </g>
</svg>
