<svg width="700" height="561" viewBox="0 0 700 561" xmlns="http://www.w3.org/2000/svg" xmlns:xlink="http://www.w3.org/1999/xlink">
    <title>
        zui
    </title>
    <defs>
        <path id="a" d="M401.162 473.04c-62.104 7.177-46.488 43.337-53.97 64.59-78.778-11.577-170.844-33.946-231.197-82.27C-.485 362.097-38.017 228.16 47.877 97.88c107.62-163.236 299.39-95.06 353.285 18.946 53.896 114.006 17.054 249.974 60.434 314.062 6.427 9.495 13.85 18.032 21.88 25.696-15.164 8.887-48.085 12.502-82.314 16.457z"/>
    </defs>
    <g fill="none" fill-rule="evenodd">
        <text font-family="Open Sans" font-size="36" font-weight="bold" fill="#4A4A4A" transform="translate(1 108.15)">
            <tspan x="113.5" y="399">Sin</tspan>
        </text>
        <text font-family="Open Sans" font-size="36" font-weight="260" fill="#4A4A4A" transform="translate(1 108.15)">
            <tspan x="486" y="156">broken wings</tspan>
        </text>
        <text font-family="Open Sans" font-size="36" font-weight="260" fill="#4A4A4A" transform="translate(1 108.15)">
            <tspan x="486" y="39">net</tspan>
        </text>
        <path d="M1.346 448.498v10.555h281.308v-10.555M161.45 255.92h306.204M264.5 133.65h203.036" stroke="#4A4A4A" stroke-linecap="round" stroke-linejoin="round" stroke-dasharray="1,4"/>
        <g fill="#000">
            <path d="M170.258 257.415c-6.055 21.06.458 31.572 18.42 37.66 10.36 3.513 19.513 10.937 28.74 17.276 3.99 2.738 7.557 7.442 4.298 12.675-3.16 5.076-7.572 7.48-14.31 4.34-10.686-4.976-21.872-8.86-33.533-13.48-3.19 17.72 5.665 28.992 17.284 38.924 5.27 4.503 11.17 8.312 16.207 13.054 4.996 4.703 3.653 10.263-.415 14.856-2.865 3.237-5.92 4.28-10.878 1.53-30.216-16.793-50.91-38.606-48.847-76.568 1.487-27.305-.005-54.77-.056-82.166-.013-6.453 1.22-14.262 7.783-15.423 6.644-1.17 12.983 2.957 15.983 10.627 7.827 20 30.03 24.186 43.39 38.432 6.31 6.73 12.746 11.53 6.174 20.708-7.95 11.097-14.767 1.89-21.27-2.267-9.302-5.94-18.15-12.59-28.972-20.178M107.225 261.686c-15.098 7.953-25.174 19.59-39.513 24.462-3.843 1.305-7.606 4.453-11.674.707-4.69-4.317.38-7.597 1.52-11.13 5.518-17.124 22.955-21.475 34.836-31.768 7.475-6.474 19.733-8.275 13.852-23.754-2.784-7.322 6.58-12.822 12.92-13.915 7.885-1.36 14.618 7.843 14.313 12.644-2.768 43.737 9.766 88.356-8.374 131.33-6.856 16.242-22.004 20.632-34.02 29.687-3.357 2.528-6.302 1.948-9.035-1.217-4.872-5.64-2.465-10.467 1.653-14.937 11.39-12.373 23.818-24.06 27.31-44.402-17.98 2.457-29.216 17.678-47.78 20.156-3.318-22.16 14.19-29.712 27.76-38.648 15.058-9.915 24.477-20.746 16.232-39.216"/>
            <path d="M255.716 149.47c-3.402-13.746-12.822-26.937-26.008-27.932-19.034-1.437-36.72-8.907-55.242-9.712-33.8-1.466-67.72-.72-101.58-.31-21.975.267-36.212 13.484-39.937 35.61-2.67 15.857-8.33 31.9-7.323 47.513 1.37 21.156-10.877 42.465 1.19 63.368 3.586 6.203 6.708 14.64 14.36 12.89 7.463-1.704 6.713-11.23 7.72-17.898.387-2.54-1.905-5.373-2.024-8.12-1.356-30.8.466-61.177 10.593-91.72 15.987 11.678 27.17 21.382 8.153 37.412-5.552 4.678-3.6 12.644-1.54 20.495.26.98 1.3 1.543 2.255 1.195 2.843-1.046 5.22-1.614 6.75-3.076 14.644-14.01 28.7-29.136 49.974-9.39 2.165 2.01 8.89 2.492 11.14-1.983 2.266-4.496-2.666-7.275-4.802-10.758-5.02-8.187-18.923-15.373-7.39-26.53 7.458-7.212 11.65-17.02 22.08-25.335 3.264 10.076 1.687 19.326 9.993 24.59 12.937 8.194 17.666 17.122 2.106 27.872-4.13 2.856-7.224 7.59-3.076 12.653 4.276 5.22 9.187 5.343 14.572.66 7.606-6.61 15.195-12.817 25.856-3.885 4.263 3.568 9.767 11.042 15.996 5.73 5.055-4.31 2.123-11.933.48-18.086-.912-3.398-2.832-6.75-2.836-10.127-.02-11.814 6.924-21.822 16.725-24.292 9.822-2.475 12.2 9.953 14.453 17.326 2.402 7.865 1.458 16.696 2.61 25.018 3.534 25.517-3.563 51.394 2.814 76.805 1.03 4.09 1.148 9.87 5.987 9.758 3.19-.07 7.064-4.253 9.195-7.528 2.186-3.36 2.97-7.788 3.784-11.865 7.457-37.39 1.962-74.06-7.03-110.347zm-171.58-10.492c3.788-1.39 12.394-3.932 15.936-3.84 6.394.17 4.496 3.035 2.83 5.243-9.677 12.802-11.33 6.514-18.766-1.402zm113.614 3.62c-3.165 6.317-8.48 11.838-15.83 9.43-5.475-1.787-9.81-7.062-15.102-11.13 9.114-4.318 20.093-.293 27.072-3.026 3.957-1.55 4.7 3.047 3.86 4.725z"/>
        </g>
        <g>
            <path d="M215.58 244.16s1.998-1.642 9.41.488c7.412 2.12 6.073 1.29 6.073 1.29s1.606-1.73 7.03.665c5.423 2.397 8.672 5.294 12.097 6.022 3.432.73 10.978 2.886 17.19-7.518 6.21-10.406 8.254-17.416 9.792-17.504.365-1.717-.482-4.245-1.554-5.016-1.077-.785-2.665-9.537.198-16.512.842-3.958.712-6.607-.352-8.077-1.065-1.467-4.77-22.947-5.844-32.83-.22-1.563.28-1.32 2.427 2.862 2.146 4.18 5.218 10.486 6.096 12.192.878 1.705 1.7-.88 1.112-4.588-.536-3.394-5.394-29.833-7.956-38.093-1.49-4.782 1.312-2.902 3.375 1.256 2.224 4.47 12.476 27.613 11.766 38.085-.518 3.068 1.378 1.95 2.21-1.316.837-3.272 4.86-36.482 4.323-44.325-.406-5.943 2.757-1.494 4.32 4.51 3.084 11.854 1.25 33.147-1.528 44.633 3.707-4.453 11.31-37.947 12.884-54.44.11-6.033 3.46-6.218 3.068 8.6-.392 14.81-2.607 36.264-4.947 45.974 5.024-4.165 14.652-17.02 17.852-32.064 1.123-5.28 3.18-2.294 1.576 7.852-1.608 10.136-5.18 27.59-7.04 32.435 11.357-6.688 16.12-15.13 20.047-16.772 3.942-1.646-.742 17.774-3.973 22.604 5.25-1.365 6.91-2.667 6.825 4.212-.085 6.876-2.503 10.502-2.95 12.61 4.234-.476 6.135-.347 5.802 3.168-.334 3.516-.802 7-2.408 8.728 1.99 1.667 4.746 8.18.123 13.682 1.09 2.023 2.15 4.182 1.254 5.784-.893 1.605-5.148 5.388-5.344 6.31 1.756 1.48 2.667 6.915-.466 9.974-3.13 3.05-5.17.97-3.816 4.98 1.54 3.776 3.643 9.465 2.43 13.205-2.294-2.83-3.783-4.252-4.932-3.39-1.15.856-.93 2.42.372 4.073 1.305 1.66 2.97 6.152.92 7.37-2.055 1.222-1.18.994 1.3 1.66 2.482.665 5.467-.152 6.392 1.985.92 2.132 1.273 2.76-.332 2.204-1.61-.547-3.102-.998-2.135-.03.966.965 3.29 3.674 3.747 5.086 0 0 8.843 1.603 9.325 8.08.488 6.464-3.472 2.374-4.453 1.472-.984-.905-1.932-1.308-1.82.096.117 1.406 6.518 5.74 6.28 8.17-.245 2.434-3.263.412-3.263.412l2.164 2.803s-.093 5.64-3.706 4.453c-3.607-1.18-5.32-2.233-4.595-.423.716 1.808 8.004 5.15 6.137 8.75-2.96-1.04-3.82-1.502-3.82-1.502s2.25 2.412 2.277 4.204c.03 1.81.21 4.193-4.095 3.687-4.31-.502-6.21-.63-6.21-.63s4.837 3.14 4.84 6.392c-.01 3.255-.57 3.963-2.33 2.824.392 1.407.43 2.52.154 3.503-.276.978-6.307.107-8.71-1.574-2.402-1.693-1.95.754-.673 2.207 1.28 1.448 3.7 4.663 3.892 6.362.192 1.703-1.08 2.475-1.91 2.157-1.383-1.615-2.475-2.952-2.475-2.952s2.506 4.758 1.315 5.817c-1.192 1.067-2.888-.063-4.506-1.856-1.62-1.8-3.438.58-3.128 1.408.307.83 4.858 5.395 3.366 6.872-1.487 1.49-2.807 1.21-2.807 1.21s-1.6 1.667-2.904.006c-1.3-1.662-3.312-5.827-4.642-6.385-1.33-.564-.13 3.848.857 6.338.99 2.497-.64 2.7-2.36 1.023-1.706-1.68-2.742-.72-1.1 1.29 1.646 2.012 3.345 4.103-.53 4.105-3.86.014-7.76-6.01-9.62-7.646.273 2.614 1.554 11.195-2.788 13.108-4.34 1.914-8.862-6.04-8.862-6.04s-.805-.1-.915 2.368c-.114 2.472-1.39 3.924-2.077 2.605-.683-1.324-1.423-1.413-1.55-.815-.126.595.628 3.87-2.314 1.79-2.94-2.078-5.692-8.272-6.178-9.897.413 4.867-4.033 13.127-7.34 8.894-3.316-4.238-5.965-11.238-5.227-15.025-1.896 4.373-6.006 6.807-8.496 4.897-2.49-1.907-2.357-6.428-2.104-7.618 0 0-1.94.33-3.007.173-.282 1.323-4.57 6.226-8.65 3.976-3.397 1.7-5.024 5.786-9.52 5.17-3.04 1.983-7.63 3.778-10.585 2.738-4.182 2.775-10.86 5.302-10.7 2.91.164-2.38-.215-4.818-1.66-4.85-1.44-.03-4.003 5.864-4.383 7.65-.38 1.79-7.255 3.578-9.37-.398-4.516 1.737-6.82 8.595-11.296 8.887-4.476.285-6.59-2.095-6.933-4.374-4.994 4.043-5.387 9.75-11.092 9.365-5.71-.384-5.513-3.93-1.77-11.135 0 0-2.312 3.098-12.782 10.8-10.464 7.706-10.188.87-5.684-3.42 4.494-4.28 5.81-11.45 7.11-13.66-8.89 8.384-17.82 16.346-26.755 15.55-8.937-.8-2.865-4.053 1.256-7.862 4.12-3.815 9.69-11.185 12.267-14.22 2.58-3.04 4.276-5.847 4.276-5.847s-20.327 15.812-39.1 14.577c-18.768-1.237-10.95-2.33-1.16-6.865 9.792-4.54 28.493-14.633 32.798-20.614-10.13 1.514-20.938 9.864-40.693 8.448-7.546-.54-1.664-2.56 5.832-5.376 7.5-2.818 29.3-10.667 35.593-14.297-8.347-.047-26.66 6.158-40.762 4.218-4.585-.632-4.917-1.458 1.214-2.877 14.13-3.27 26.2-5.47 39.875-11.96-11.51 2.243-31.51 1.573-41.886-6.702 11.63 1.093 41.2 2.143 49.448-1.623-11.307-1.297-20.977-2.533-23.755-5.052 6.01-2.305 10.496-1.35 16.304-.116 5.808 1.235 28.09-1.065 31.978-3.132 3.888-2.072 13.414-6.665 24.666-7.03 6.878-3.778 31.898-13.768 33.986-22.288 2.088-8.523 1.6-7.523-.29-10.96-1.89-3.438-5.008-10.166-6.002-13.277-.997-3.11-2.95-5.59-3.783-6.872-.83-1.282-4.764-2.255-4.52-6.618" fill="#1A1918"/>
            <g transform="translate(11 3)">
                <path d="M496.3 554.132c-29.225-8.92-263.826-5.51-380.305-98.772C-.485 362.097-38.017 228.16 47.877 97.88c107.62-163.236 299.39-95.06 353.285 18.946 53.896 114.006 17.054 249.974 60.434 314.062C509.103 501.073 611 518.915 611 518.915" stroke="#FFF" stroke-width="7"/>
                <mask id="b" fill="#fff">
                    <use xlink:href="#a"/>
                </mask>
                <use xlink:href="#a"/>
                <path d="M371.942-8.04C-41.19 137.8 159.304 394.196 110.762 528.69M330.37-8.04C-82.765 137.8 117.73 394.196 69.187 528.69M288.796-8.04C-124.336 137.8 76.16 394.196 27.616 528.69M226.437-8.04C-186.695 137.8 13.8 394.196-34.743 528.69M184.865-8.04C-228.268 137.8-27.773 394.196-76.315 528.69M413.515-8.04C.382 137.8 200.877 394.196 152.333 528.69M455.087-8.04C41.955 137.8 242.45 394.196 193.907 528.69M496.66-8.04C83.527 137.8 284.022 394.196 235.48 528.69M538.233-8.04C125.1 137.8 325.595 394.196 277.05 528.69M579.805-8.04C166.673 137.8 367.168 394.196 318.625 528.69M621.378-8.04C208.245 137.8 408.74 394.196 360.198 528.69M662.95-8.04C249.82 137.8 450.314 394.196 401.77 528.69M704.523-8.04C291.39 137.8 491.886 394.196 443.343 528.69M351.523 21.96C-45.98 162.626 146.93 409.927 100.223 539.65M351.523 61.96C-45.98 202.626 146.93 449.927 100.223 579.65M351.523 101.96C-45.98 242.626 146.93 489.927 100.223 619.65M351.523 141.96C-45.98 282.626 146.93 529.927 100.223 659.65M351.523 181.96C-45.98 322.626 146.93 569.927 100.223 699.65M351.523 221.96C-45.98 362.626 146.93 609.927 100.223 739.65M351.523 261.96C-45.98 402.626 146.93 649.927 100.223 779.65M351.523 301.96C-45.98 442.626 146.93 689.927 100.223 819.65M351.523 341.96C-45.98 482.626 146.93 729.927 100.223 859.65M351.523-18.04C-45.98 122.626 146.93 369.927 100.223 499.65M351.523-58.04C-45.98 82.626 146.93 329.927 100.223 459.65" id="path" stroke="#FFF" stroke-width="7" mask="url(#b)"/>
                <path d="M351.523-98.04C-45.98 42.626 146.93 289.927 100.223 419.65" stroke="#FFF" stroke-width="7" mask="url(#b)"/>
            </g>
        </g>
    </g>
</svg>
