<svg width="1024px" height="768px" viewBox="0 0 1024 768" version="1.1" xmlns="http://www.w3.org/2000/svg" xmlns:xlink="http://www.w3.org/1999/xlink" xmlns:sketch="http://www.bohemiancoding.com/sketch/ns">
    <!-- Generator: Sketch 3.3.2 (12043) - http://www.bohemiancoding.com/sketch -->
    <title>newcreation</title>
    <desc>Created with Sketch.</desc>
    <defs></defs>
    <g id="Page-2" stroke="none" stroke-width="1" fill="none" fill-rule="evenodd" sketch:type="MSPage">
        <g id="newcreation" sketch:type="MSArtboardGroup">
            <g id="bottle" sketch:type="MSLayerGroup" transform="translate(417.000000, 264.000000)">
                <path d="M74.5,300 C115.645214,300 149,289.926407 149,277.5 C149,265.073593 118.47834,255 74.5,255 C30.5216599,255 0,265.073593 0,277.5 C0,289.926407 33.3547861,300 74.5,300 Z" id="bottle2" stroke="#FFFFFF" fill-opacity="0" fill="#D8D8D8" sketch:type="MSShapeGroup"></path>
                <path d="M74.5,300 C115.645214,300 149.649034,289.857808 149,277.5 C146.161194,223.448257 140.926773,159.507843 95,71.4217682 C76.035701,35.0488521 115.191422,19.5045782 115.191422,13.0755125 C115.191422,3.48866522 89.5015945,0.139643315 74.5,0.139643312 C59.4984055,0.139643308 33.7514153,1.88722956 33.7514153,13.0755125 C33.7514153,20.7903906 71.556837,37.1557285 54.6416283,71.4217682 C9.78377628,162.292709 3.78746097e-16,206.784515 0,277.5 C3.78746097e-16,289.926407 33.3547861,300 74.5,300 Z" id="bottle3" stroke="#FFFFFF" fill-opacity="0" fill="#D8D8D8" sketch:type="MSShapeGroup"></path>
                <path d="M74.5,300 C115.645214,300 149.649034,289.857808 149,277.5 C147.618172,251.189561 145.668728,222.536108 138.734776,189.895334 C137.972812,186.308478 115.434471,176.004806 76.042984,175.424575 C36.6514969,174.844345 9.72870203,184.980653 8.8542824,188.711962 C2.10820496,217.498713 1.75813138e-16,244.674022 0,277.5 C3.78746097e-16,289.926407 33.3547861,300 74.5,300 Z" id="water" fill-opacity="0.400000006" fill="#FFFFFF" sketch:type="MSShapeGroup"></path>
                <path d="M74.5,24.8003356 C98.9814736,24.8003362 115.227778,19.2932878 115.227778,12.5 C115.227778,5.70671225 96.9933306,0.19966443 74.5,0.19966443 C52.0066694,0.19966443 33.7722222,5.70671225 33.7722222,12.5 C33.7722222,19.2932878 50.0185264,24.8003349 74.5,24.8003356 Z" id="bottle1" stroke="#FFFFFF" fill-opacity="0" fill="#D8D8D8" sketch:type="MSShapeGroup"></path>
            </g>
            <g id="virus" sketch:type="MSLayerGroup" transform="translate(0.000000, -1.000000)">
                <path d="M364.203003,110.124353 C535.934997,232.440729 522,300.189112 522,447.553736" id="virus12-path" sketch:type="MSShapeGroup"></path>
                <path d="M571.990233,92.0644531 C478.473682,203.260292 486.34375,334.082031 547.537109,486.128906" id="virus11-path" sketch:type="MSShapeGroup"></path>
                <path d="M624.195314,108.933594 C508.312496,207.533203 486.34375,284.082031 547.537109,436.128906" id="virus10-path" sketch:type="MSShapeGroup"></path>
                <path d="M402.357989,68.4552998 C559.644427,241.423165 502.000002,279.068245 494.076197,483.602211" id="virus9-path" sketch:type="MSShapeGroup"></path>
                <path d="M700.45899,143.953125 C486.759096,219.899506 482.613759,347.050354 532.537109,502.128906" id="virus8-path" sketch:type="MSShapeGroup"></path>
                <path d="M623.43894,90.2156887 C476.363623,257.930868 521.72617,339.293631 474.233654,418.623159" id="virus7-path" sketch:type="MSShapeGroup"></path>
                <path d="M414.893897,101.410565 C524.885146,212.724072 528.422835,258.44937 458.906901,513.840032" id="virus6-path" sketch:type="MSShapeGroup"></path>
                <path d="M297.25242,123.399427 C471.317483,207.092626 550.033349,198.915052 471.317483,447.332777" id="virus5-path" sketch:type="MSShapeGroup"></path>
                <path d="M645.605475,74.921875 C636.380865,137.583984 584.911972,189.668042 559.505858,210.128906 C472.316629,280.346924 496.899097,346.793551 546.537109,470.128906" id="virus4-path" sketch:type="MSShapeGroup"></path>
                <path d="M325.530667,127.744667 C493.500531,166.580898 535.106091,327.388939 539.356641,486.3321" id="virus3-path" sketch:type="MSShapeGroup"></path>
                <path d="M409.260688,117.105143 C463.62089,171.291747 531.945304,252.559809 489.608155,521.378081" id="virus2-path" sketch:type="MSShapeGroup"></path>
                <path d="M677.162109,125.130859 C438.581803,195.486031 501.920088,363.14772 522.537109,407.128906" id="virus1-path" sketch:type="MSShapeGroup"></path>
                <path d="M10.3689116,27.8608457 C10.3689116,25.0830185 9.35005433,22.5088498 5.2116273,23.4059858 C2.20667561,24.0574048 -0.889261357,22.2879801 0.236632596,19.5043088 C1.36252655,16.7206376 5.21162742,16.8021843 6.91568791,19.5043088 C9.13160562,23.0180841 12.6386888,21.5497559 13.8819791,19.5043084 C15.1252693,17.4588608 17.0881357,15.4130246 19.4590079,14.6330673 C21.8298802,13.8531099 21.6315279,10.8934364 19.4590079,8.79634866 C16.6236164,6.05940493 16.238302,1.77091 20.5529159,1.08838597 C24.8675298,0.405861937 25.1927077,3.78169211 24.3798739,7.57556226 C23.2918694,12.6537802 25.7493512,11.9329887 28.4035221,11.2886771 C30.3203608,10.8233561 31.915195,11.2886771 34.7028644,11.9329887 C37.4905337,12.5773003 41.0966353,12.7089453 41.0966353,8.79634888 C41.0966353,6.61296092 43.1346321,3.90448899 45.9336339,6.00337925 C48.7326356,8.10226951 44.7277749,10.8543156 43.6648954,11.2886771 C40.2570451,12.6813458 40.5359986,16.3226438 42.5218614,17.3056906 C43.7335956,17.9055263 46.2682627,19.7363476 47.002073,22.5200201 C47.7358833,25.3036926 52.6500012,26.3064522 54.7165384,24.1589786 C56.7830755,22.0115049 59.8254791,20.4176427 59.8254791,24.1589786 C59.8254791,27.9003144 55.5778791,27.1000435 51.6937229,26.5619499 C49.4444092,26.2503401 47.8031908,27.9440041 47.8031908,31.8575704 C47.8031908,35.7711367 46.9906411,37.6292037 45.9336354,39.8244269 C44.8766296,42.0196501 45.77328,44.8356706 47.8031908,46.162283 C50.6527821,48.0245831 51.5696158,48.5166309 50.176899,50.8112574 C48.7841822,53.1058838 46.9450622,50.8280494 46.6496589,48.9829377 C45.9336339,44.5105908 41.3883505,44.5105908 40.2570451,45.2730135 C38.9856911,46.1298194 37.425581,46.162283 34.1345049,46.162283 C30.8434288,46.162283 30.0693787,46.162283 30.8434288,48.7651743 C31.6174788,51.3680655 30.6272933,52.4921536 28.4035229,52.0180073 C25.7049977,51.442635 26.17871,49.5545693 27.1134151,48.0245831 C28.7643426,45.322237 27.1134151,45.2730135 24.3798739,44.5105908 C21.6463326,43.748168 19.6287499,42.3380285 18.0732924,41.3184833 C16.5178348,40.2989382 14.4845051,41.3184833 13.881979,43.8784817 C13.3341053,46.2062743 11.4960638,47.4979927 9.45028273,46.1622833 C7.40450169,44.8265739 8.46523402,41.8067009 10.3689115,41.3184838 C12.6332765,40.7377648 12.623216,37.0146383 11.4960638,34.5286175 C10.3689116,32.0425967 10.3689116,30.6386729 10.3689116,27.8608457 Z" id="virus12" fill="#141413" sketch:type="MSShapeGroup"></path>
                <path d="M11.2984303,27.4657701 C11.2984303,25.7002987 10.6143929,24.0642641 7.83594798,24.6344465 C5.8184924,25.0484613 3.73995139,23.9238885 4.49585075,22.1547029 C5.2517501,20.3855173 7.83594807,20.437345 8.98001516,22.1547029 C10.4677314,24.3879123 12.8223066,23.454704 13.6570231,22.1547026 C14.4917396,20.8547013 15.8095631,19.5544529 17.4013123,19.0587445 C18.9930615,18.563036 18.8598923,16.6819906 17.4013123,15.3491689 C15.4976955,13.6096813 15.2390042,10.8840924 18.135737,10.4503085 C21.0324697,10.0165246 21.2507867,12.1620618 20.7050687,14.5732879 C19.9746075,17.8007919 21.6245044,17.3426868 23.4064537,16.9331892 C24.6933752,16.6374505 25.7641103,16.9331892 27.6356876,17.3426868 C29.5072648,17.7521845 31.9283186,17.8358526 31.9283186,15.349169 C31.9283186,13.9614985 33.2965829,12.2401064 35.1757684,13.5740737 C37.0549539,14.9080411 34.3661824,16.6571271 33.6525895,16.9331892 C31.364637,17.8183114 31.55192,20.132569 32.8851827,20.7573526 C33.6987132,21.1385833 35.4004305,22.3021771 35.8930939,24.0713636 C36.3857573,25.84055 39.6849832,26.4778623 41.0724088,25.1130174 C42.4598345,23.7481724 44.5024344,22.7351799 44.5024344,25.1130174 C44.5024344,27.4908548 41.6506932,26.9822359 39.0429599,26.640246 C37.5328224,26.4421997 36.430946,27.5186221 36.430946,30.005922 C36.430946,32.493222 35.8854188,33.6741321 35.1757694,35.0693246 C34.46612,36.4645172 35.0681105,38.2542626 36.430946,39.0974023 C38.3440962,40.2810027 38.9596373,40.5937279 38.0245992,42.052097 C37.0895611,43.510466 35.8548181,42.0627693 35.6564911,40.8900931 C35.1757684,38.0476554 32.1241695,38.0476554 31.364637,38.5322196 C30.5110791,39.0767698 29.463657,39.0974023 27.254104,39.0974023 C25.0445511,39.0974023 24.5248717,39.0974023 25.0445511,40.7516917 C25.5642305,42.4059811 24.8994427,43.1204047 23.4064543,42.819057 C21.5947264,42.4533743 21.912766,41.2533983 22.5403055,40.2810027 C23.6487004,38.563504 22.5403055,38.5322196 20.7050687,38.0476554 C18.8698319,37.5630912 17.5152732,36.6668652 16.4709747,36.0188847 C15.4266762,35.3709042 14.0615453,36.0188847 13.6570231,37.6459132 C13.2891932,39.1253613 12.0551744,39.9463238 10.6816839,39.0974025 C9.30819352,38.2484811 10.0203449,36.3291755 11.2984302,36.018885 C12.8186729,35.6498042 12.8119185,33.2835399 12.0551744,31.7035285 C11.2984303,30.123517 11.2984303,29.2312415 11.2984303,27.4657701 Z" id="virus11" fill="#382310" sketch:type="MSShapeGroup" transform="translate(24.419708, 26.640246) rotate(58.000000) translate(-24.419708, -26.640246) "></path>
                <path d="M0.0987808818,12.8114502 C0.568778673,11.7543823 2.17556313,11.5102012 2.88691313,12.4763867 C3.81193491,13.8388392 5.27594612,13.104613 5.79495029,12.1314306 C6.31395445,11.1198246 7.13334148,10.0123147 8.12304811,9.43574097 C9.11275473,8.8322696 9.02995373,7.32997471 8.12304811,6.53268184 C6.93943063,5.59679051 6.7785834,3.62580186 8.57969353,2.49454493 C10.3808037,1.32528322 10.5165473,3.08718223 10.1772346,5.24809816 C9.72305353,8.0688881 10.7489148,7.43273801 11.8568828,6.7930864 C12.6570558,6.31626314 13.3228099,6.41301383 14.4865061,6.50634929 C15.6502022,6.62746071 17.155548,6.36397081 17.155548,3.79368395 C17.155548,2.35935934 18.0062978,0.255710469 19.1747246,1.26415052 C20.3431513,2.35897174 18.6713459,4.75050791 18.2276531,5.1592765 C16.8050661,6.42647607 16.9215136,8.77695682 17.7505003,9.29473032 C18.2563316,9.62475593 19.3144134,10.7493688 19.6207382,12.6637628 C19.9270629,14.6074368 21.9784325,15.3272661 22.8410962,13.7130767 C23.70376,12.0363688 24.9737934,10.6936255 24.9737934,13.6499852 C24.9737934,16.6063449 23.2006579,15.9386392 21.5792397,15.5119304 C20.640277,15.2784051 19.9551601,16.4689797 19.9551601,19.2286757 C19.9551601,21.9883718 19.615966,23.2306198 19.1747252,24.6606369 C18.7334844,26.0571803 19.1077858,28.1055377 19.9551601,29.3158075 C21.1447052,31.077994 21.527432,31.5821569 20.9460506,33.0154152 C20.3646692,34.4025797 19.5969393,32.4530825 19.473625,31.1145461 C19.1747246,27.9023981 17.2773228,27.2944777 16.8050661,27.6386667 C16.2743468,28.0101872 15.6230881,27.8017022 14.2492477,27.3159954 C12.8754074,26.8276231 12.5522848,26.7123724 12.8754074,28.3426875 C13.1985301,30.0025182 12.785183,30.4698034 11.8568831,29.7668086 C10.7303997,28.9325585 10.9281481,27.9883549 11.3183352,27.3035463 C12.0075052,26.0416512 11.3183352,25.7777897 10.1772346,24.9784031 C9.0361339,24.2083851 8.19390589,23.2364502 7.54458931,22.5486682 C6.89527272,21.8843231 6.04647123,22.133094 5.79495026,23.2286183 C5.5662436,24.2043976 4.79896402,24.4866318 3.94496479,23.5880571 C3.09096556,22.7302068 3.53376202,21.6328827 4.32844096,21.6535982 C5.27368678,21.6589111 5.26948706,19.998279 4.79896402,18.8170065 C4.32844099,17.6782809 4.32844099,17.0766088 4.32844099,15.8861302 C4.32844099,14.6956517 3.90312504,13.6195859 2.17556308,14.0794285 C0.921163718,14.3780381 -0.371216909,13.8200093 0.0987808818,12.8114502 Z" id="virus10" fill="#2D3B1F" sketch:type="MSShapeGroup"></path>
                <path d="M2.35381383,13.0150815 C11.3878503,2.27266528 12.4495787,21.7907218 17.0323924,18.4161838 C21.6152061,15.0416458 8.52592269,1.00000053 16.1117561,1 C23.6975895,0.999999469 17.2466882,15.7798353 22.349885,15.7798352 C27.4530818,15.7798351 27.4931751,-1.44987259 32.2911016,5.45768497 C37.0890282,12.3652425 24.1386863,15.1079819 26.4874368,17.7576207 C28.8361873,20.4072595 43.4867116,10.445968 39.4734147,19.016529 C35.4601178,27.5870899 28.7248726,19.9792028 27.2406707,23.3203452 C25.7564688,26.6614875 41.5676074,30.4101139 39.0667282,37.5933153 C36.5658489,44.7765167 26.2194328,24.6864885 23.594146,26.5879509 C20.9688593,28.4894134 26.2519726,36.7989557 20.696003,35.7394244 C15.1400334,34.679893 20.7665388,30.1908211 17.8264405,26.5879509 C14.8863422,22.9850807 15.3663754,35.1376343 7.64248432,31.7064568 C-0.0814067616,28.2752794 15.7705389,24.338291 14.4399084,22.6681572 C13.1092779,20.9980234 -6.68022266,23.7574977 2.35381383,13.0150815 Z" id="virus9" fill="#19250D" sketch:type="MSShapeGroup"></path>
                <path d="M2.03611187,14.6755409 C11.0701484,3.9331247 12.1318767,23.4511812 16.7146904,20.0766432 C21.2975041,16.7021052 8.20822072,2.66045996 15.7940541,2.66045942 C23.3798875,2.66045889 16.9289863,17.4402947 22.0321831,17.4402946 C27.1353799,17.4402945 27.1754731,0.210586834 31.9733997,7.1181444 C36.7713262,14.025702 23.8209843,16.7684413 26.1697348,19.4180801 C28.5184853,22.0677189 43.1690097,12.1064274 39.1557127,20.6769884 C35.1424158,29.2475494 28.4071707,21.6396622 26.9229688,24.9808046 C25.4387669,28.321947 41.2499055,32.0705733 38.7490262,39.2537747 C36.248147,46.4369761 25.9017309,26.3469479 23.2764441,28.2484104 C20.6511573,30.1498729 25.9342706,38.4594152 20.378301,37.3998838 C14.8223314,36.3403524 20.4488368,31.8512806 17.5087386,28.2484104 C14.5686403,24.6455402 15.0486734,36.7980937 7.32478236,33.3669163 C-0.399108723,29.9357388 15.4528369,25.9987504 14.1222064,24.3286166 C12.7915759,22.6584828 -6.99792463,25.4179571 2.03611187,14.6755409 Z" id="virus8" fill="#2E3F1B" sketch:type="MSShapeGroup" transform="translate(19.765025, 21.736228) rotate(92.000000) translate(-19.765025, -21.736228) "></path>
                <path d="M0.742314607,3.63436103 C3.27909203,1.07467826 5.89478595,11.0308949 7.60134532,9.21556702 C9.30790469,7.72130302 3.75722179,-1.49661952 7.59239384,1.65023865 C11.4275659,4.24851769 7.98257258,8.37165994 9.62368133,8.78026947 C11.2647901,9.15267574 12.9472118,2.60615688 14.3728672,6.57389997 C15.7985226,9.94272071 11.0893305,9.02675037 11.6719734,10.5623067 C12.2546164,11.9988708 18.7525831,9.66506119 20.2359777,11.5103411 C21.7193723,12.9755934 11.771638,11.2782319 11.5077667,12.6314697 C11.2438953,14.0263214 15.6940697,14.213425 13.493938,15.7731691 C11.2938062,17.6850405 11.7256829,14.5348537 9.57898898,14.6446981 C7.4322951,14.7117249 11.5173183,17.6809627 7.82632258,20.5453409 C4.13532689,24.1518645 8.16497928,14.7819535 7.18065722,14.7955382 C6.19633516,14.7975809 0.469663992,27.4071701 0.0216235633,17.1317332 C-0.426416866,6.44555344 6.23171596,15.3740098 6.67449478,12.1880989 C7.1172736,9.14180222 -1.79446281,7.00485735 0.742314607,3.63436103 Z" id="virus7" fill="#3F2E14" sketch:type="MSShapeGroup"></path>
                <path d="M0.164873976,11.8409604 C1.74864621,1.35787838 5.99082444,15.671659 10.2032803,11.4124968 C14.4157361,7.15333462 4.08010699,1.69408731 13.0286367,1.04405744 C21.9771663,0.394027572 11.761923,7.11473427 17.8592736,9.47784715 C23.9566242,11.84096 18.8061398,-2.18640673 25.5067744,6.06017241 C32.207409,14.3067516 20.7809337,10.7551343 21.9953004,14.3067511 C23.209667,17.858368 32.1309771,7.23311171 30.8529205,16.5050408 C29.5748639,25.77697 25.408769,16.0141273 23.4474461,19.8810264 C21.4861231,23.7479255 31.2350659,22.7482637 25.5067744,27.1718614 C19.7784828,31.595459 21.9953004,22.3966116 18.5895916,23.3639358 C15.1838829,24.3312599 22.3679352,30.2588634 15.8395808,29.0154789 C9.31122644,27.7720944 17.154431,23.3639358 13.0286372,21.7678214 C8.90284347,20.171707 10.0745406,31.0954497 5.35748541,25.7769689 C0.64043026,20.4584881 8.92908237,24.0903935 8.92908239,17.7093711 C8.92908241,11.3283487 -1.41889825,22.3240424 0.164873976,11.8409604 Z" id="virus6" fill="#2E1743" sketch:type="MSShapeGroup"></path>
                <path d="M6.44926772,21.965658 C8.4379009,8.80277746 13.7645105,26.7756012 19.0537998,21.427666 C24.343089,16.0797308 11.3653548,9.22493175 22.6014042,8.40873423 C33.8374536,7.59253671 21.0108796,16.031263 28.6669007,18.9984603 C36.3229218,21.9656576 29.8558151,4.35246395 38.2693382,14.7071226 C46.6828612,25.0617813 32.3354271,20.6022613 33.8602232,25.0617808 C35.3850194,29.5213003 46.586891,16.1799013 44.9821238,27.822021 C43.3773566,39.4641407 38.1462796,27.2056148 35.6835821,32.0610124 C33.2208846,36.91641 45.4619574,35.6612039 38.2693382,41.2156093 C31.0767189,46.7700147 33.8602232,35.2196587 29.5839105,36.4342607 C25.3075978,37.6488627 34.328115,45.0917441 26.1309123,43.5305122 C17.9337095,41.9692804 27.7818786,36.4342607 22.6014049,34.4301303 C17.4209313,32.426 18.8921502,46.1421876 12.9692705,39.4641394 C7.04639084,32.7860911 17.4538776,37.3464233 17.4538777,29.3342151 C17.4538777,21.3220069 4.46063455,35.1285385 6.44926772,21.965658 Z" id="virus5" fill="#4E181F" sketch:type="MSShapeGroup" transform="translate(25.690616, 26.049083) rotate(30.000000) translate(-25.690616, -26.049083) "></path>
                <path d="M8.79682095,5.54823293 C12.265607,3.68780866 4.93057917,1.30318096 11.3477623,1.01924452 C17.6484641,0.735308082 10.2236202,3.67094783 14.9723903,4.70316786 C20.0096945,5.73538789 15.3355708,-0.391839083 20.6959645,3.21030971 C27.1628835,6.81245849 17.3577924,5.26109353 18.5681744,6.81245831 C19.8649234,8.36382308 25.9195684,3.72265571 26.3611859,7.77268272 C26.5655066,11.8227097 21.6106738,7.55824911 20.2347647,9.24733082 C18.7069816,10.9364125 27.6757945,10.499755 22.8144982,12.4320056 C17.4457764,14.3642561 19.0955548,10.3461516 15.9834581,10.7686838 C12.8053907,11.191216 19.9812313,13.7804241 13.4397097,13.2373073 C7.06073581,12.6941905 14.6454517,10.7686838 10.8382021,10.0714927 C7.16282163,9.37430163 7.62605386,14.1458494 3.40243811,11.8227093 C-0.31880019,9.4995691 6.9292429,11.0860043 7.34806089,8.29874044 C7.76687887,5.51147657 -2.49454724,10.3144529 0.573482287,5.73538804 C3.30904118,1.15632314 4.96875645,7.4086572 8.79682095,5.54823293 Z" id="virus4" fill="#343228" sketch:type="MSShapeGroup"></path>
                <path d="M0.172192101,14.7245807 C1.7289048,10.5226498 5.26895231,17.4284338 9.36515667,13.2868121 C13.461361,9.14519032 4.13238114,2.02700894 9.36515675,1.07088245 C14.5979324,0.114755949 10.8807854,9.10765524 16.8098669,11.4055531 C22.7389484,13.703451 21.2497658,4.65999352 24.2463188,7.39745137 C27.2428718,10.1349092 19.6508977,12.6475908 20.8317514,16.1011934 C22.012605,19.554796 33.3560751,17.89318 33.0240638,21.0276104 C32.6920525,24.1620408 24.1510183,17.761451 22.2438221,21.5216349 C20.336626,25.2818189 28.3570585,29.6359536 25.9598361,31.3307666 C23.5626138,33.0255795 20.8317514,23.9677974 17.5200303,24.9084262 C14.2083092,25.849055 17.3773328,33.2176322 14.0713354,32.2633531 C10.7653381,31.309074 16.1244759,24.9084262 12.112542,23.3563599 C8.10060812,21.8042936 3.21857273,36.407624 1.67951308,33.305967 C0.140453429,30.2043101 8.1261229,25.6148358 8.12612292,19.409911 C8.12612294,13.2049862 -1.3845206,18.9265116 0.172192101,14.7245807 Z" id="virus3" fill="#2A2834" sketch:type="MSShapeGroup"></path>
                <path d="M4.13985088,18.9347609 C5.69656358,14.73283 9.23661109,21.6386141 13.3328155,17.4969923 C17.4290198,13.3553706 8.10003991,6.23718919 13.3328155,5.2810627 C18.5655911,4.3249362 14.8484442,13.3178355 20.7775257,15.6157333 C26.7066072,17.9136312 25.2174246,8.87017378 28.2139776,11.6076316 C31.2105305,14.3450895 23.6185565,16.8577711 24.7994102,20.3113737 C25.9802638,23.7649763 37.3237339,22.1033602 36.9917226,25.2377907 C36.6597113,28.3722211 28.118677,21.9716312 26.2114809,25.7318152 C24.3042847,29.4919992 32.3247173,33.8461338 29.9274949,35.5409468 C27.5302725,37.2357598 24.7994102,28.1779776 21.4876891,29.1186064 C18.175968,30.0592353 21.3449915,37.4278124 18.0389942,36.4735333 C14.7329968,35.5192542 20.0921346,29.1186064 16.0802008,27.5665402 C12.0682669,26.0144739 7.18623151,40.6178042 5.64717186,37.5161473 C4.1081122,34.4144904 12.0937817,29.825016 12.0937817,23.6200912 C12.0937817,17.4151664 2.58313818,23.1366918 4.13985088,18.9347609 Z" id="virus2" fill="#2A2834" sketch:type="MSShapeGroup" transform="translate(20.483263, 21.580033) rotate(73.000000) translate(-20.483263, -21.580033) "></path>
                <path d="M11.4451223,8.04348327 C14.5462018,8.4203763 14.718972,-1.10128927 16.7509681,1.42806729 C18.8204679,4.19730858 13.7529215,6.81871895 14.6111088,11.6718549 C15.4941525,16.6839796 19.0109579,11.2327109 18.7932197,14.7506964 C18.5698944,18.2329451 14.9683061,14.1197369 13.7998764,16.4650626 C12.6146294,18.7028208 17.103165,26.0853618 15.5486439,27.0103266 C13.9829664,27.863932 14.1211442,19.4048893 11.790469,19.6382682 C9.45321579,19.8295716 9.99408436,26.5640416 8.42136404,25.4721549 C6.85590761,24.4267302 10.2162508,19.6578725 8.73825081,17.9428797 C7.27563399,16.326282 4.82787631,20.7139158 4.25890903,18.5148665 C3.69956057,16.3773418 8.30225957,17.0993812 7.77121448,14.1424099 C7.25157128,11.2583683 -0.9135723,14.3152753 0.0844705227,12.5477495 C1.06915276,10.6947658 5.52791812,12.8476522 8.33797669,10.2231502 C11.1000795,7.29191001 5.71717757,5.11166278 8.03198118,3.79883227 C10.3337421,2.40257718 8.35895884,7.76199761 11.4451223,8.04348327 Z" id="virus1" fill="#24222F" sketch:type="MSShapeGroup"></path>
            </g>
            <g id="fire-box" sketch:type="MSLayerGroup" transform="translate(-15.000000, -3.000000)">
                <path d="M663.393402,117.179771 C516.024821,169.566507 467.940405,248.13088 481.210526,309.246178 C491.384487,356.102165 504.039558,430.831322 475.858631,458.33889" id="fire-path" sketch:type="MSShapeGroup"></path>
                <path d="M16.6280104,48.2624873 C20.2355174,59.4999717 34.5791371,56.2838191 39.7121652,53.388445 C55.815997,44.3047977 47.7962608,38.3817178 50.9203969,18.9411483 C43.0551226,28.6869635 42.4115316,42.2396088 36.7133094,42.2396088 C33.6184245,36.2292083 43.0330127,22.3550128 46.5874218,3.1500849 C39.6990125,12.9404059 25.891925,18.9411483 20.9575917,37.3967176 C19.8834451,26.1266514 20.957592,25.2389438 24.7582558,16.6616735 C14.1504759,26.4178396 11.0983572,31.0374641 16.6280104,48.2624873 Z" id="fire" fill="#FF8900" sketch:type="MSShapeGroup" transform="translate(32.471311, 29.545845) rotate(-60.000000) translate(-32.471311, -29.545845) "></path>
            </g>
            <g id="stem" sketch:type="MSLayerGroup" transform="translate(443.000000, 167.000000)" stroke-linecap="round" stroke-linejoin="round">
                <path d="M85.3005088,370.675435 C85.3005088,370.675435 65.7892852,290.856105 85.300509,191.429587 C108.983589,70.743865 68.3230663,21.706788 46.4144321,0.381850216" id="stem1" stroke="#8FB162" stroke-width="4" sketch:type="MSShapeGroup" transform="translate(69.446922, 185.528643) scale(-1, 1) translate(-69.446922, -185.528643) "></path>
                <path d="M0.449468171,137.112722 C0.449468173,104.171411 19.2496963,67.685971 46.8330322,62.226763" id="stem2" stroke="#8FB062" stroke-width="3" sketch:type="MSShapeGroup" transform="translate(23.641250, 99.669742) scale(-1, 1) translate(-23.641250, -99.669742) "></path>
            </g>
            <g id="leaf" sketch:type="MSLayerGroup" transform="translate(437.000000, 178.000000)" fill="#B8E986">
                <path d="M78.041847,197.929452 C69.474985,220.396561 66.2021776,247.889369 83.4915809,258.994419 C97.0127327,241.877855 78.0418471,223.923849 78.041847,197.929452 Z" id="Path-7" sketch:type="MSShapeGroup" transform="translate(79.703460, 228.461935) scale(-1, 1) rotate(-13.000000) translate(-79.703460, -228.461935) "></path>
                <path d="M43.9739513,141.754738 C36.2858756,161.917178 33.3487919,186.589781 48.8646531,196.555678 C60.9988089,181.194926 43.9739514,165.082637 43.9739513,141.754738 Z" id="Path-7" sketch:type="MSShapeGroup" transform="translate(45.465117, 169.155208) rotate(-30.000000) translate(-45.465117, -169.155208) "></path>
                <path d="M56.5650147,8.53708542 C49.9206853,25.9622378 47.3823451,47.2852461 60.7917464,55.898156 C71.2785484,42.6228062 56.5650147,28.6979488 56.5650147,8.53708542 Z" id="Path-7" sketch:type="MSShapeGroup" transform="translate(57.853737, 32.217621) rotate(4.000000) translate(-57.853737, -32.217621) "></path>
                <path d="M18.3004345,55.332499 C13.1389489,68.8688048 11.167101,85.4330651 21.5838682,92.1237947 C29.7302853,81.8111621 18.3004346,70.9939754 18.3004345,55.332499 Z" id="Path-7" sketch:type="MSShapeGroup" transform="translate(19.301547, 73.728147) rotate(-81.000000) translate(-19.301547, -73.728147) "></path>
                <path d="M89.7272841,-4.14300003 C85.6034335,6.67204548 84.0279945,19.9063232 92.3506353,25.2519874 C98.8593441,17.0125465 89.7272841,8.36998412 89.7272841,-4.14300003 Z" id="Path-7" sketch:type="MSShapeGroup" transform="translate(90.527139, 10.554494) scale(-1, 1) rotate(-65.000000) translate(-90.527139, -10.554494) "></path>
            </g>
            <g id="flower1" sketch:type="MSLayerGroup" transform="translate(406.953118, 234.308464) rotate(-61.000000) translate(-406.953118, -234.308464) translate(371.953118, 199.308464)">
                <path d="M32.9167299,42.7900658 C38.5856714,44.4534264 45.6293815,47.9437071 51.2774836,59.8777231 C56.9255857,71.811739 58.3912884,61.9989191 56.9325326,58.0141776 C55.4737768,54.0294361 49.0615621,39.9691716 49.0615632,36.8104277 C49.0615644,33.6516838 50.6453558,27.8033966 50.6453558,27.8033966 C50.6453558,27.8033966 27.2477884,41.1267052 32.9167299,42.7900658 Z" id="Path-13" fill="#D0B77D" sketch:type="MSShapeGroup"></path>
                <path d="M6.8233045,43.1026577 C3.29387029,41.6956829 -2.22793133,38.6120863 5.47569144,28.8043181 C6.56628545,20.0290458 13.4154938,16.5823395 16.1808155,15.8068621 C18.9461373,15.0313847 27.913385,10.540815 31.9915879,15.5694196 C34.3679093,11.5909932 42.2174055,9.28918921 42.2174068,7.19388467 C42.217408,5.09858014 42.3841212,-0.805278358 50.1231084,1.12710011 C57.8620957,3.05947858 57.3202713,5.18635802 59.0638321,7.19388473 C62.3495072,5.18635785 71.5333556,9.09532075 69.2340797,13.5113732 C66.9348038,17.9274257 56.7512938,28.7537976 54.4166515,29.4421294 C57.6259163,30.4367355 58.3211917,33.2071108 55.2641195,36.7914828 C52.2070473,40.3758548 50.581574,44.9169461 48.2197787,45.6861076 C45.8579834,46.4552692 38.2572931,46.6371428 32.5681439,48.5695196 C26.8789948,50.5018963 18.4384146,50.3459178 19.6818313,45.879977 C17.3200348,47.1991733 9.58862657,55.9681298 5.57294186,55.0177279 C1.55725715,54.0673259 -3.99296368,49.6077007 6.8233045,43.1026577 Z" id="Path-14" fill="#FF66BB" sketch:type="MSShapeGroup"></path>
                <path d="M18.3967364,28.0351557 C25.2952017,31.7502478 26.27402,33.0006108 30.5189386,29.8987012 C34.7638571,26.7967915 36.8193768,29.9612193 41.0781875,26.6212356 C45.3369982,23.2812518 48.1711554,18.9971812 49.2895331,12.4106753 C50.2759299,18.9971812 46.4136977,25.3765562 55.9170878,21.9406422 C52.9989436,23.8003414 50.421805,25.3708736 51.3317923,27.6347871 C52.2417796,29.8987005 36.0211659,36.5477256 29.178272,39.6250065 C22.3353781,42.7022875 21.6268393,39.9685397 13.1306891,40.8444258 C24.1553511,37.4798144 26.1218304,35.1218069 18.3967364,28.0351557 Z" id="Path-15" fill="#FFF3FF" sketch:type="MSShapeGroup"></path>
                <path d="M55.9170878,62.9135003 C55.9170878,58.6284915 58.3868568,51.0097492 60.703752,51.9479319 C65.5991928,53.9302476 58.6712696,58.966251 58.6712698,62.9134998 C58.67127,67.621687 55.9170878,65.7372208 55.9170878,62.9135003 Z" id="Path-16" opacity="0.1" fill="#6E8E41" sketch:type="MSShapeGroup"></path>
                <path d="M46.0859451,54.5985965 C50.8317808,52.8409686 53.5827538,59.356991 54.6372404,63.7651722 C55.6917271,68.1733534 53.2062578,69.9639443 51.173279,66.8645584 C49.1403002,63.7651724 41.3401095,56.3562244 46.0859451,54.5985965 Z" id="Path-17" fill="#81A450" sketch:type="MSShapeGroup" transform="translate(49.733648, 61.362163) rotate(-26.000000) translate(-49.733648, -61.362163) "></path>
            </g>
            <g id="flower2" sketch:type="MSLayerGroup" transform="translate(529.605815, 98.120153)">
                <path d="M15.1126783,49.8842693 C15.1126783,57.4101094 6.69196541,61.9707335 5.25430028,65.0482138 C3.81663514,68.1256942 6.48658479,71.4387549 10.0584462,70.334175 C13.6303077,69.2295951 18.1315685,64.4371391 20.9612587,64.4371392 C23.7909488,64.4371393 29.861195,69.4965743 31.2132837,70.3341749 C32.5653724,71.1717754 33.0383722,62.6956709 26.7970791,60.5433223 C20.555786,58.3909736 20.7902107,53.8451095 19.9168243,50.3054035 C19.0434379,46.7656975 15.1126783,42.3584292 15.1126783,49.8842693 Z" id="Path-12" fill="#D1C593" sketch:type="MSShapeGroup"></path>
                <path d="M5.22928705,57.1552589 C8.39790022,56.6446686 9.05384993,63.6335205 8.04307275,66.3844899 C7.03229556,69.1354592 5.76632374,71.3617258 3.62843428,72.2623803 C1.68883436,73.079499 0.256858373,72.0878305 3.62843421,67.7333126 C5.90938204,64.787382 -0.453417635,58.0709699 5.22928705,57.1552589 Z" id="Path-18" fill="#759C5D" sketch:type="MSShapeGroup" transform="translate(5.041678, 64.826109) rotate(9.000000) translate(-5.041678, -64.826109) "></path>
                <path d="M7.13021197,69.0251139 C12.8659373,65.9505625 15.8375564,65.7808661 17.7557579,67.5101895 C20.0321711,69.5624528 19.2412232,73.1685759 16.0152311,71.3670377 C12.7640742,69.5514464 6.9973475,72.0653933 5.39854319,72.6167262 C3.79973888,73.1680592 4.2041581,70.5935822 7.13021197,69.0251139 Z" id="Path-19" fill="#759C5D" sketch:type="MSShapeGroup" transform="translate(11.764643, 69.551446) rotate(9.000000) translate(-11.764643, -69.551446) "></path>
                <path d="M12.7321038,20.8103073 C6.54948662,20.8103073 4.99186934,32.2819889 4.02507247,33.8147037 C3.05827559,35.3474186 0.533861616,41.8332584 1.70476005,45.5910709 C2.87565849,49.3488834 7.90530921,48.2708911 9.73057162,52.335522 C11.555834,56.4001529 16.2071978,58.1600281 17.8297601,58.9196823 C17.8297602,60.6649338 18.3788194,64.4181646 21.2189204,69.3273952 C22.629108,71.7649621 25.3330211,76.4885239 27.3639399,77.413821 C31.3014399,79.2077663 37.6753463,78.4928828 41.8400142,76.644778 C45.8918149,74.8467589 46.7763533,71.9174958 47.727221,70.55103 C50.3410987,71.1556734 56.8852085,74.7660962 64.3785884,73.0515163 C67.4326182,72.3527157 74.7833735,70.551028 76.1530024,66.4304225 C77.5226313,62.3098171 75.908133,60.4619007 76.1530024,58.1462467 C76.8578573,51.4806534 75.4459814,47.2565981 68.7726311,45.591069 C68.7726313,43.0514622 75.3865772,39.8629756 76.7993432,32.5009722 C77.2564611,30.1189048 76.7993418,24.6452682 74.7833735,21.4533737 C72.7674052,18.2614791 69.1980479,17.0039215 66.5001704,15.084233 C59.634284,10.1987767 53.3926208,11.0763526 51.0250726,12.6804245 C51.0250727,8.72925251 45.5460685,1.35913529 34.8947015,2.34546355 C31.4804545,2.66162657 30.0123774,0.106205764 25.6559321,0.739506563 C20.6979243,1.31519014 18.6005217,4.31596379 16.1915767,7.78589321 C12.6461667,12.8928268 10.336596,16.5734909 12.7321038,20.8103073 Z" id="Path-10" fill="#FF6CB8" sketch:type="MSShapeGroup"></path>
                <path d="M15.5416741,38.9704636 C18.2594475,38.9704636 21.9386468,37.1662643 19.543139,29.7282761 C23.0939202,31.5080612 29.270678,36.0686081 29.270678,19.1369675 C31.945971,24.7614792 38.574389,38.8400925 52.9108147,31.5080612 C43.9454827,39.8313034 45.9489007,43.497319 57.3473382,44.8029831 C43.9454827,47.2981003 51.6749749,55.4426315 56.3697991,58.8039596 C50.4718499,57.9719284 43.3116936,57.797612 43.9454827,65.922612 C41.8722405,63.0983932 35.840014,55.7326706 33.9440179,64.7766159 C32.7892327,58.8039596 29.270678,55.0363815 20.7086663,55.0363815 C22.9274163,44.8029831 23.0402093,39.6281784 15.5416741,38.9704636 Z" id="Path-11" fill="#FFFBFF" sketch:type="MSShapeGroup"></path>
            </g>
            <g id="rain" sketch:type="MSLayerGroup" transform="translate(218.000000, -8.000000)" stroke="#FFFFFF" stroke-linecap="square" stroke-dasharray="4,7">
                <path d="M60.5,0.5 C60.5,0.5 74.6324301,37.4524231 81.1986452,55.9286346" id="rain10" sketch:type="MSShapeGroup"></path>
                <path d="M40.5,0.5 C40.5,0.5 45.3309978,25.3489246 49.7464967,37.7733869" id="rain9" sketch:type="MSShapeGroup"></path>
                <path d="M20.5,0.5 C20.5,0.5 35.1495286,36.0936204 41.4742929,53.8904307" id="rain8" sketch:type="MSShapeGroup"></path>
                <path d="M0.5,0.5 C0.5,0.5 4.1359252,21.9861938 7.9538878,32.7292907" id="rain7" sketch:type="MSShapeGroup"></path>
                <path d="M80,0.5 C80,0.5 90.715817,19.3971659 94.0737255,28.8457489" id="rain6" sketch:type="MSShapeGroup"></path>
                <path d="M100,0.5 C100,0.5 104.496868,21.5949096 108.245302,32.1423644" id="rain5" sketch:type="MSShapeGroup"></path>
                <path d="M130,0.5 C130,0.5 140.230195,20.8445393 143.845293,31.0168089" id="rain4" sketch:type="MSShapeGroup"></path>
                <path d="M150,0.5 C150,0.5 163.035999,51.2502306 172.053998,76.6253459" id="rain3" sketch:type="MSShapeGroup"></path>
                <path d="M170,0.5 L177.577872,21.8228419" id="rain2" sketch:type="MSShapeGroup"></path>
                <path d="M190,0.5 C190,0.5 203.492247,24.3957374 207.73837,36.343606" id="rain1" sketch:type="MSShapeGroup"></path>
            </g>
        </g>
    </g>
</svg>